<svg xmlns="http://www.w3.org/2000/svg" width="500" height="500" viewBox="0 0 500 500" version="1.1"><path d="M 237.675 91.860 C 236.671 92.255, 235.074 94.337, 234.126 96.486 L 232.402 100.394 229.582 96.697 C 226.986 93.293, 224.257 92.076, 222.703 93.630 C 222.356 93.977, 224.081 96.557, 226.536 99.363 C 228.991 102.169, 231.006 105.373, 231.014 106.483 C 231.043 110.758, 232.115 112.783, 234.080 112.269 C 235.687 111.849, 235.890 111.162, 235.369 107.907 C 234.769 104.151, 235.318 102.338, 239.661 93.750 C 241.095 90.913, 240.798 90.629, 237.675 91.860 M 245.557 99.750 C 243.500 104.563, 241.585 109.063, 241.301 109.750 C 240.981 110.527, 241.618 111, 242.987 111 C 244.346 111, 245.387 110.236, 245.710 109 C 246.141 107.353, 247.074 107, 251 107 C 254.926 107, 255.859 107.353, 256.290 109 C 256.603 110.197, 257.654 111, 258.906 111 C 260.058 111, 261 110.813, 261 110.585 C 261 109.511, 254.596 93.350, 253.734 92.250 C 251.312 89.158, 249.293 91.010, 245.557 99.750 M 276.511 94.250 C 274.218 100.974, 273.098 108.128, 273.976 110.436 C 275.650 114.839, 284.199 116.648, 287.273 113.250 C 288.143 112.287, 289.766 108.215, 290.878 104.200 C 292.568 98.100, 292.670 96.811, 291.498 96.361 C 289.158 95.463, 288.342 96.674, 286.989 103.054 C 285.799 108.661, 283.981 112, 282.120 112 C 281.714 112, 280.522 111.371, 279.470 110.602 C 277.685 109.296, 277.639 108.728, 278.789 102.023 C 279.467 98.074, 279.764 94.428, 279.451 93.921 C 278.637 92.603, 277.011 92.785, 276.511 94.250 M 214.346 97.215 C 214.665 98.433, 215.682 102.933, 216.607 107.215 C 217.723 112.377, 218.757 115, 219.676 115 C 221.934 115, 222.208 112.607, 220.664 106.374 C 219.864 103.143, 218.928 99.263, 218.585 97.750 C 218.148 95.822, 217.335 95, 215.864 95 C 214.191 95, 213.884 95.448, 214.346 97.215 M 249.306 100 C 248.209 102.906, 248.265 103, 251.087 103 C 254.403 103, 254.408 102.990, 252.839 99.547 C 251.339 96.254, 250.689 96.337, 249.306 100 M 198.500 99.654 C 195.750 100.487, 193.154 101.500, 192.730 101.904 C 191.937 102.662, 197.892 121.012, 198.923 120.985 C 199.240 120.976, 200.134 120.568, 200.910 120.077 C 202.079 119.337, 202.105 118.667, 201.063 116.153 C 198.727 110.513, 201.095 109.626, 207.320 113.810 C 211.199 116.418, 215 117.004, 215 114.995 C 215 113.922, 209.578 110, 208.096 110 C 206.534 110, 206.742 108.459, 208.500 107 C 210.581 105.273, 210.373 102.373, 208 100 C 205.665 97.665, 205.129 97.646, 198.500 99.654 M 299.083 101.250 C 298.606 102.487, 296.976 106.583, 295.461 110.350 C 293.236 115.886, 292.966 117.361, 294.056 118.034 C 296.003 119.238, 296.587 118.590, 298.596 113.004 C 299.585 110.252, 300.698 108, 301.069 108 C 301.439 108, 302.043 110.268, 302.411 113.039 C 304.092 125.714, 306.780 126.012, 311.597 114.057 C 315.585 104.164, 315.607 104, 313 104 C 311.900 104, 311 104.413, 311 104.917 C 311 105.421, 310.028 108.009, 308.840 110.667 L 306.680 115.500 305.356 108.622 C 303.579 99.390, 300.978 96.334, 299.083 101.250 M 199.250 103.012 C 196.699 104.059, 196.600 104.384, 198.021 107.039 C 198.997 108.863, 199.198 108.873, 202.556 107.272 C 208.389 104.490, 205.312 100.525, 199.250 103.012 M 177.113 108.910 C 176.004 109.611, 175.871 111.646, 176.449 119.037 C 177.333 130.340, 177.631 131.268, 179.968 130.017 C 181.127 129.397, 181.584 128.274, 181.294 126.756 C 180.935 124.881, 181.554 124.106, 184.549 122.678 C 187.974 121.045, 188.381 121.035, 190.052 122.547 C 191.757 124.090, 196.049 123.826, 195.966 122.183 C 195.930 121.486, 180.538 108.691, 179.224 108.266 C 178.826 108.138, 177.876 108.427, 177.113 108.910 M 316.458 116.524 C 312.100 124.519, 311.591 127.001, 314.309 126.999 C 315.474 126.998, 324 112.247, 324 110.233 C 324 109.673, 323.338 108.960, 322.529 108.650 C 321.479 108.247, 319.742 110.499, 316.458 116.524 M 325.746 121.979 C 323.651 130.333, 323.466 132.142, 324.609 133.091 C 325.360 133.714, 326.625 133.974, 327.419 133.669 C 330.619 132.442, 344.008 121.822, 343.465 120.943 C 342.362 119.159, 339.902 120.009, 334.616 124 C 331.702 126.200, 329.085 128, 328.800 128 C 328.515 128, 329.162 124.791, 330.237 120.869 C 331.850 114.985, 331.957 113.588, 330.846 112.884 C 330.106 112.415, 329.218 112.024, 328.874 112.015 C 328.530 112.007, 327.122 116.490, 325.746 121.979 M 180 116.810 C 180 120.419, 180.775 121.191, 183.131 119.930 C 185.637 118.589, 185.485 117.548, 182.500 115.592 C 180.035 113.977, 180 113.993, 180 116.810 M 162.624 117.863 C 161.697 118.887, 160.664 122.037, 160.330 124.863 C 159.995 127.688, 159.431 130, 159.076 130 C 158.722 130, 157.634 128.650, 156.659 127 C 154.877 123.983, 152.656 123.130, 151.490 125.016 C 151.145 125.574, 153.202 129.287, 156.062 133.266 C 162.858 142.720, 162.655 142.531, 164.443 141.047 C 165.804 139.918, 165.764 139.515, 164.082 137.378 C 162.295 135.105, 162.263 131, 164.034 131 C 164.474 131, 166.808 131.846, 169.221 132.880 C 172.792 134.411, 173.922 134.530, 175.304 133.520 C 176.237 132.838, 177 132.089, 177 131.855 C 177 131.622, 174.075 130.337, 170.500 129 C 163.594 126.417, 163.432 126.150, 164.919 119.750 C 165.880 115.610, 165.183 115.036, 162.624 117.863 M 341.541 132.491 L 334.869 139.946 338.462 143.100 C 345.864 149.600, 346.686 150.084, 347.880 148.645 C 348.730 147.621, 348.072 146.589, 344.990 144.112 C 340.557 140.550, 340.460 140.297, 342.493 137.612 C 343.868 135.796, 344.057 135.843, 347.496 138.862 C 351.255 142.163, 352.501 142.617, 353.473 141.043 C 353.799 140.517, 352.379 138.541, 350.319 136.653 C 347.098 133.701, 346.758 132.997, 347.892 131.630 C 349.074 130.206, 349.653 130.402, 353.430 133.496 C 356.611 136.103, 357.931 136.669, 358.799 135.801 C 359.668 134.932, 358.932 133.771, 355.803 131.075 C 347.944 124.300, 348.962 124.199, 341.541 132.491 M 138.144 137.707 C 137.427 138.988, 138.319 141.676, 141.710 148.457 C 144.196 153.431, 146.428 157.712, 146.670 157.971 C 147.638 159.010, 148.984 155.347, 148.456 153.111 C 147.632 149.620, 152.482 144.653, 155.263 146.141 C 156.769 146.947, 157.604 146.824, 158.807 145.621 C 159.673 144.756, 160.183 143.884, 159.940 143.684 C 159.110 142.999, 140.987 136, 140.043 136 C 139.524 136, 138.669 136.768, 138.144 137.707 M 248.250 145.879 C 245.640 152.665, 245.402 156.827, 247.468 159.559 C 248.276 160.626, 248.951 162.298, 248.968 163.272 C 249.021 166.198, 241.601 173.313, 234.093 177.536 C 230.217 179.716, 227.036 181.853, 227.023 182.285 C 227.010 182.717, 227.787 182.664, 228.750 182.168 C 235.509 178.683, 260.793 178.132, 269.750 181.275 C 272.087 182.095, 273.987 182.481, 273.971 182.133 C 273.956 181.785, 270.535 179.475, 266.370 177 C 258.438 172.287, 252 166.160, 252 163.326 C 252 162.408, 252.704 160.880, 253.564 159.929 C 255.792 157.467, 255.629 153.430, 253.011 146.250 C 251.758 142.813, 250.680 140.007, 250.616 140.015 C 250.552 140.023, 249.488 142.662, 248.250 145.879 M 356.581 146.399 C 350.316 151.723, 349.293 152.999, 350.491 153.992 C 351.633 154.940, 352.535 154.755, 354.869 153.093 C 356.486 151.942, 358.302 151, 358.904 151 C 360.265 151, 360.313 154.422, 359.016 158.945 C 358.220 161.720, 358.354 162.734, 359.715 164.237 C 361.329 166.021, 361.449 165.924, 362.647 161.869 C 363.333 159.543, 363.650 157.242, 363.349 156.756 C 363.049 156.270, 364.310 156.136, 366.152 156.457 C 369.842 157.102, 371.173 156.503, 372.760 153.484 C 373.521 152.036, 373.493 150.890, 372.660 149.421 C 370.702 145.967, 365.810 140, 364.937 140 C 364.483 140, 360.723 142.880, 356.581 146.399 M 143 141.505 C 143 142.552, 145.396 147, 145.961 147 C 146.821 147, 149 144.776, 149 143.898 C 149 143.512, 147.650 142.725, 146 142.150 C 144.350 141.575, 143 141.284, 143 141.505 M 362.569 146.525 C 360.677 147.956, 360.685 148.036, 362.993 150.493 C 367.553 155.347, 371.310 152.349, 367.056 147.250 C 364.863 144.620, 365.047 144.650, 362.569 146.525 M 125.210 152.460 C 122.894 155.424, 121 158.333, 121 158.925 C 121 161.060, 123.910 159.935, 126.008 156.988 C 127.188 155.332, 128.517 154.201, 128.961 154.476 C 129.405 154.750, 130.325 157.923, 131.005 161.525 C 131.685 165.128, 132.995 169.007, 133.917 170.146 C 135.570 172.187, 135.665 172.128, 140.756 165.912 C 144.860 160.901, 145.682 159.321, 144.762 158.213 C 143.773 157.022, 143.452 157.023, 142.553 158.220 C 137.736 164.628, 136.865 165.399, 136.009 164.015 C 135.531 163.240, 134.574 159.764, 133.883 156.290 C 133.193 152.816, 131.906 149.320, 131.024 148.521 C 129.591 147.225, 128.968 147.647, 125.210 152.460 M 375.762 160.073 C 372.556 161.941, 371.911 164.497, 373.506 169.017 C 375.156 173.695, 374.810 175, 371.920 175 C 369.402 175, 367.128 170.472, 368.803 168.797 C 369.641 167.959, 369.655 167.289, 368.854 166.324 C 366.049 162.944, 363.311 167.382, 365.015 172.546 C 367.113 178.903, 374.439 181.312, 377.494 176.650 C 378.795 174.663, 378.850 173.502, 377.846 169.154 C 376.479 163.233, 377.120 161.894, 380.051 164.546 C 381.414 165.780, 381.928 167.151, 381.566 168.592 C 381.250 169.854, 381.617 171.267, 382.440 171.950 C 383.571 172.889, 384.084 172.712, 384.954 171.085 C 386.507 168.185, 385.268 164.404, 381.814 161.497 C 378.501 158.709, 378.218 158.642, 375.762 160.073 M 110.627 174.529 C 110.169 175.724, 111.441 176.773, 115.759 178.756 C 121.044 181.184, 121.302 181.450, 119 182.097 C 117.625 182.484, 114.453 182.845, 111.950 182.900 C 107.531 182.997, 104.980 184.303, 105.019 186.450 C 105.044 187.868, 121.925 195.243, 123.640 194.585 C 126.191 193.606, 125.004 192.249, 119.517 189.874 C 116.501 188.568, 114.026 187.228, 114.017 186.895 C 114.008 186.562, 117.224 186.020, 121.163 185.690 C 127.637 185.147, 129.935 184.129, 129.985 181.780 C 129.999 181.097, 117.162 174.821, 113.134 173.543 C 111.911 173.154, 111.020 173.505, 110.627 174.529 M 380.615 180.632 C 372.750 184.638, 371.900 185.329, 373.216 186.645 C 374.533 187.961, 375.701 187.638, 383.380 183.830 C 388.940 181.072, 391.956 179.013, 391.778 178.096 C 391.299 175.628, 389.749 175.980, 380.615 180.632 M 392.258 183.660 C 391.335 184.032, 391.291 184.675, 392.085 186.159 C 393.751 189.271, 392.747 190.315, 385.500 193 C 381.790 194.375, 378.525 196.093, 378.244 196.817 C 377.147 199.653, 379.796 199.699, 386.500 196.962 C 395.156 193.428, 395.634 193.406, 396.411 196.500 C 397.096 199.229, 398.752 199.809, 399.594 197.616 C 400.053 196.419, 394.663 182.864, 393.813 183.079 C 393.641 183.122, 392.941 183.384, 392.258 183.660 M 204.500 191.363 C 160.373 209.984, 138.276 231.933, 135.335 260.065 C 134.550 267.575, 137.256 280.520, 141.555 289.824 C 146.184 299.845, 152.202 307.956, 162.273 317.750 L 170.756 326 199.878 326 C 215.895 326, 228.998 325.663, 228.996 325.250 C 228.994 324.837, 226.971 323.669, 224.501 322.653 C 213.271 318.034, 199.461 306.666, 191.410 295.411 C 185.986 287.829, 180.590 276.521, 178.329 268 C 175.693 258.065, 175.935 241.516, 178.855 232 C 183.916 215.506, 194.251 202.056, 210.250 191.144 C 212.863 189.362, 215 187.701, 215 187.452 C 215 186.879, 216.075 186.479, 204.500 191.363 M 287.812 188.731 C 310.565 206.140, 319.429 218.059, 323.614 236.869 C 326.680 250.650, 323.811 270.544, 316.744 284.500 C 308.575 300.632, 292.155 316.214, 276.568 322.624 C 274.060 323.656, 272.006 324.837, 272.004 325.250 C 272.002 325.663, 285.014 326, 300.919 326 L 329.838 326 335.383 321.250 C 349.400 309.244, 360.068 292.873, 364.068 277.234 C 367.512 263.768, 366.373 253.847, 359.804 240.090 C 351.597 222.904, 329.124 204.847, 302 193.644 C 285.413 186.794, 285.169 186.709, 287.812 188.731 M 235.121 190.002 C 227.568 191.786, 223.056 196.759, 220.898 205.680 C 220.257 208.331, 218.524 211.850, 217.046 213.500 C 215.569 215.150, 213.648 217.655, 212.777 219.067 C 211.019 221.917, 203.021 225, 197.385 225 C 193.645 225, 192.865 227.065, 195.331 230.438 C 196.397 231.896, 197.442 232.126, 200.581 231.592 C 202.736 231.226, 207.724 230.671, 211.663 230.358 C 217.789 229.872, 219.211 229.389, 221.482 227.019 L 224.137 224.248 220.514 222.009 C 217.891 220.388, 216.975 219.180, 217.196 217.635 C 217.657 214.399, 222.964 214.354, 231.626 217.514 C 240.483 220.744, 243.452 220.132, 250.683 213.585 C 254.667 209.978, 255.400 208.746, 255.400 205.657 C 255.400 201.007, 253.962 199.415, 251.130 200.930 C 248.721 202.219, 246.925 205.226, 246.011 209.500 C 245.442 212.159, 245.001 212.470, 242.135 212.240 C 238.719 211.964, 227.613 206.801, 226.475 204.959 C 225.258 202.990, 229.140 200.111, 234.362 199.111 C 237.188 198.570, 242.425 197.846, 246 197.503 C 251.062 197.018, 253.253 196.263, 255.903 194.091 C 257.890 192.462, 259.009 190.824, 258.593 190.151 C 257.776 188.828, 240.557 188.719, 235.121 190.002 M 260.250 193.674 C 257.492 195.598, 257.345 199.097, 259.924 201.431 C 261.759 203.092, 261.985 203.071, 264.823 200.973 L 267.799 198.773 265.800 195.386 C 263.544 191.563, 263.359 191.505, 260.250 193.674 M 102 194.911 C 102 196.429, 103.886 197.454, 111.194 199.905 C 120.070 202.882, 121.915 202.869, 121.985 199.832 C 121.999 199.222, 104.479 193, 102.748 193 C 102.336 193, 102 193.860, 102 194.911 M 54.079 203.894 C 41.534 257.328, 50.197 312.257, 78.327 357.651 C 127.914 437.667, 226.326 473.217, 314.521 442.973 C 407.153 411.208, 463.421 319.358, 449.456 222.711 C 447.947 212.271, 444.060 194.607, 443.413 195.254 C 443.199 195.468, 444.101 200.409, 445.417 206.234 C 446.733 212.059, 448.363 221.832, 449.039 227.950 C 450.729 243.253, 449.797 271.232, 447.121 285.524 C 429.191 381.289, 346.843 450, 250 450 C 153.133 450, 70.813 381.313, 52.879 285.524 C 50.203 271.232, 49.271 243.253, 50.961 227.950 C 51.637 221.832, 53.267 212.059, 54.583 206.234 C 55.899 200.409, 56.801 195.468, 56.587 195.254 C 56.373 195.040, 55.244 198.928, 54.079 203.894 M 266.514 201.743 C 263.256 204.367, 259.054 208.530, 257.175 210.993 L 253.759 215.471 256.130 216.136 C 257.433 216.501, 259.962 216.845, 261.750 216.900 C 267.473 217.076, 265.266 218.424, 254.246 221.485 C 241.098 225.136, 235.027 225.267, 229.256 222.024 C 226.928 220.715, 224.680 219.994, 224.261 220.422 C 222.871 221.843, 231.301 228.032, 236.809 229.633 C 243.735 231.646, 249.447 230.952, 266.456 226.030 C 277.983 222.694, 280.895 222.235, 291.499 222.079 C 298.098 221.982, 303.818 221.582, 304.211 221.189 C 304.603 220.797, 303.783 219.019, 302.389 217.238 C 299.881 214.033, 299.765 214, 291.178 213.985 C 282.907 213.970, 269.151 211.356, 265.192 209.047 C 263.925 208.309, 264.843 208.053, 268.842 208.030 C 272.704 208.008, 274.889 208.554, 276.727 210 C 280.435 212.916, 285.739 212.624, 289.195 209.313 C 290.738 207.835, 292 206.062, 292 205.372 C 292 202.933, 289.820 202.820, 287.359 205.132 L 284.866 207.474 283.127 205.169 C 281.868 203.500, 280.586 202.951, 278.479 203.182 C 276.041 203.449, 275.317 202.972, 274.003 200.236 L 272.436 196.971 266.514 201.743 M 235.200 202.200 C 232.874 204.526, 233.874 206, 237.777 206 C 241.503 206, 246 203.781, 246 201.943 C 246 200.565, 236.612 200.788, 235.200 202.200 M 210.809 204.250 C 210.115 205.488, 209.077 207.391, 208.504 208.480 C 207.930 209.570, 206.525 210.470, 205.382 210.480 C 203.001 210.503, 197.538 216.444, 198.487 217.980 C 200.158 220.683, 209.505 217.730, 214.227 213.008 C 217.863 209.372, 218.681 206.938, 217.393 203.582 C 216.481 201.205, 212.277 201.632, 210.809 204.250 M 396.079 207.006 C 392.374 210.282, 389.446 211.993, 386.829 212.411 C 382.875 213.044, 382.433 213.557, 383.877 215.835 C 384.535 216.874, 385.554 216.941, 388.462 216.138 C 391.598 215.272, 393.266 215.493, 398.814 217.506 C 402.451 218.826, 405.538 219.796, 405.674 219.660 C 405.810 219.524, 405.673 218.467, 405.371 217.311 C 404.991 215.857, 403.446 214.825, 400.351 213.958 L 395.881 212.707 399.331 209.103 C 401.607 206.725, 402.563 204.941, 402.140 203.857 C 401.615 202.508, 400.528 203.073, 396.079 207.006 M 99.730 205.750 C 97.711 207.986, 95.435 216.870, 96.615 217.910 C 97.507 218.697, 111.887 222, 114.421 222 C 116.067 222, 116.625 220.681, 117.528 214.660 C 118.161 210.438, 117.970 209.817, 115.186 207.032 C 112.555 204.402, 111.436 204, 106.732 204 C 102.837 204, 100.865 204.493, 99.730 205.750 M 101.557 210.223 C 99.307 213.434, 99.629 214.879, 102.750 215.578 C 104.263 215.917, 107.033 216.584, 108.906 217.060 C 113.273 218.169, 114 217.649, 114 213.416 C 114 210.616, 113.507 209.763, 111.435 208.975 C 107.079 207.319, 103.252 207.803, 101.557 210.223 M 275.473 225.044 C 274.692 226.307, 276.753 229, 278.500 229 C 280.644 229, 282.120 226.520, 280.776 225.176 C 279.319 223.719, 276.338 223.645, 275.473 225.044 M 97.819 226.536 C 94.923 228.108, 94.499 229.061, 93.537 236.154 L 92.906 240.808 96.703 241.355 C 98.791 241.655, 103.511 242.181, 107.192 242.524 L 113.884 243.147 114.192 238.323 C 114.630 231.469, 113.422 228.428, 109.529 226.581 C 105.428 224.635, 101.349 224.619, 97.819 226.536 M 293.196 228.298 C 290.004 231.591, 290 231.608, 290 242.347 C 290 250.029, 290.436 253.942, 291.526 256.050 C 293.003 258.906, 293.281 259, 300.276 258.986 C 309.666 258.969, 311.885 258.308, 312.638 255.307 C 313.551 251.670, 311.458 248.089, 307.439 246.410 C 304.049 244.994, 303.794 245.032, 302.012 247.212 C 298.638 251.340, 297.540 248.408, 297.809 235.986 C 297.940 229.944, 297.675 225, 297.220 225 C 296.765 225, 294.954 226.484, 293.196 228.298 M 304.485 227.024 C 303.050 229.347, 307.179 240.626, 309.043 239.474 C 310.542 238.547, 310.167 233.418, 308.315 229.534 C 306.579 225.895, 305.585 225.244, 304.485 227.024 M 98.744 230.730 C 97.785 231.790, 97 233.860, 97 235.329 C 97 237.927, 97.164 238, 103 238 C 106.300 238, 109.338 238.113, 109.750 238.250 C 110.162 238.387, 110.635 237.112, 110.801 235.415 C 111.168 231.655, 109.398 229.997, 104.284 229.311 C 101.370 228.920, 100.084 229.250, 98.744 230.730 M 220.472 232.031 C 218.742 233.942, 218.734 234.162, 220.333 235.762 C 221.768 237.197, 222.353 237.261, 224.095 236.173 C 225.708 235.165, 226.472 235.147, 227.608 236.090 C 228.703 236.999, 229.665 237.018, 231.530 236.168 C 232.888 235.549, 234 234.638, 234 234.144 C 234 232.205, 231.006 230.840, 228.136 231.470 C 226.433 231.844, 224.914 231.671, 224.536 231.059 C 223.575 229.504, 222.533 229.753, 220.472 232.031 M 259.619 233.433 C 257.408 236.331, 257 237.890, 257 243.433 C 257 250.051, 256.287 251.255, 254 248.500 C 253.315 247.675, 252.190 247, 251.500 247 C 250.810 247, 249.685 247.675, 249 248.500 C 247.378 250.455, 244.334 250.419, 243.222 248.432 C 242.443 247.040, 241.949 247.098, 238.821 248.943 L 235.298 251.022 232.677 248.961 C 229.555 246.505, 228.283 247.002, 222.547 252.921 C 217.724 257.898, 215.075 258.097, 211.520 253.750 C 210.057 251.963, 208.230 249.722, 207.458 248.771 C 205.361 246.186, 203.183 247.668, 202.266 252.304 C 200.893 259.250, 201.802 263.035, 205.120 264.192 C 206.704 264.744, 208 265.613, 208 266.123 C 208 267.719, 202.745 269.135, 197.795 268.872 C 191.887 268.558, 191.033 269.342, 193.928 272.424 C 199.685 278.551, 205.223 277.786, 210.343 270.156 C 213.504 265.446, 214.732 265.225, 221.758 268.108 C 224.864 269.382, 225.162 269.300, 228.110 266.351 L 231.204 263.257 227.602 260.510 C 223.766 257.584, 223.051 255.578, 225.509 254.635 C 226.394 254.295, 227.527 254.872, 228.250 256.028 C 229.711 258.369, 234.211 258.656, 235.983 256.521 C 236.874 255.447, 237.710 255.310, 239.039 256.021 C 241.548 257.364, 244.750 257.251, 245.233 255.802 C 245.539 254.884, 246.356 254.905, 248.742 255.893 C 252.663 257.517, 255.211 256.707, 260.111 252.281 L 264 248.767 264 239.384 C 264 234.223, 263.603 230, 263.119 230 C 262.634 230, 261.059 231.545, 259.619 233.433 M 269.687 232.805 C 267.096 235.510, 267 236.011, 267 246.888 C 267 258.977, 267.513 259.869, 271.439 254.617 C 273.163 252.311, 273.555 250.075, 273.838 240.930 C 274.027 234.857, 273.776 230, 273.276 230 C 272.780 230, 271.165 231.262, 269.687 232.805 M 278.200 231.200 C 277.540 231.860, 277 234.304, 277 236.630 C 277 240.256, 277.322 240.907, 279.250 241.180 C 280.916 241.417, 281.385 242.019, 281.058 243.500 C 280.617 245.498, 280.652 247.891, 281.206 253.454 C 281.701 258.428, 279.211 258.969, 255.750 258.985 C 243.332 258.994, 235 259.381, 235 259.949 C 235 260.471, 236.463 262.269, 238.250 263.945 L 241.500 266.991 258.272 266.995 L 275.045 267 279.327 263.053 C 281.682 260.882, 284.693 256.790, 286.019 253.960 C 288.347 248.988, 288.371 248.712, 286.715 245.826 C 285.772 244.182, 285 240.950, 285 238.641 C 285 232.140, 281.304 228.096, 278.200 231.200 M 393.750 233.796 C 387.770 234.058, 387 234.319, 387 236.087 C 387 237.955, 387.464 238.043, 394.249 237.460 C 402.765 236.727, 402.659 237.409, 393.873 239.880 C 388.928 241.271, 387.431 242.134, 387.194 243.735 C 386.923 245.559, 387.707 245.945, 393.949 247.060 C 401.395 248.391, 402.307 249.427, 396.171 249.587 C 388.030 249.798, 387 250.013, 387 251.500 C 387 252.739, 388.840 253, 397.563 253 L 408.127 253 407.813 249.768 C 407.523 246.770, 407.135 246.455, 402.468 245.424 C 394.288 243.616, 394.198 243.366, 401 241.333 C 407.089 239.513, 407.500 239.204, 407.500 236.445 C 407.500 233.156, 407.660 233.186, 393.750 233.796 M 190.750 237.572 C 186.637 241.470, 186.409 242.693, 187.971 252.500 C 188.496 255.800, 189.031 260.413, 189.158 262.750 C 189.286 265.087, 189.744 267, 190.175 267 C 190.606 267, 191.820 265.313, 192.871 263.250 C 194.381 260.288, 194.858 256.822, 195.141 246.750 C 195.339 239.737, 195.275 234.004, 195 234.008 C 194.725 234.013, 192.813 235.617, 190.750 237.572 M 242.500 236 C 240.803 237.875, 239.420 238, 220.345 238 C 209.155 238, 200 238.268, 200 238.596 C 200 240.387, 203.771 245.155, 205.538 245.599 C 206.671 245.883, 217.091 245.977, 228.696 245.808 C 247.788 245.529, 249.995 245.319, 251.897 243.595 C 254.895 240.879, 254.502 238.277, 250.750 235.989 C 246.642 233.484, 244.774 233.487, 242.500 236 M 96.250 248.723 C 93.835 249.023, 93 249.627, 93 251.073 C 93 252.888, 93.524 252.977, 100.781 252.393 C 107.160 251.881, 108.797 252.051, 109.864 253.336 C 111.447 255.244, 111.034 257.997, 109 259.096 C 108.175 259.542, 104.463 260.189, 100.750 260.533 C 94.868 261.079, 94 261.417, 94 263.165 C 94 265.059, 94.431 265.132, 101.750 264.483 C 110.376 263.717, 113.945 262.054, 114.111 258.727 C 114.608 248.716, 111.290 246.857, 96.250 248.723 M 387.528 260.969 C 385.286 263.446, 384.985 270.413, 387.030 272.459 C 388.618 274.047, 403.331 276.532, 405.008 275.495 C 405.553 275.158, 406 274.278, 406 273.539 C 406 272.636, 403.955 271.960, 399.750 271.474 C 390.548 270.412, 388.804 269.549, 389.184 266.250 L 389.500 263.500 398.250 263.705 C 406.128 263.890, 407 263.729, 407 262.086 C 407 260.021, 402.939 259.029, 394.405 259.011 C 390.597 259.003, 388.860 259.497, 387.528 260.969 M 300.989 263.250 C 298.190 267.840, 298.380 271.760, 301.469 273.168 C 302.826 273.786, 303.700 274.677, 303.410 275.146 C 302.553 276.532, 297.140 276.124, 293.857 274.426 C 292.184 273.561, 290.570 273.096, 290.272 273.394 C 289.131 274.535, 292.442 280.236, 295.681 282.706 C 299.912 285.933, 302.843 284.957, 305.456 279.452 C 308.202 273.665, 309.683 263.528, 308.067 261.581 C 305.971 259.056, 303.139 259.724, 300.989 263.250 M 289.630 263.250 C 288.691 266.754, 288.893 269.816, 290.112 270.569 C 291.727 271.567, 292.967 269.056, 292.985 264.750 C 293.002 260.519, 290.645 259.465, 289.630 263.250 M 281.962 268.696 L 278.722 272.386 279.290 283.927 C 279.806 294.398, 280.071 295.639, 282.156 297.328 C 283.819 298.674, 285.407 299.033, 287.908 298.628 C 292.723 297.846, 294.485 295.737, 294.359 290.908 C 294.223 285.711, 292.710 284.047, 290.192 286.326 C 289.172 287.249, 288.037 287.703, 287.669 287.336 C 287.301 286.968, 287 282.043, 287 276.392 C 287 270.741, 286.595 265.868, 286.101 265.562 C 285.606 265.257, 283.744 266.667, 281.962 268.696 M 104.836 272.026 C 93.157 279.997, 93.435 281.122, 107.659 283.456 C 113.432 284.404, 118.400 284.933, 118.701 284.632 C 119.829 283.504, 118.036 281.143, 115.811 280.828 C 114.065 280.580, 113.268 279.560, 112.550 276.655 C 111.706 273.238, 111.851 272.621, 113.849 271.114 C 115.335 269.993, 115.875 268.838, 115.442 267.709 C 115.081 266.769, 114.497 266.025, 114.143 266.057 C 113.789 266.088, 109.601 268.774, 104.836 272.026 M 228.569 270.928 C 225.786 273.833, 225.746 273.841, 223.693 271.928 C 221.436 269.826, 220.947 269.700, 218.582 270.607 C 216.437 271.430, 216.592 273.321, 218.981 275.483 C 220.603 276.950, 221.238 277.047, 222.481 276.016 C 223.714 274.992, 223.997 275.013, 223.985 276.128 C 223.976 276.882, 223.583 278.109, 223.112 278.853 C 221.981 280.638, 218.649 278.921, 216.306 275.345 L 214.613 272.760 212.806 274.991 C 211.813 276.218, 211 278.197, 211 279.388 C 211 282.008, 208.366 286, 206.638 286 C 205.951 286, 203.864 284.875, 202 283.500 C 200.136 282.125, 198.249 281, 197.806 281 C 195.633 281, 197.492 285.145, 201.778 289.856 C 207.228 295.846, 208.888 295.900, 211.557 290.173 C 213.811 285.336, 213.691 285.410, 215.961 287.464 C 221.196 292.202, 229.609 286.868, 232.943 276.697 C 234.169 272.959, 233.727 268, 232.168 268 C 231.731 268, 230.112 269.318, 228.569 270.928 M 271.713 268.621 C 271.321 269.013, 271 270.375, 271 271.648 C 271 273.308, 271.737 274.147, 273.607 274.616 C 276.542 275.353, 278.170 273.738, 277.756 270.500 C 277.497 268.479, 273.193 267.141, 271.713 268.621 M 262.250 272.234 L 259 275.595 259 288.239 C 259 301.774, 259.838 304.139, 263.131 299.894 C 266.417 295.657, 267.223 290.464, 266.331 279.280 L 265.500 268.872 262.250 272.234 M 251.687 272.805 C 249.136 275.468, 249 276.117, 249 285.644 C 249 295.339, 248.916 295.717, 246.536 296.802 C 243.388 298.236, 242.360 296.751, 244.442 293.779 C 245.403 292.408, 246 289.406, 246 285.949 C 246 281.344, 245.442 279.501, 242.878 275.629 C 241.160 273.036, 239.303 271.066, 238.749 271.250 C 238.196 271.435, 236.816 273.185, 235.683 275.139 L 233.622 278.693 237.811 283.661 C 240.115 286.393, 242 289.215, 242 289.932 C 242 292.311, 235.725 298.488, 232.789 299 C 226.331 300.126, 232.654 303.787, 241.293 303.924 C 245.660 303.993, 246.526 303.588, 251.043 299.363 L 256 294.726 256 282.363 C 256 275.563, 255.634 270, 255.187 270 C 254.740 270, 253.165 271.262, 251.687 272.805 M 104.662 276.618 C 101.374 278.400, 101.417 278.507, 105.750 279.331 C 108.708 279.894, 109 279.728, 109 277.475 C 109 274.615, 108.529 274.522, 104.662 276.618 M 268.894 278.750 C 267.090 283.449, 268.603 288.783, 272.151 290.234 C 272.509 290.380, 272.959 293.200, 273.151 296.500 L 273.500 302.500 268 303.654 C 264.975 304.288, 253.838 304.851, 243.250 304.904 C 230.461 304.968, 224 305.355, 224 306.056 C 224 309.254, 242.152 313.956, 254.601 313.983 C 266.677 314.009, 272.242 311.544, 276.745 304.174 C 279.344 299.920, 279.617 296.198, 277.532 293.441 C 276.699 292.340, 276.050 289.288, 276.032 286.385 C 276.009 282.760, 275.396 280.502, 273.927 278.635 C 271.297 275.290, 270.213 275.315, 268.894 278.750 M 381.664 283.985 C 379.623 291.325, 379.610 292, 381.504 292 C 382.441 292, 383.461 290.305, 384.211 287.500 C 384.873 285.025, 385.894 283, 386.479 283 C 387.064 283, 390.668 283.867, 394.488 284.926 C 398.307 285.985, 401.785 286.633, 402.216 286.367 C 404.288 285.086, 402.630 282.980, 398.750 281.968 C 396.413 281.357, 392.281 280.215, 389.568 279.429 C 386.856 278.643, 384.342 278, 383.982 278 C 383.622 278, 382.579 280.693, 381.664 283.985 M 230.364 287.489 C 228.789 288.151, 226.857 289.467, 226.072 290.413 C 223.632 293.353, 219.085 295.178, 215.927 294.484 C 213.317 293.911, 213 294.104, 213 296.275 C 213 299.207, 217.184 304, 219.744 304 C 220.756 304, 223.571 301.975, 226 299.500 C 228.918 296.527, 231.279 294.995, 232.958 294.985 C 234.356 294.976, 236.056 294.616, 236.735 294.185 C 238.225 293.239, 239.612 287.053, 238.375 286.872 C 234.532 286.312, 232.857 286.441, 230.364 287.489 M 109.232 291.351 C 103.418 293.565, 101.052 294.945, 101.263 296 C 101.567 297.522, 103.823 297.708, 107.559 296.521 C 109.144 296.017, 109.892 296.469, 110.809 298.480 C 112.237 301.615, 112.348 304, 111.065 304 C 110.551 304, 108.958 304.446, 107.525 304.991 C 105.360 305.814, 105.091 306.301, 105.934 307.876 C 106.904 309.689, 107.360 309.613, 116.471 306.135 C 121.709 304.136, 125.989 302.275, 125.982 302 C 125.975 301.725, 125.571 300.871, 125.084 300.102 C 124.333 298.915, 123.579 298.951, 120.108 300.340 L 116.017 301.977 114.509 298.366 C 113.679 296.381, 113 294.658, 113 294.538 C 113 294.418, 114.818 293.720, 117.040 292.987 C 119.769 292.086, 120.982 291.145, 120.778 290.088 C 120.318 287.697, 118.227 287.925, 109.232 291.351 M 376.583 298.643 C 375.810 300.658, 375.023 300.162, 384.299 303.499 C 390.505 305.731, 391.963 306.630, 391.438 307.902 C 390.288 310.687, 390.455 312.500, 391.863 312.500 C 393.764 312.500, 399.161 298.742, 397.641 297.769 C 396.573 297.084, 394.514 298.958, 393.721 301.337 C 393.504 301.989, 390.477 301.364, 385.778 299.695 C 376.813 296.513, 377.376 296.577, 376.583 298.643 M 119.755 313.092 C 113.930 320.050, 113.157 321.425, 114.091 323.170 C 114.941 324.759, 115.847 325.075, 118.336 324.648 C 120.076 324.350, 124.200 323.820, 127.500 323.471 C 136.107 322.560, 137.346 322.122, 135.979 320.475 C 135.360 319.729, 133.671 318.980, 132.226 318.809 C 130.492 318.605, 128.946 317.379, 127.682 315.208 C 125.902 312.149, 125.883 311.787, 127.407 310.102 C 128.900 308.453, 128.719 304.975, 127.143 305.018 C 126.789 305.027, 123.465 308.661, 119.755 313.092 M 372.984 306.519 C 371.956 307.758, 372.033 308.379, 373.405 309.895 C 374.980 311.636, 374.975 311.984, 373.319 315.456 C 371.813 318.616, 371.174 319.085, 368.976 318.645 C 367.149 318.280, 366.056 318.680, 365.218 320.023 C 363.876 322.171, 364.313 322.303, 378 323.882 C 385.309 324.726, 388 324.156, 388 321.765 C 388 320.936, 375.135 305, 374.466 305 C 374.344 305, 373.678 305.683, 372.984 306.519 M 121.054 317.443 C 118.181 320.501, 118.621 321.226, 122.840 320.382 C 126.342 319.682, 126.590 319.189, 124.724 316.638 C 123.536 315.012, 123.285 315.067, 121.054 317.443 M 376.241 316.986 C 374.539 319.711, 374.551 319.729, 378.500 320.190 C 382.497 320.656, 382.653 320.362, 380.056 317.250 C 377.776 314.517, 377.783 314.517, 376.241 316.986 M 361.081 325.402 C 360.166 326.505, 360.948 327.526, 364.968 330.476 C 367.736 332.508, 370 334.292, 370 334.440 C 370 334.589, 366.332 334.663, 361.849 334.605 C 356.343 334.534, 353.563 334.888, 353.284 335.695 C 352.721 337.319, 367.736 348.315, 369.560 347.615 C 371.913 346.712, 371.250 345.518, 366.500 342.107 C 364.025 340.330, 362 338.640, 362 338.353 C 362 338.065, 365.283 338.137, 369.296 338.513 C 375.232 339.069, 376.830 338.910, 377.868 337.659 C 378.961 336.342, 378.094 335.349, 371.822 330.742 C 362.274 323.728, 362.413 323.797, 361.081 325.402 M 134.893 326.362 C 133.577 327.015, 132.368 328.464, 132.206 329.581 C 132.018 330.882, 130.760 331.951, 128.706 332.556 C 123.955 333.955, 123.879 337.705, 128.475 343.966 L 132.087 348.887 140.487 342.779 L 148.887 336.671 145.193 331.916 C 140.662 326.083, 138.165 324.736, 134.893 326.362 M 135.393 331.419 C 134.727 333.153, 137.747 338, 139.493 338 C 140.187 338, 141.297 337.347, 141.960 336.548 C 142.919 335.393, 142.790 334.580, 141.333 332.579 C 139.313 329.806, 136.242 329.206, 135.393 331.419 M 225.750 334.484 C 223.004 336.901, 222.163 339, 223.941 339 C 224.459 339, 225.160 338.550, 225.500 338 C 227.041 335.507, 227.904 337.489, 227.680 343 C 227.469 348.180, 227.679 349, 229.218 349 C 230.788 349, 231 347.987, 231 340.500 C 231 331.091, 230.394 330.396, 225.750 334.484 M 237.200 333.200 C 235.625 334.775, 235.658 340.472, 237.250 341.789 C 237.938 342.358, 239.761 342.975, 241.303 343.162 C 243.851 343.469, 243.981 343.671, 242.730 345.369 C 241.533 346.994, 241.075 347.064, 239.222 345.907 C 238.050 345.175, 236.781 344.885, 236.403 345.264 C 235.135 346.532, 238.215 349, 241.066 349 C 244.731 349, 247 345.750, 247 340.500 C 247 335.299, 244.727 332, 241.143 332 C 239.634 332, 237.860 332.540, 237.200 333.200 M 249 333.500 C 249 334.548, 250.056 335, 252.500 335 C 254.425 335, 256 335.176, 256 335.391 C 256 335.606, 255.110 337.743, 254.022 340.141 C 251.705 345.247, 251.430 349, 253.372 349 C 254.190 349, 254.992 347.449, 255.358 345.160 C 255.696 343.048, 257.104 339.653, 258.486 337.615 C 259.869 335.578, 261 333.481, 261 332.956 C 261 332.430, 258.300 332, 255 332 C 250.333 332, 249 332.333, 249 333.500 M 264.459 334.750 C 263.049 341.444, 262.907 341.086, 266.835 340.783 C 270.282 340.517, 270.500 340.674, 270.500 343.417 C 270.500 346.898, 268.866 347.723, 266.552 345.409 C 265.336 344.193, 264.569 344.031, 263.778 344.822 C 262.045 346.555, 264.763 349, 268.422 349 C 272.424 349, 274 347.446, 274 343.500 C 274 339.787, 272.445 338, 269.217 338 C 265.663 338, 267.060 335.559, 270.827 335.187 C 276.013 334.675, 274.915 332, 269.519 332 C 265.438 332, 264.986 332.245, 264.459 334.750 M 129.084 336.399 C 128.171 337.499, 128.453 338.409, 130.398 340.649 C 132.748 343.355, 132.964 343.412, 134.631 341.771 C 136.305 340.122, 136.276 339.923, 134.019 337.521 C 131.291 334.617, 130.679 334.477, 129.084 336.399 M 239.184 337.750 C 239.372 339.387, 240.107 340.500, 241 340.500 C 241.893 340.500, 242.628 339.387, 242.816 337.750 C 243.074 335.511, 242.737 335, 241 335 C 239.263 335, 238.926 335.511, 239.184 337.750 M 347.413 351.269 C 347.838 354.100, 347.699 356.068, 347.048 356.470 C 346.472 356.827, 346 358.681, 346 360.590 C 346 366.400, 343.479 366.121, 337.232 359.620 C 334.217 356.483, 331.552 354.114, 331.310 354.357 C 331.068 354.599, 333.620 357.993, 336.982 361.899 C 344.954 371.162, 348.501 371.424, 348.160 362.724 C 348.026 359.297, 348.259 358.834, 349.901 359.264 C 351.681 359.729, 351.711 359.554, 350.399 356.412 C 349.629 354.571, 349 351.951, 349 350.591 C 349 349.231, 348.489 347.802, 347.865 347.417 C 347.046 346.911, 346.920 347.984, 347.413 351.269 M 144.757 350.519 C 140.566 353.367, 139 355.759, 139 359.312 C 139 362.169, 140.634 363.748, 144.836 364.953 C 149.398 366.261, 155.393 364.286, 160.496 359.794 C 162.973 357.614, 165 356.263, 165 356.793 C 165 357.322, 164.299 358.337, 163.442 359.048 C 160.643 361.371, 156.930 368.655, 157.624 370.462 C 158.235 372.054, 160.101 372.208, 164.500 371.031 C 165.050 370.884, 166.738 370.816, 168.250 370.882 C 170.309 370.970, 171 371.511, 171 373.031 C 171 375.586, 173.214 376.491, 175.922 375.042 C 178.682 373.565, 178.747 370.628, 176 371.500 C 172.972 372.461, 173.482 369.834, 177.294 364.827 C 181.907 358.767, 182.747 357.148, 180.055 359.500 C 178.797 360.600, 176.448 363.413, 174.836 365.750 C 172.133 369.668, 169.364 371.031, 167.629 369.296 C 167.242 368.908, 165.704 368.571, 164.212 368.546 C 160.085 368.476, 160.347 365.309, 164.982 359.230 C 169.309 353.555, 170.144 351.654, 167.104 354.406 C 165.755 355.627, 165.090 355.771, 164.802 354.906 C 164.564 354.191, 162.419 355.611, 159.606 358.345 C 155.771 362.073, 154.124 363, 151.342 363 C 147.177 363, 144.427 361.667, 142.968 358.939 C 141.407 356.023, 142.633 353.322, 146.803 350.488 C 148.817 349.119, 150.014 348, 149.464 348 C 148.914 348, 146.796 349.134, 144.757 350.519 M 150 354.531 C 150 356.260, 152.387 357.497, 153.908 356.557 C 155.472 355.590, 154.004 353, 151.893 353 C 150.852 353, 150 353.689, 150 354.531 M 170.213 355.750 C 170.411 356.712, 171.289 357.380, 172.165 357.234 C 173.064 357.084, 173.989 357.848, 174.287 358.988 C 174.647 360.368, 175.335 360.809, 176.457 360.378 C 178.312 359.666, 178.044 356.359, 176.163 356.759 C 175.493 356.902, 174.684 356.339, 174.365 355.509 C 173.524 353.317, 169.758 353.535, 170.213 355.750 M 356 361 C 356 363.274, 358.508 363.725, 359.324 361.598 C 359.952 359.962, 359.214 359, 357.333 359 C 356.600 359, 356 359.900, 356 361 M 317.537 362.250 C 317.907 363.488, 319.287 366.469, 320.605 368.876 C 323.494 374.154, 323.628 376.593, 321.105 377.944 C 319.139 378.996, 317.880 378.153, 316.713 375 C 316.408 374.175, 316.121 375.300, 316.075 377.500 C 316.030 379.700, 315.094 382.973, 313.996 384.774 C 311.408 389.019, 311.479 389.388, 314.500 387.408 C 316.010 386.419, 317 384.825, 317 383.385 C 317 380.781, 317.956 380.356, 319.758 382.158 C 321.378 383.778, 323.687 381.701, 324.530 377.864 C 325.035 375.565, 324.343 373.131, 321.564 367.433 C 317.999 360.122, 316.216 357.827, 317.537 362.250 M 322.382 363.385 C 323.211 366.688, 330 376.594, 330 374.501 C 330 372.857, 323.193 361, 322.249 361 C 321.993 361, 322.053 362.073, 322.382 363.385 M 351.150 365.628 C 350.980 369.180, 353.414 371.986, 355.155 370.245 C 356.541 368.859, 355.353 366.927, 353.542 367.622 C 352.600 367.984, 352.011 367.241, 351.724 365.329 L 351.300 362.500 351.150 365.628 M 206.723 367.103 C 205.225 368.809, 204 370.384, 204 370.603 C 204 371.274, 209.625 371.042, 210.325 370.342 C 210.687 369.980, 210.486 369.086, 209.879 368.355 C 209.273 367.624, 209.037 366.345, 209.357 365.513 C 210.181 363.366, 209.801 363.595, 206.723 367.103 M 333.667 365.667 C 332.610 366.723, 332.889 370.361, 334.250 373.293 C 335.904 376.855, 337 376.712, 337 372.934 C 337 371.248, 337.466 368.998, 338.035 367.934 C 339.326 365.523, 338.168 365.388, 336.442 367.748 C 335.739 368.710, 334.838 369.171, 334.439 368.773 C 334.041 368.374, 334.284 367.362, 334.980 366.524 C 336.196 365.059, 335.034 364.300, 333.667 365.667 M 281.482 368.630 C 275.673 372.467, 275 373.707, 275 380.569 C 275 384.976, 274.547 387.131, 273.427 388.061 C 272.562 388.779, 270.968 391.102, 269.886 393.223 C 268.804 395.344, 266.812 397.584, 265.459 398.201 C 262.379 399.604, 262.213 401.376, 265.250 400.445 C 268.261 399.522, 270 398.045, 270 396.412 C 270 395.674, 271.460 393.406, 273.245 391.374 C 276.304 387.890, 276.475 387.291, 276.216 380.942 L 275.942 374.207 280.971 371.113 C 283.737 369.411, 286 367.564, 286 367.009 C 286 365.644, 286.008 365.641, 281.482 368.630 M 306.238 371.990 C 305.548 373.096, 304.264 374, 303.385 374 C 302.259 374, 301.996 374.517, 302.495 375.750 C 304.744 381.299, 305.149 383.393, 304.569 386.482 C 303.462 392.384, 296.084 396.217, 292.995 392.494 C 292.307 391.665, 291.361 389.528, 290.892 387.744 C 290.114 384.782, 290.073 384.872, 290.430 388.788 C 291.025 395.331, 293.326 398.181, 297.711 397.807 C 303.381 397.322, 305.491 393.647, 305.538 384.173 C 305.559 379.890, 306.140 375.481, 306.853 374.195 C 308.472 371.270, 307.922 369.294, 306.238 371.990 M 189.037 377.611 C 183.941 383.415, 182.661 388.518, 185.571 391.429 C 190.819 396.676, 205.645 387.208, 201.806 381.061 C 199.972 378.124, 201.335 377.552, 209.445 377.854 C 213.695 378.012, 217.070 377.695, 217.436 377.104 C 217.833 376.461, 216.753 376.183, 214.535 376.357 C 212.591 376.510, 211 376.380, 211 376.068 C 211 375.756, 209.199 375.535, 206.997 375.578 C 200.690 375.701, 195.812 381.412, 199.158 384.758 C 202.045 387.645, 194.694 390.944, 189.846 388.936 C 186.024 387.353, 186.080 383.570, 190.006 378.150 C 193.708 373.039, 193.266 372.794, 189.037 377.611 M 182.223 376.557 C 179.551 378.428, 179.230 381.305, 181.750 380.787 C 182.757 380.580, 183.375 379.700, 183.206 378.714 C 183.008 377.559, 183.578 377, 184.956 377 C 186.080 377, 187 376.550, 187 376 C 187 374.523, 184.753 374.785, 182.223 376.557 M 228.336 378.567 C 227.426 380.939, 229.559 382.611, 231.470 381.025 C 232.654 380.042, 232.754 379.409, 231.890 378.367 C 230.392 376.563, 229.077 376.637, 228.336 378.567 M 279.176 379.224 C 277.620 380.780, 277.692 381.668, 279.427 382.334 C 281.540 383.144, 283.380 380.560, 281.689 379.156 C 280.706 378.341, 280.041 378.359, 279.176 379.224 M 252.910 382.500 C 252.146 385.751, 253.999 397.301, 255.707 399.933 L 257.286 402.366 259.143 400.072 C 261.523 397.133, 261.751 394.132, 259.450 396.042 C 256.935 398.129, 255.255 395.362, 254.263 387.500 C 253.778 383.650, 253.169 381.400, 252.910 382.500 M 245.096 384.250 C 244.626 385.488, 244.075 387.363, 243.871 388.417 C 243.413 390.783, 241 391.764, 241 389.583 C 241 387.098, 238.443 387.732, 237.167 390.534 C 236.224 392.603, 236.286 393.173, 237.506 393.641 C 240.116 394.642, 239.124 396.678, 235.250 398.267 L 231.500 399.806 234.662 399.903 C 237.432 399.988, 238.310 399.287, 241.742 394.250 C 243.897 391.087, 245.950 387.038, 246.305 385.250 C 247.047 381.513, 246.353 380.939, 245.096 384.250 M 295.561 383.701 C 295.249 384.515, 295.247 385.590, 295.556 386.090 C 296.534 387.673, 298.747 387.075, 299.267 385.086 C 299.880 382.742, 296.425 381.450, 295.561 383.701 M 210.221 386.915 C 209.046 388.505, 206.153 390.506, 203.792 391.363 L 199.500 392.921 203.399 392.710 C 206.573 392.539, 207.859 391.804, 210.320 388.755 C 211.982 386.695, 213.121 384.788, 212.850 384.517 C 212.579 384.246, 211.396 385.325, 210.221 386.915 M 216.577 387.194 C 215.193 389.169, 215.196 389.559, 216.603 391.114 C 218.030 392.690, 217.990 392.935, 216.149 393.920 C 215.039 394.514, 213.089 395.036, 211.816 395.079 C 209.741 395.150, 209.806 395.269, 212.445 396.227 C 215.100 397.192, 215.640 397.008, 217.945 394.356 C 221.122 390.700, 225.327 388, 227.842 388 C 228.894 388, 230.280 387.368, 230.921 386.596 C 231.899 385.417, 231.552 385.312, 228.770 385.939 C 226.945 386.351, 224.481 387.207, 223.294 387.843 C 221.451 388.829, 221.041 388.705, 220.500 386.999 C 219.678 384.410, 218.485 384.469, 216.577 387.194 M 282.639 388.687 C 282.203 390.990, 280.730 394.078, 279.367 395.549 C 276.455 398.691, 276.643 399.362, 279.971 397.700 C 282.575 396.400, 284.334 391.515, 283.773 387.144 C 283.492 384.959, 283.295 385.227, 282.639 388.687 M 311.333 393.574 C 311.008 394.422, 310.108 394.872, 309.333 394.574 C 307.631 393.921, 306.338 396.738, 307.710 398.110 C 308.343 398.743, 309.133 398.544, 309.965 397.542 C 310.669 396.694, 312.090 396, 313.122 396 C 315.378 396, 315.634 393.457, 313.462 392.624 C 312.573 392.283, 311.675 392.684, 311.333 393.574 M 220.057 394.431 C 218.525 396.278, 219.594 398.195, 221.935 397.798 C 222.902 397.634, 224.377 398.068, 225.214 398.762 C 226.450 399.788, 226.963 399.750, 227.953 398.556 C 229.469 396.730, 228.334 394.658, 226.254 395.456 C 225.405 395.782, 223.940 395.351, 222.999 394.499 C 221.489 393.133, 221.141 393.125, 220.057 394.431 M 235.224 403.176 C 233.713 404.687, 235.533 407.117, 237.586 406.329 C 238.378 406.025, 239.635 406.282, 240.380 406.900 C 241.402 407.748, 242.034 407.664, 242.953 406.556 C 244.543 404.641, 243.339 402.758, 241 403.500 C 239.993 403.820, 238.879 403.613, 238.525 403.041 C 237.686 401.683, 236.676 401.724, 235.224 403.176 M 255.468 404.866 C 253.857 406.476, 255.330 407.875, 258.350 407.604 C 262.201 407.258, 264.261 406.232, 263.518 405.030 C 262.988 404.171, 256.298 404.035, 255.468 404.866" stroke="none" fill="#29156d" fill-rule="evenodd"/><path d="M 224.623 51.136 C 177.065 57.242, 131.223 81.577, 99.841 117.376 C 72.941 148.062, 55.527 187.428, 50.929 227.944 C 49.264 242.618, 50.239 271.464, 52.876 285.524 C 70.845 381.342, 153.131 450, 250 450 C 346.845 450, 429.160 381.318, 447.124 285.524 C 449.761 271.464, 450.736 242.618, 449.071 227.944 C 442.770 172.419, 413.583 121.808, 368.735 88.642 C 341.581 68.560, 308.087 55.265, 274.026 51.049 C 264.077 49.817, 234.488 49.869, 224.623 51.136 M 237.675 91.860 C 236.671 92.255, 235.074 94.337, 234.126 96.486 L 232.402 100.394 229.582 96.697 C 226.986 93.293, 224.257 92.076, 222.703 93.630 C 222.356 93.977, 224.081 96.557, 226.536 99.363 C 228.991 102.169, 231.006 105.373, 231.014 106.483 C 231.043 110.758, 232.115 112.783, 234.080 112.269 C 235.687 111.849, 235.890 111.162, 235.369 107.907 C 234.769 104.151, 235.318 102.338, 239.661 93.750 C 241.095 90.913, 240.798 90.629, 237.675 91.860 M 245.557 99.750 C 243.500 104.563, 241.585 109.063, 241.301 109.750 C 240.981 110.527, 241.618 111, 242.987 111 C 244.346 111, 245.387 110.236, 245.710 109 C 246.141 107.353, 247.074 107, 251 107 C 254.926 107, 255.859 107.353, 256.290 109 C 256.603 110.197, 257.654 111, 258.906 111 C 260.058 111, 261 110.813, 261 110.585 C 261 109.511, 254.596 93.350, 253.734 92.250 C 251.312 89.158, 249.293 91.010, 245.557 99.750 M 276.511 94.250 C 274.218 100.974, 273.098 108.128, 273.976 110.436 C 275.650 114.839, 284.199 116.648, 287.273 113.250 C 288.143 112.287, 289.766 108.215, 290.878 104.200 C 292.568 98.100, 292.670 96.811, 291.498 96.361 C 289.158 95.463, 288.342 96.674, 286.989 103.054 C 285.799 108.661, 283.981 112, 282.120 112 C 281.714 112, 280.522 111.371, 279.470 110.602 C 277.685 109.296, 277.639 108.728, 278.789 102.023 C 279.467 98.074, 279.764 94.428, 279.451 93.921 C 278.637 92.603, 277.011 92.785, 276.511 94.250 M 214.346 97.215 C 214.665 98.433, 215.682 102.933, 216.607 107.215 C 217.723 112.377, 218.757 115, 219.676 115 C 221.934 115, 222.208 112.607, 220.664 106.374 C 219.864 103.143, 218.928 99.263, 218.585 97.750 C 218.148 95.822, 217.335 95, 215.864 95 C 214.191 95, 213.884 95.448, 214.346 97.215 M 249.306 100 C 248.209 102.906, 248.265 103, 251.087 103 C 254.403 103, 254.408 102.990, 252.839 99.547 C 251.339 96.254, 250.689 96.337, 249.306 100 M 198.500 99.654 C 195.750 100.487, 193.154 101.500, 192.730 101.904 C 191.937 102.662, 197.892 121.012, 198.923 120.985 C 199.240 120.976, 200.134 120.568, 200.910 120.077 C 202.079 119.337, 202.105 118.667, 201.063 116.153 C 198.727 110.513, 201.095 109.626, 207.320 113.810 C 211.199 116.418, 215 117.004, 215 114.995 C 215 113.922, 209.578 110, 208.096 110 C 206.534 110, 206.742 108.459, 208.500 107 C 210.581 105.273, 210.373 102.373, 208 100 C 205.665 97.665, 205.129 97.646, 198.500 99.654 M 299.083 101.250 C 298.606 102.487, 296.976 106.583, 295.461 110.350 C 293.236 115.886, 292.966 117.361, 294.056 118.034 C 296.003 119.238, 296.587 118.590, 298.596 113.004 C 299.585 110.252, 300.698 108, 301.069 108 C 301.439 108, 302.043 110.268, 302.411 113.039 C 304.092 125.714, 306.780 126.012, 311.597 114.057 C 315.585 104.164, 315.607 104, 313 104 C 311.900 104, 311 104.413, 311 104.917 C 311 105.421, 310.028 108.009, 308.840 110.667 L 306.680 115.500 305.356 108.622 C 303.579 99.390, 300.978 96.334, 299.083 101.250 M 199.250 103.012 C 196.699 104.059, 196.600 104.384, 198.021 107.039 C 198.997 108.863, 199.198 108.873, 202.556 107.272 C 208.389 104.490, 205.312 100.525, 199.250 103.012 M 177.113 108.910 C 176.004 109.611, 175.871 111.646, 176.449 119.037 C 177.333 130.340, 177.631 131.268, 179.968 130.017 C 181.127 129.397, 181.584 128.274, 181.294 126.756 C 180.935 124.881, 181.554 124.106, 184.549 122.678 C 187.974 121.045, 188.381 121.035, 190.052 122.547 C 191.757 124.090, 196.049 123.826, 195.966 122.183 C 195.930 121.486, 180.538 108.691, 179.224 108.266 C 178.826 108.138, 177.876 108.427, 177.113 108.910 M 316.458 116.524 C 312.100 124.519, 311.591 127.001, 314.309 126.999 C 315.474 126.998, 324 112.247, 324 110.233 C 324 109.673, 323.338 108.960, 322.529 108.650 C 321.479 108.247, 319.742 110.499, 316.458 116.524 M 325.746 121.979 C 323.651 130.333, 323.466 132.142, 324.609 133.091 C 325.360 133.714, 326.625 133.974, 327.419 133.669 C 330.619 132.442, 344.008 121.822, 343.465 120.943 C 342.362 119.159, 339.902 120.009, 334.616 124 C 331.702 126.200, 329.085 128, 328.800 128 C 328.515 128, 329.162 124.791, 330.237 120.869 C 331.850 114.985, 331.957 113.588, 330.846 112.884 C 330.106 112.415, 329.218 112.024, 328.874 112.015 C 328.530 112.007, 327.122 116.490, 325.746 121.979 M 180 116.810 C 180 120.419, 180.775 121.191, 183.131 119.930 C 185.637 118.589, 185.485 117.548, 182.500 115.592 C 180.035 113.977, 180 113.993, 180 116.810 M 162.624 117.863 C 161.697 118.887, 160.664 122.037, 160.330 124.863 C 159.995 127.688, 159.431 130, 159.076 130 C 158.722 130, 157.634 128.650, 156.659 127 C 154.877 123.983, 152.656 123.130, 151.490 125.016 C 151.145 125.574, 153.202 129.287, 156.062 133.266 C 162.858 142.720, 162.655 142.531, 164.443 141.047 C 165.804 139.918, 165.764 139.515, 164.082 137.378 C 162.295 135.105, 162.263 131, 164.034 131 C 164.474 131, 166.808 131.846, 169.221 132.880 C 172.792 134.411, 173.922 134.530, 175.304 133.520 C 176.237 132.838, 177 132.089, 177 131.855 C 177 131.622, 174.075 130.337, 170.500 129 C 163.594 126.417, 163.432 126.150, 164.919 119.750 C 165.880 115.610, 165.183 115.036, 162.624 117.863 M 341.541 132.491 L 334.869 139.946 338.462 143.100 C 345.864 149.600, 346.686 150.084, 347.880 148.645 C 348.730 147.621, 348.072 146.589, 344.990 144.112 C 340.557 140.550, 340.460 140.297, 342.493 137.612 C 343.868 135.796, 344.057 135.843, 347.496 138.862 C 351.255 142.163, 352.501 142.617, 353.473 141.043 C 353.799 140.517, 352.379 138.541, 350.319 136.653 C 347.098 133.701, 346.758 132.997, 347.892 131.630 C 349.074 130.206, 349.653 130.402, 353.430 133.496 C 356.611 136.103, 357.931 136.669, 358.799 135.801 C 359.668 134.932, 358.932 133.771, 355.803 131.075 C 347.944 124.300, 348.962 124.199, 341.541 132.491 M 138.144 137.707 C 137.427 138.988, 138.319 141.676, 141.710 148.457 C 144.196 153.431, 146.428 157.712, 146.670 157.971 C 147.638 159.010, 148.984 155.347, 148.456 153.111 C 147.632 149.620, 152.482 144.653, 155.263 146.141 C 156.769 146.947, 157.604 146.824, 158.807 145.621 C 159.673 144.756, 160.183 143.884, 159.940 143.684 C 159.110 142.999, 140.987 136, 140.043 136 C 139.524 136, 138.669 136.768, 138.144 137.707 M 248.250 145.879 C 245.640 152.665, 245.402 156.827, 247.468 159.559 C 248.276 160.626, 248.951 162.298, 248.968 163.272 C 249.021 166.198, 241.601 173.313, 234.093 177.536 C 230.217 179.716, 227.036 181.853, 227.023 182.285 C 227.010 182.717, 227.787 182.664, 228.750 182.168 C 235.509 178.683, 260.793 178.132, 269.750 181.275 C 272.087 182.095, 273.987 182.481, 273.971 182.133 C 273.956 181.785, 270.535 179.475, 266.370 177 C 258.438 172.287, 252 166.160, 252 163.326 C 252 162.408, 252.704 160.880, 253.564 159.929 C 255.792 157.467, 255.629 153.430, 253.011 146.250 C 251.758 142.813, 250.680 140.007, 250.616 140.015 C 250.552 140.023, 249.488 142.662, 248.250 145.879 M 356.581 146.399 C 350.316 151.723, 349.293 152.999, 350.491 153.992 C 351.633 154.940, 352.535 154.755, 354.869 153.093 C 356.486 151.942, 358.302 151, 358.904 151 C 360.265 151, 360.313 154.422, 359.016 158.945 C 358.220 161.720, 358.354 162.734, 359.715 164.237 C 361.329 166.021, 361.449 165.924, 362.647 161.869 C 363.333 159.543, 363.650 157.242, 363.349 156.756 C 363.049 156.270, 364.310 156.136, 366.152 156.457 C 369.842 157.102, 371.173 156.503, 372.760 153.484 C 373.521 152.036, 373.493 150.890, 372.660 149.421 C 370.702 145.967, 365.810 140, 364.937 140 C 364.483 140, 360.723 142.880, 356.581 146.399 M 143 141.505 C 143 142.552, 145.396 147, 145.961 147 C 146.821 147, 149 144.776, 149 143.898 C 149 143.512, 147.650 142.725, 146 142.150 C 144.350 141.575, 143 141.284, 143 141.505 M 362.569 146.525 C 360.677 147.956, 360.685 148.036, 362.993 150.493 C 367.553 155.347, 371.310 152.349, 367.056 147.250 C 364.863 144.620, 365.047 144.650, 362.569 146.525 M 125.210 152.460 C 122.894 155.424, 121 158.333, 121 158.925 C 121 161.060, 123.910 159.935, 126.008 156.988 C 127.188 155.332, 128.517 154.201, 128.961 154.476 C 129.405 154.750, 130.325 157.923, 131.005 161.525 C 131.685 165.128, 132.995 169.007, 133.917 170.146 C 135.570 172.187, 135.665 172.128, 140.756 165.912 C 144.860 160.901, 145.682 159.321, 144.762 158.213 C 143.773 157.022, 143.452 157.023, 142.553 158.220 C 137.736 164.628, 136.865 165.399, 136.009 164.015 C 135.531 163.240, 134.574 159.764, 133.883 156.290 C 133.193 152.816, 131.906 149.320, 131.024 148.521 C 129.591 147.225, 128.968 147.647, 125.210 152.460 M 375.762 160.073 C 372.556 161.941, 371.911 164.497, 373.506 169.017 C 375.156 173.695, 374.810 175, 371.920 175 C 369.402 175, 367.128 170.472, 368.803 168.797 C 369.641 167.959, 369.655 167.289, 368.854 166.324 C 366.049 162.944, 363.311 167.382, 365.015 172.546 C 367.113 178.903, 374.439 181.312, 377.494 176.650 C 378.795 174.663, 378.850 173.502, 377.846 169.154 C 376.479 163.233, 377.120 161.894, 380.051 164.546 C 381.414 165.780, 381.928 167.151, 381.566 168.592 C 381.250 169.854, 381.617 171.267, 382.440 171.950 C 383.571 172.889, 384.084 172.712, 384.954 171.085 C 386.507 168.185, 385.268 164.404, 381.814 161.497 C 378.501 158.709, 378.218 158.642, 375.762 160.073 M 110.627 174.529 C 110.169 175.724, 111.441 176.773, 115.759 178.756 C 121.044 181.184, 121.302 181.450, 119 182.097 C 117.625 182.484, 114.453 182.845, 111.950 182.900 C 107.531 182.997, 104.980 184.303, 105.019 186.450 C 105.044 187.868, 121.925 195.243, 123.640 194.585 C 126.191 193.606, 125.004 192.249, 119.517 189.874 C 116.501 188.568, 114.026 187.228, 114.017 186.895 C 114.008 186.562, 117.224 186.020, 121.163 185.690 C 127.637 185.147, 129.935 184.129, 129.985 181.780 C 129.999 181.097, 117.162 174.821, 113.134 173.543 C 111.911 173.154, 111.020 173.505, 110.627 174.529 M 380.615 180.632 C 372.750 184.638, 371.900 185.329, 373.216 186.645 C 374.533 187.961, 375.701 187.638, 383.380 183.830 C 388.940 181.072, 391.956 179.013, 391.778 178.096 C 391.299 175.628, 389.749 175.980, 380.615 180.632 M 392.258 183.660 C 391.335 184.032, 391.291 184.675, 392.085 186.159 C 393.751 189.271, 392.747 190.315, 385.500 193 C 381.790 194.375, 378.525 196.093, 378.244 196.817 C 377.147 199.653, 379.796 199.699, 386.500 196.962 C 395.156 193.428, 395.634 193.406, 396.411 196.500 C 397.096 199.229, 398.752 199.809, 399.594 197.616 C 400.053 196.419, 394.663 182.864, 393.813 183.079 C 393.641 183.122, 392.941 183.384, 392.258 183.660 M 204.500 191.363 C 160.373 209.984, 138.276 231.933, 135.335 260.065 C 134.550 267.575, 137.256 280.520, 141.555 289.824 C 146.184 299.845, 152.202 307.956, 162.273 317.750 L 170.756 326 199.878 326 C 215.895 326, 228.998 325.663, 228.996 325.250 C 228.994 324.837, 226.971 323.669, 224.501 322.653 C 213.271 318.034, 199.461 306.666, 191.410 295.411 C 185.986 287.829, 180.590 276.521, 178.329 268 C 175.693 258.065, 175.935 241.516, 178.855 232 C 183.916 215.506, 194.251 202.056, 210.250 191.144 C 212.863 189.362, 215 187.701, 215 187.452 C 215 186.879, 216.075 186.479, 204.500 191.363 M 287.812 188.731 C 310.565 206.140, 319.429 218.059, 323.614 236.869 C 326.680 250.650, 323.811 270.544, 316.744 284.500 C 308.575 300.632, 292.155 316.214, 276.568 322.624 C 274.060 323.656, 272.006 324.837, 272.004 325.250 C 272.002 325.663, 285.014 326, 300.919 326 L 329.838 326 335.383 321.250 C 349.400 309.244, 360.068 292.873, 364.068 277.234 C 367.512 263.768, 366.373 253.847, 359.804 240.090 C 351.597 222.904, 329.124 204.847, 302 193.644 C 285.413 186.794, 285.169 186.709, 287.812 188.731 M 235.121 190.002 C 227.568 191.786, 223.056 196.759, 220.898 205.680 C 220.257 208.331, 218.524 211.850, 217.046 213.500 C 215.569 215.150, 213.648 217.655, 212.777 219.067 C 211.019 221.917, 203.021 225, 197.385 225 C 193.645 225, 192.865 227.065, 195.331 230.438 C 196.397 231.896, 197.442 232.126, 200.581 231.592 C 202.736 231.226, 207.724 230.671, 211.663 230.358 C 217.789 229.872, 219.211 229.389, 221.482 227.019 L 224.137 224.248 220.514 222.009 C 217.891 220.388, 216.975 219.180, 217.196 217.635 C 217.657 214.399, 222.964 214.354, 231.626 217.514 C 240.483 220.744, 243.452 220.132, 250.683 213.585 C 254.667 209.978, 255.400 208.746, 255.400 205.657 C 255.400 201.007, 253.962 199.415, 251.130 200.930 C 248.721 202.219, 246.925 205.226, 246.011 209.500 C 245.442 212.159, 245.001 212.470, 242.135 212.240 C 238.719 211.964, 227.613 206.801, 226.475 204.959 C 225.258 202.990, 229.140 200.111, 234.362 199.111 C 237.188 198.570, 242.425 197.846, 246 197.503 C 251.062 197.018, 253.253 196.263, 255.903 194.091 C 257.890 192.462, 259.009 190.824, 258.593 190.151 C 257.776 188.828, 240.557 188.719, 235.121 190.002 M 260.250 193.674 C 257.492 195.598, 257.345 199.097, 259.924 201.431 C 261.759 203.092, 261.985 203.071, 264.823 200.973 L 267.799 198.773 265.800 195.386 C 263.544 191.563, 263.359 191.505, 260.250 193.674 M 102 194.911 C 102 196.429, 103.886 197.454, 111.194 199.905 C 120.070 202.882, 121.915 202.869, 121.985 199.832 C 121.999 199.222, 104.479 193, 102.748 193 C 102.336 193, 102 193.860, 102 194.911 M 266.514 201.743 C 263.256 204.367, 259.054 208.530, 257.175 210.993 L 253.759 215.471 256.130 216.136 C 257.433 216.501, 259.962 216.845, 261.750 216.900 C 267.473 217.076, 265.266 218.424, 254.246 221.485 C 241.098 225.136, 235.027 225.267, 229.256 222.024 C 226.928 220.715, 224.680 219.994, 224.261 220.422 C 222.871 221.843, 231.301 228.032, 236.809 229.633 C 243.735 231.646, 249.447 230.952, 266.456 226.030 C 277.983 222.694, 280.895 222.235, 291.499 222.079 C 298.098 221.982, 303.818 221.582, 304.211 221.189 C 304.603 220.797, 303.783 219.019, 302.389 217.238 C 299.881 214.033, 299.765 214, 291.178 213.985 C 282.907 213.970, 269.151 211.356, 265.192 209.047 C 263.925 208.309, 264.843 208.053, 268.842 208.030 C 272.704 208.008, 274.889 208.554, 276.727 210 C 280.435 212.916, 285.739 212.624, 289.195 209.313 C 290.738 207.835, 292 206.062, 292 205.372 C 292 202.933, 289.820 202.820, 287.359 205.132 L 284.866 207.474 283.127 205.169 C 281.868 203.500, 280.586 202.951, 278.479 203.182 C 276.041 203.449, 275.317 202.972, 274.003 200.236 L 272.436 196.971 266.514 201.743 M 235.200 202.200 C 232.874 204.526, 233.874 206, 237.777 206 C 241.503 206, 246 203.781, 246 201.943 C 246 200.565, 236.612 200.788, 235.200 202.200 M 210.809 204.250 C 210.115 205.488, 209.077 207.391, 208.504 208.480 C 207.930 209.570, 206.525 210.470, 205.382 210.480 C 203.001 210.503, 197.538 216.444, 198.487 217.980 C 200.158 220.683, 209.505 217.730, 214.227 213.008 C 217.863 209.372, 218.681 206.938, 217.393 203.582 C 216.481 201.205, 212.277 201.632, 210.809 204.250 M 396.079 207.006 C 392.374 210.282, 389.446 211.993, 386.829 212.411 C 382.875 213.044, 382.433 213.557, 383.877 215.835 C 384.535 216.874, 385.554 216.941, 388.462 216.138 C 391.598 215.272, 393.266 215.493, 398.814 217.506 C 402.451 218.826, 405.538 219.796, 405.674 219.660 C 405.810 219.524, 405.673 218.467, 405.371 217.311 C 404.991 215.857, 403.446 214.825, 400.351 213.958 L 395.881 212.707 399.331 209.103 C 401.607 206.725, 402.563 204.941, 402.140 203.857 C 401.615 202.508, 400.528 203.073, 396.079 207.006 M 99.730 205.750 C 97.711 207.986, 95.435 216.870, 96.615 217.910 C 97.507 218.697, 111.887 222, 114.421 222 C 116.067 222, 116.625 220.681, 117.528 214.660 C 118.161 210.438, 117.970 209.817, 115.186 207.032 C 112.555 204.402, 111.436 204, 106.732 204 C 102.837 204, 100.865 204.493, 99.730 205.750 M 101.557 210.223 C 99.307 213.434, 99.629 214.879, 102.750 215.578 C 104.263 215.917, 107.033 216.584, 108.906 217.060 C 113.273 218.169, 114 217.649, 114 213.416 C 114 210.616, 113.507 209.763, 111.435 208.975 C 107.079 207.319, 103.252 207.803, 101.557 210.223 M 275.473 225.044 C 274.692 226.307, 276.753 229, 278.500 229 C 280.644 229, 282.120 226.520, 280.776 225.176 C 279.319 223.719, 276.338 223.645, 275.473 225.044 M 97.819 226.536 C 94.923 228.108, 94.499 229.061, 93.537 236.154 L 92.906 240.808 96.703 241.355 C 98.791 241.655, 103.511 242.181, 107.192 242.524 L 113.884 243.147 114.192 238.323 C 114.630 231.469, 113.422 228.428, 109.529 226.581 C 105.428 224.635, 101.349 224.619, 97.819 226.536 M 293.196 228.298 C 290.004 231.591, 290 231.608, 290 242.347 C 290 250.029, 290.436 253.942, 291.526 256.050 C 293.003 258.906, 293.281 259, 300.276 258.986 C 309.666 258.969, 311.885 258.308, 312.638 255.307 C 313.551 251.670, 311.458 248.089, 307.439 246.410 C 304.049 244.994, 303.794 245.032, 302.012 247.212 C 298.638 251.340, 297.540 248.408, 297.809 235.986 C 297.940 229.944, 297.675 225, 297.220 225 C 296.765 225, 294.954 226.484, 293.196 228.298 M 304.485 227.024 C 303.050 229.347, 307.179 240.626, 309.043 239.474 C 310.542 238.547, 310.167 233.418, 308.315 229.534 C 306.579 225.895, 305.585 225.244, 304.485 227.024 M 98.744 230.730 C 97.785 231.790, 97 233.860, 97 235.329 C 97 237.927, 97.164 238, 103 238 C 106.300 238, 109.338 238.113, 109.750 238.250 C 110.162 238.387, 110.635 237.112, 110.801 235.415 C 111.168 231.655, 109.398 229.997, 104.284 229.311 C 101.370 228.920, 100.084 229.250, 98.744 230.730 M 220.472 232.031 C 218.742 233.942, 218.734 234.162, 220.333 235.762 C 221.768 237.197, 222.353 237.261, 224.095 236.173 C 225.708 235.165, 226.472 235.147, 227.608 236.090 C 228.703 236.999, 229.665 237.018, 231.530 236.168 C 232.888 235.549, 234 234.638, 234 234.144 C 234 232.205, 231.006 230.840, 228.136 231.470 C 226.433 231.844, 224.914 231.671, 224.536 231.059 C 223.575 229.504, 222.533 229.753, 220.472 232.031 M 259.619 233.433 C 257.408 236.331, 257 237.890, 257 243.433 C 257 250.051, 256.287 251.255, 254 248.500 C 253.315 247.675, 252.190 247, 251.500 247 C 250.810 247, 249.685 247.675, 249 248.500 C 247.378 250.455, 244.334 250.419, 243.222 248.432 C 242.443 247.040, 241.949 247.098, 238.821 248.943 L 235.298 251.022 232.677 248.961 C 229.555 246.505, 228.283 247.002, 222.547 252.921 C 217.724 257.898, 215.075 258.097, 211.520 253.750 C 210.057 251.963, 208.230 249.722, 207.458 248.771 C 205.361 246.186, 203.183 247.668, 202.266 252.304 C 200.893 259.250, 201.802 263.035, 205.120 264.192 C 206.704 264.744, 208 265.613, 208 266.123 C 208 267.719, 202.745 269.135, 197.795 268.872 C 191.887 268.558, 191.033 269.342, 193.928 272.424 C 199.685 278.551, 205.223 277.786, 210.343 270.156 C 213.504 265.446, 214.732 265.225, 221.758 268.108 C 224.864 269.382, 225.162 269.300, 228.110 266.351 L 231.204 263.257 227.602 260.510 C 223.766 257.584, 223.051 255.578, 225.509 254.635 C 226.394 254.295, 227.527 254.872, 228.250 256.028 C 229.711 258.369, 234.211 258.656, 235.983 256.521 C 236.874 255.447, 237.710 255.310, 239.039 256.021 C 241.548 257.364, 244.750 257.251, 245.233 255.802 C 245.539 254.884, 246.356 254.905, 248.742 255.893 C 252.663 257.517, 255.211 256.707, 260.111 252.281 L 264 248.767 264 239.384 C 264 234.223, 263.603 230, 263.119 230 C 262.634 230, 261.059 231.545, 259.619 233.433 M 269.687 232.805 C 267.096 235.510, 267 236.011, 267 246.888 C 267 258.977, 267.513 259.869, 271.439 254.617 C 273.163 252.311, 273.555 250.075, 273.838 240.930 C 274.027 234.857, 273.776 230, 273.276 230 C 272.780 230, 271.165 231.262, 269.687 232.805 M 278.200 231.200 C 277.540 231.860, 277 234.304, 277 236.630 C 277 240.256, 277.322 240.907, 279.250 241.180 C 280.916 241.417, 281.385 242.019, 281.058 243.500 C 280.617 245.498, 280.652 247.891, 281.206 253.454 C 281.701 258.428, 279.211 258.969, 255.750 258.985 C 243.332 258.994, 235 259.381, 235 259.949 C 235 260.471, 236.463 262.269, 238.250 263.945 L 241.500 266.991 258.272 266.995 L 275.045 267 279.327 263.053 C 281.682 260.882, 284.693 256.790, 286.019 253.960 C 288.347 248.988, 288.371 248.712, 286.715 245.826 C 285.772 244.182, 285 240.950, 285 238.641 C 285 232.140, 281.304 228.096, 278.200 231.200 M 393.750 233.796 C 387.770 234.058, 387 234.319, 387 236.087 C 387 237.955, 387.464 238.043, 394.249 237.460 C 402.765 236.727, 402.659 237.409, 393.873 239.880 C 388.928 241.271, 387.431 242.134, 387.194 243.735 C 386.923 245.559, 387.707 245.945, 393.949 247.060 C 401.395 248.391, 402.307 249.427, 396.171 249.587 C 388.030 249.798, 387 250.013, 387 251.500 C 387 252.739, 388.840 253, 397.563 253 L 408.127 253 407.813 249.768 C 407.523 246.770, 407.135 246.455, 402.468 245.424 C 394.288 243.616, 394.198 243.366, 401 241.333 C 407.089 239.513, 407.500 239.204, 407.500 236.445 C 407.500 233.156, 407.660 233.186, 393.750 233.796 M 190.750 237.572 C 186.637 241.470, 186.409 242.693, 187.971 252.500 C 188.496 255.800, 189.031 260.413, 189.158 262.750 C 189.286 265.087, 189.744 267, 190.175 267 C 190.606 267, 191.820 265.313, 192.871 263.250 C 194.381 260.288, 194.858 256.822, 195.141 246.750 C 195.339 239.737, 195.275 234.004, 195 234.008 C 194.725 234.013, 192.813 235.617, 190.750 237.572 M 242.500 236 C 240.803 237.875, 239.420 238, 220.345 238 C 209.155 238, 200 238.268, 200 238.596 C 200 240.387, 203.771 245.155, 205.538 245.599 C 206.671 245.883, 217.091 245.977, 228.696 245.808 C 247.788 245.529, 249.995 245.319, 251.897 243.595 C 254.895 240.879, 254.502 238.277, 250.750 235.989 C 246.642 233.484, 244.774 233.487, 242.500 236 M 96.250 248.723 C 93.835 249.023, 93 249.627, 93 251.073 C 93 252.888, 93.524 252.977, 100.781 252.393 C 107.160 251.881, 108.797 252.051, 109.864 253.336 C 111.447 255.244, 111.034 257.997, 109 259.096 C 108.175 259.542, 104.463 260.189, 100.750 260.533 C 94.868 261.079, 94 261.417, 94 263.165 C 94 265.059, 94.431 265.132, 101.750 264.483 C 110.376 263.717, 113.945 262.054, 114.111 258.727 C 114.608 248.716, 111.290 246.857, 96.250 248.723 M 387.528 260.969 C 385.286 263.446, 384.985 270.413, 387.030 272.459 C 388.618 274.047, 403.331 276.532, 405.008 275.495 C 405.553 275.158, 406 274.278, 406 273.539 C 406 272.636, 403.955 271.960, 399.750 271.474 C 390.548 270.412, 388.804 269.549, 389.184 266.250 L 389.500 263.500 398.250 263.705 C 406.128 263.890, 407 263.729, 407 262.086 C 407 260.021, 402.939 259.029, 394.405 259.011 C 390.597 259.003, 388.860 259.497, 387.528 260.969 M 300.989 263.250 C 298.190 267.840, 298.380 271.760, 301.469 273.168 C 302.826 273.786, 303.700 274.677, 303.410 275.146 C 302.553 276.532, 297.140 276.124, 293.857 274.426 C 292.184 273.561, 290.570 273.096, 290.272 273.394 C 289.131 274.535, 292.442 280.236, 295.681 282.706 C 299.912 285.933, 302.843 284.957, 305.456 279.452 C 308.202 273.665, 309.683 263.528, 308.067 261.581 C 305.971 259.056, 303.139 259.724, 300.989 263.250 M 289.630 263.250 C 288.691 266.754, 288.893 269.816, 290.112 270.569 C 291.727 271.567, 292.967 269.056, 292.985 264.750 C 293.002 260.519, 290.645 259.465, 289.630 263.250 M 281.962 268.696 L 278.722 272.386 279.290 283.927 C 279.806 294.398, 280.071 295.639, 282.156 297.328 C 283.819 298.674, 285.407 299.033, 287.908 298.628 C 292.723 297.846, 294.485 295.737, 294.359 290.908 C 294.223 285.711, 292.710 284.047, 290.192 286.326 C 289.172 287.249, 288.037 287.703, 287.669 287.336 C 287.301 286.968, 287 282.043, 287 276.392 C 287 270.741, 286.595 265.868, 286.101 265.562 C 285.606 265.257, 283.744 266.667, 281.962 268.696 M 104.836 272.026 C 93.157 279.997, 93.435 281.122, 107.659 283.456 C 113.432 284.404, 118.400 284.933, 118.701 284.632 C 119.829 283.504, 118.036 281.143, 115.811 280.828 C 114.065 280.580, 113.268 279.560, 112.550 276.655 C 111.706 273.238, 111.851 272.621, 113.849 271.114 C 115.335 269.993, 115.875 268.838, 115.442 267.709 C 115.081 266.769, 114.497 266.025, 114.143 266.057 C 113.789 266.088, 109.601 268.774, 104.836 272.026 M 228.569 270.928 C 225.786 273.833, 225.746 273.841, 223.693 271.928 C 221.436 269.826, 220.947 269.700, 218.582 270.607 C 216.437 271.430, 216.592 273.321, 218.981 275.483 C 220.603 276.950, 221.238 277.047, 222.481 276.016 C 223.714 274.992, 223.997 275.013, 223.985 276.128 C 223.976 276.882, 223.583 278.109, 223.112 278.853 C 221.981 280.638, 218.649 278.921, 216.306 275.345 L 214.613 272.760 212.806 274.991 C 211.813 276.218, 211 278.197, 211 279.388 C 211 282.008, 208.366 286, 206.638 286 C 205.951 286, 203.864 284.875, 202 283.500 C 200.136 282.125, 198.249 281, 197.806 281 C 195.633 281, 197.492 285.145, 201.778 289.856 C 207.228 295.846, 208.888 295.900, 211.557 290.173 C 213.811 285.336, 213.691 285.410, 215.961 287.464 C 221.196 292.202, 229.609 286.868, 232.943 276.697 C 234.169 272.959, 233.727 268, 232.168 268 C 231.731 268, 230.112 269.318, 228.569 270.928 M 271.713 268.621 C 271.321 269.013, 271 270.375, 271 271.648 C 271 273.308, 271.737 274.147, 273.607 274.616 C 276.542 275.353, 278.170 273.738, 277.756 270.500 C 277.497 268.479, 273.193 267.141, 271.713 268.621 M 262.250 272.234 L 259 275.595 259 288.239 C 259 301.774, 259.838 304.139, 263.131 299.894 C 266.417 295.657, 267.223 290.464, 266.331 279.280 L 265.500 268.872 262.250 272.234 M 251.687 272.805 C 249.136 275.468, 249 276.117, 249 285.644 C 249 295.339, 248.916 295.717, 246.536 296.802 C 243.388 298.236, 242.360 296.751, 244.442 293.779 C 245.403 292.408, 246 289.406, 246 285.949 C 246 281.344, 245.442 279.501, 242.878 275.629 C 241.160 273.036, 239.303 271.066, 238.749 271.250 C 238.196 271.435, 236.816 273.185, 235.683 275.139 L 233.622 278.693 237.811 283.661 C 240.115 286.393, 242 289.215, 242 289.932 C 242 292.311, 235.725 298.488, 232.789 299 C 226.331 300.126, 232.654 303.787, 241.293 303.924 C 245.660 303.993, 246.526 303.588, 251.043 299.363 L 256 294.726 256 282.363 C 256 275.563, 255.634 270, 255.187 270 C 254.740 270, 253.165 271.262, 251.687 272.805 M 104.662 276.618 C 101.374 278.400, 101.417 278.507, 105.750 279.331 C 108.708 279.894, 109 279.728, 109 277.475 C 109 274.615, 108.529 274.522, 104.662 276.618 M 268.894 278.750 C 267.090 283.449, 268.603 288.783, 272.151 290.234 C 272.509 290.380, 272.959 293.200, 273.151 296.500 L 273.500 302.500 268 303.654 C 264.975 304.288, 253.838 304.851, 243.250 304.904 C 230.461 304.968, 224 305.355, 224 306.056 C 224 309.254, 242.152 313.956, 254.601 313.983 C 266.677 314.009, 272.242 311.544, 276.745 304.174 C 279.344 299.920, 279.617 296.198, 277.532 293.441 C 276.699 292.340, 276.050 289.288, 276.032 286.385 C 276.009 282.760, 275.396 280.502, 273.927 278.635 C 271.297 275.290, 270.213 275.315, 268.894 278.750 M 381.664 283.985 C 379.623 291.325, 379.610 292, 381.504 292 C 382.441 292, 383.461 290.305, 384.211 287.500 C 384.873 285.025, 385.894 283, 386.479 283 C 387.064 283, 390.668 283.867, 394.488 284.926 C 398.307 285.985, 401.785 286.633, 402.216 286.367 C 404.288 285.086, 402.630 282.980, 398.750 281.968 C 396.413 281.357, 392.281 280.215, 389.568 279.429 C 386.856 278.643, 384.342 278, 383.982 278 C 383.622 278, 382.579 280.693, 381.664 283.985 M 230.364 287.489 C 228.789 288.151, 226.857 289.467, 226.072 290.413 C 223.632 293.353, 219.085 295.178, 215.927 294.484 C 213.317 293.911, 213 294.104, 213 296.275 C 213 299.207, 217.184 304, 219.744 304 C 220.756 304, 223.571 301.975, 226 299.500 C 228.918 296.527, 231.279 294.995, 232.958 294.985 C 234.356 294.976, 236.056 294.616, 236.735 294.185 C 238.225 293.239, 239.612 287.053, 238.375 286.872 C 234.532 286.312, 232.857 286.441, 230.364 287.489 M 109.232 291.351 C 103.418 293.565, 101.052 294.945, 101.263 296 C 101.567 297.522, 103.823 297.708, 107.559 296.521 C 109.144 296.017, 109.892 296.469, 110.809 298.480 C 112.237 301.615, 112.348 304, 111.065 304 C 110.551 304, 108.958 304.446, 107.525 304.991 C 105.360 305.814, 105.091 306.301, 105.934 307.876 C 106.904 309.689, 107.360 309.613, 116.471 306.135 C 121.709 304.136, 125.989 302.275, 125.982 302 C 125.975 301.725, 125.571 300.871, 125.084 300.102 C 124.333 298.915, 123.579 298.951, 120.108 300.340 L 116.017 301.977 114.509 298.366 C 113.679 296.381, 113 294.658, 113 294.538 C 113 294.418, 114.818 293.720, 117.040 292.987 C 119.769 292.086, 120.982 291.145, 120.778 290.088 C 120.318 287.697, 118.227 287.925, 109.232 291.351 M 376.583 298.643 C 375.810 300.658, 375.023 300.162, 384.299 303.499 C 390.505 305.731, 391.963 306.630, 391.438 307.902 C 390.288 310.687, 390.455 312.500, 391.863 312.500 C 393.764 312.500, 399.161 298.742, 397.641 297.769 C 396.573 297.084, 394.514 298.958, 393.721 301.337 C 393.504 301.989, 390.477 301.364, 385.778 299.695 C 376.813 296.513, 377.376 296.577, 376.583 298.643 M 119.755 313.092 C 113.930 320.050, 113.157 321.425, 114.091 323.170 C 114.941 324.759, 115.847 325.075, 118.336 324.648 C 120.076 324.350, 124.200 323.820, 127.500 323.471 C 136.107 322.560, 137.346 322.122, 135.979 320.475 C 135.360 319.729, 133.671 318.980, 132.226 318.809 C 130.492 318.605, 128.946 317.379, 127.682 315.208 C 125.902 312.149, 125.883 311.787, 127.407 310.102 C 128.900 308.453, 128.719 304.975, 127.143 305.018 C 126.789 305.027, 123.465 308.661, 119.755 313.092 M 372.984 306.519 C 371.956 307.758, 372.033 308.379, 373.405 309.895 C 374.980 311.636, 374.975 311.984, 373.319 315.456 C 371.813 318.616, 371.174 319.085, 368.976 318.645 C 367.149 318.280, 366.056 318.680, 365.218 320.023 C 363.876 322.171, 364.313 322.303, 378 323.882 C 385.309 324.726, 388 324.156, 388 321.765 C 388 320.936, 375.135 305, 374.466 305 C 374.344 305, 373.678 305.683, 372.984 306.519 M 121.054 317.443 C 118.181 320.501, 118.621 321.226, 122.840 320.382 C 126.342 319.682, 126.590 319.189, 124.724 316.638 C 123.536 315.012, 123.285 315.067, 121.054 317.443 M 376.241 316.986 C 374.539 319.711, 374.551 319.729, 378.500 320.190 C 382.497 320.656, 382.653 320.362, 380.056 317.250 C 377.776 314.517, 377.783 314.517, 376.241 316.986 M 361.081 325.402 C 360.166 326.505, 360.948 327.526, 364.968 330.476 C 367.736 332.508, 370 334.292, 370 334.440 C 370 334.589, 366.332 334.663, 361.849 334.605 C 356.343 334.534, 353.563 334.888, 353.284 335.695 C 352.721 337.319, 367.736 348.315, 369.560 347.615 C 371.913 346.712, 371.250 345.518, 366.500 342.107 C 364.025 340.330, 362 338.640, 362 338.353 C 362 338.065, 365.283 338.137, 369.296 338.513 C 375.232 339.069, 376.830 338.910, 377.868 337.659 C 378.961 336.342, 378.094 335.349, 371.822 330.742 C 362.274 323.728, 362.413 323.797, 361.081 325.402 M 134.893 326.362 C 133.577 327.015, 132.368 328.464, 132.206 329.581 C 132.018 330.882, 130.760 331.951, 128.706 332.556 C 123.955 333.955, 123.879 337.705, 128.475 343.966 L 132.087 348.887 140.487 342.779 L 148.887 336.671 145.193 331.916 C 140.662 326.083, 138.165 324.736, 134.893 326.362 M 135.393 331.419 C 134.727 333.153, 137.747 338, 139.493 338 C 140.187 338, 141.297 337.347, 141.960 336.548 C 142.919 335.393, 142.790 334.580, 141.333 332.579 C 139.313 329.806, 136.242 329.206, 135.393 331.419 M 225.750 334.484 C 223.004 336.901, 222.163 339, 223.941 339 C 224.459 339, 225.160 338.550, 225.500 338 C 227.041 335.507, 227.904 337.489, 227.680 343 C 227.469 348.180, 227.679 349, 229.218 349 C 230.788 349, 231 347.987, 231 340.500 C 231 331.091, 230.394 330.396, 225.750 334.484 M 237.200 333.200 C 235.625 334.775, 235.658 340.472, 237.250 341.789 C 237.938 342.358, 239.761 342.975, 241.303 343.162 C 243.851 343.469, 243.981 343.671, 242.730 345.369 C 241.533 346.994, 241.075 347.064, 239.222 345.907 C 238.050 345.175, 236.781 344.885, 236.403 345.264 C 235.135 346.532, 238.215 349, 241.066 349 C 244.731 349, 247 345.750, 247 340.500 C 247 335.299, 244.727 332, 241.143 332 C 239.634 332, 237.860 332.540, 237.200 333.200 M 249 333.500 C 249 334.548, 250.056 335, 252.500 335 C 254.425 335, 256 335.176, 256 335.391 C 256 335.606, 255.110 337.743, 254.022 340.141 C 251.705 345.247, 251.430 349, 253.372 349 C 254.190 349, 254.992 347.449, 255.358 345.160 C 255.696 343.048, 257.104 339.653, 258.486 337.615 C 259.869 335.578, 261 333.481, 261 332.956 C 261 332.430, 258.300 332, 255 332 C 250.333 332, 249 332.333, 249 333.500 M 264.459 334.750 C 263.049 341.444, 262.907 341.086, 266.835 340.783 C 270.282 340.517, 270.500 340.674, 270.500 343.417 C 270.500 346.898, 268.866 347.723, 266.552 345.409 C 265.336 344.193, 264.569 344.031, 263.778 344.822 C 262.045 346.555, 264.763 349, 268.422 349 C 272.424 349, 274 347.446, 274 343.500 C 274 339.787, 272.445 338, 269.217 338 C 265.663 338, 267.060 335.559, 270.827 335.187 C 276.013 334.675, 274.915 332, 269.519 332 C 265.438 332, 264.986 332.245, 264.459 334.750 M 129.084 336.399 C 128.171 337.499, 128.453 338.409, 130.398 340.649 C 132.748 343.355, 132.964 343.412, 134.631 341.771 C 136.305 340.122, 136.276 339.923, 134.019 337.521 C 131.291 334.617, 130.679 334.477, 129.084 336.399 M 239.184 337.750 C 239.372 339.387, 240.107 340.500, 241 340.500 C 241.893 340.500, 242.628 339.387, 242.816 337.750 C 243.074 335.511, 242.737 335, 241 335 C 239.263 335, 238.926 335.511, 239.184 337.750 M 347.413 351.269 C 347.838 354.100, 347.699 356.068, 347.048 356.470 C 346.472 356.827, 346 358.681, 346 360.590 C 346 366.400, 343.479 366.121, 337.232 359.620 C 334.217 356.483, 331.552 354.114, 331.310 354.357 C 331.068 354.599, 333.620 357.993, 336.982 361.899 C 344.954 371.162, 348.501 371.424, 348.160 362.724 C 348.026 359.297, 348.259 358.834, 349.901 359.264 C 351.681 359.729, 351.711 359.554, 350.399 356.412 C 349.629 354.571, 349 351.951, 349 350.591 C 349 349.231, 348.489 347.802, 347.865 347.417 C 347.046 346.911, 346.920 347.984, 347.413 351.269 M 144.757 350.519 C 140.566 353.367, 139 355.759, 139 359.312 C 139 362.169, 140.634 363.748, 144.836 364.953 C 149.398 366.261, 155.393 364.286, 160.496 359.794 C 162.973 357.614, 165 356.263, 165 356.793 C 165 357.322, 164.299 358.337, 163.442 359.048 C 160.643 361.371, 156.930 368.655, 157.624 370.462 C 158.235 372.054, 160.101 372.208, 164.500 371.031 C 165.050 370.884, 166.738 370.816, 168.250 370.882 C 170.309 370.970, 171 371.511, 171 373.031 C 171 375.586, 173.214 376.491, 175.922 375.042 C 178.682 373.565, 178.747 370.628, 176 371.500 C 172.972 372.461, 173.482 369.834, 177.294 364.827 C 181.907 358.767, 182.747 357.148, 180.055 359.500 C 178.797 360.600, 176.448 363.413, 174.836 365.750 C 172.133 369.668, 169.364 371.031, 167.629 369.296 C 167.242 368.908, 165.704 368.571, 164.212 368.546 C 160.085 368.476, 160.347 365.309, 164.982 359.230 C 169.309 353.555, 170.144 351.654, 167.104 354.406 C 165.755 355.627, 165.090 355.771, 164.802 354.906 C 164.564 354.191, 162.419 355.611, 159.606 358.345 C 155.771 362.073, 154.124 363, 151.342 363 C 147.177 363, 144.427 361.667, 142.968 358.939 C 141.407 356.023, 142.633 353.322, 146.803 350.488 C 148.817 349.119, 150.014 348, 149.464 348 C 148.914 348, 146.796 349.134, 144.757 350.519 M 150 354.531 C 150 356.260, 152.387 357.497, 153.908 356.557 C 155.472 355.590, 154.004 353, 151.893 353 C 150.852 353, 150 353.689, 150 354.531 M 170.213 355.750 C 170.411 356.712, 171.289 357.380, 172.165 357.234 C 173.064 357.084, 173.989 357.848, 174.287 358.988 C 174.647 360.368, 175.335 360.809, 176.457 360.378 C 178.312 359.666, 178.044 356.359, 176.163 356.759 C 175.493 356.902, 174.684 356.339, 174.365 355.509 C 173.524 353.317, 169.758 353.535, 170.213 355.750 M 356 361 C 356 363.274, 358.508 363.725, 359.324 361.598 C 359.952 359.962, 359.214 359, 357.333 359 C 356.600 359, 356 359.900, 356 361 M 317.537 362.250 C 317.907 363.488, 319.287 366.469, 320.605 368.876 C 323.494 374.154, 323.628 376.593, 321.105 377.944 C 319.139 378.996, 317.880 378.153, 316.713 375 C 316.408 374.175, 316.121 375.300, 316.075 377.500 C 316.030 379.700, 315.094 382.973, 313.996 384.774 C 311.408 389.019, 311.479 389.388, 314.500 387.408 C 316.010 386.419, 317 384.825, 317 383.385 C 317 380.781, 317.956 380.356, 319.758 382.158 C 321.378 383.778, 323.687 381.701, 324.530 377.864 C 325.035 375.565, 324.343 373.131, 321.564 367.433 C 317.999 360.122, 316.216 357.827, 317.537 362.250 M 322.382 363.385 C 323.211 366.688, 330 376.594, 330 374.501 C 330 372.857, 323.193 361, 322.249 361 C 321.993 361, 322.053 362.073, 322.382 363.385 M 351.150 365.628 C 350.980 369.180, 353.414 371.986, 355.155 370.245 C 356.541 368.859, 355.353 366.927, 353.542 367.622 C 352.600 367.984, 352.011 367.241, 351.724 365.329 L 351.300 362.500 351.150 365.628 M 206.723 367.103 C 205.225 368.809, 204 370.384, 204 370.603 C 204 371.274, 209.625 371.042, 210.325 370.342 C 210.687 369.980, 210.486 369.086, 209.879 368.355 C 209.273 367.624, 209.037 366.345, 209.357 365.513 C 210.181 363.366, 209.801 363.595, 206.723 367.103 M 333.667 365.667 C 332.610 366.723, 332.889 370.361, 334.250 373.293 C 335.904 376.855, 337 376.712, 337 372.934 C 337 371.248, 337.466 368.998, 338.035 367.934 C 339.326 365.523, 338.168 365.388, 336.442 367.748 C 335.739 368.710, 334.838 369.171, 334.439 368.773 C 334.041 368.374, 334.284 367.362, 334.980 366.524 C 336.196 365.059, 335.034 364.300, 333.667 365.667 M 281.482 368.630 C 275.673 372.467, 275 373.707, 275 380.569 C 275 384.976, 274.547 387.131, 273.427 388.061 C 272.562 388.779, 270.968 391.102, 269.886 393.223 C 268.804 395.344, 266.812 397.584, 265.459 398.201 C 262.379 399.604, 262.213 401.376, 265.250 400.445 C 268.261 399.522, 270 398.045, 270 396.412 C 270 395.674, 271.460 393.406, 273.245 391.374 C 276.304 387.890, 276.475 387.291, 276.216 380.942 L 275.942 374.207 280.971 371.113 C 283.737 369.411, 286 367.564, 286 367.009 C 286 365.644, 286.008 365.641, 281.482 368.630 M 306.238 371.990 C 305.548 373.096, 304.264 374, 303.385 374 C 302.259 374, 301.996 374.517, 302.495 375.750 C 304.744 381.299, 305.149 383.393, 304.569 386.482 C 303.462 392.384, 296.084 396.217, 292.995 392.494 C 292.307 391.665, 291.361 389.528, 290.892 387.744 C 290.114 384.782, 290.073 384.872, 290.430 388.788 C 291.025 395.331, 293.326 398.181, 297.711 397.807 C 303.381 397.322, 305.491 393.647, 305.538 384.173 C 305.559 379.890, 306.140 375.481, 306.853 374.195 C 308.472 371.270, 307.922 369.294, 306.238 371.990 M 189.037 377.611 C 183.941 383.415, 182.661 388.518, 185.571 391.429 C 190.819 396.676, 205.645 387.208, 201.806 381.061 C 199.972 378.124, 201.335 377.552, 209.445 377.854 C 213.695 378.012, 217.070 377.695, 217.436 377.104 C 217.833 376.461, 216.753 376.183, 214.535 376.357 C 212.591 376.510, 211 376.380, 211 376.068 C 211 375.756, 209.199 375.535, 206.997 375.578 C 200.690 375.701, 195.812 381.412, 199.158 384.758 C 202.045 387.645, 194.694 390.944, 189.846 388.936 C 186.024 387.353, 186.080 383.570, 190.006 378.150 C 193.708 373.039, 193.266 372.794, 189.037 377.611 M 182.223 376.557 C 179.551 378.428, 179.230 381.305, 181.750 380.787 C 182.757 380.580, 183.375 379.700, 183.206 378.714 C 183.008 377.559, 183.578 377, 184.956 377 C 186.080 377, 187 376.550, 187 376 C 187 374.523, 184.753 374.785, 182.223 376.557 M 228.336 378.567 C 227.426 380.939, 229.559 382.611, 231.470 381.025 C 232.654 380.042, 232.754 379.409, 231.890 378.367 C 230.392 376.563, 229.077 376.637, 228.336 378.567 M 279.176 379.224 C 277.620 380.780, 277.692 381.668, 279.427 382.334 C 281.540 383.144, 283.380 380.560, 281.689 379.156 C 280.706 378.341, 280.041 378.359, 279.176 379.224 M 252.910 382.500 C 252.146 385.751, 253.999 397.301, 255.707 399.933 L 257.286 402.366 259.143 400.072 C 261.523 397.133, 261.751 394.132, 259.450 396.042 C 256.935 398.129, 255.255 395.362, 254.263 387.500 C 253.778 383.650, 253.169 381.400, 252.910 382.500 M 245.096 384.250 C 244.626 385.488, 244.075 387.363, 243.871 388.417 C 243.413 390.783, 241 391.764, 241 389.583 C 241 387.098, 238.443 387.732, 237.167 390.534 C 236.224 392.603, 236.286 393.173, 237.506 393.641 C 240.116 394.642, 239.124 396.678, 235.250 398.267 L 231.500 399.806 234.662 399.903 C 237.432 399.988, 238.310 399.287, 241.742 394.250 C 243.897 391.087, 245.950 387.038, 246.305 385.250 C 247.047 381.513, 246.353 380.939, 245.096 384.250 M 295.561 383.701 C 295.249 384.515, 295.247 385.590, 295.556 386.090 C 296.534 387.673, 298.747 387.075, 299.267 385.086 C 299.880 382.742, 296.425 381.450, 295.561 383.701 M 210.221 386.915 C 209.046 388.505, 206.153 390.506, 203.792 391.363 L 199.500 392.921 203.399 392.710 C 206.573 392.539, 207.859 391.804, 210.320 388.755 C 211.982 386.695, 213.121 384.788, 212.850 384.517 C 212.579 384.246, 211.396 385.325, 210.221 386.915 M 216.577 387.194 C 215.193 389.169, 215.196 389.559, 216.603 391.114 C 218.030 392.690, 217.990 392.935, 216.149 393.920 C 215.039 394.514, 213.089 395.036, 211.816 395.079 C 209.741 395.150, 209.806 395.269, 212.445 396.227 C 215.100 397.192, 215.640 397.008, 217.945 394.356 C 221.122 390.700, 225.327 388, 227.842 388 C 228.894 388, 230.280 387.368, 230.921 386.596 C 231.899 385.417, 231.552 385.312, 228.770 385.939 C 226.945 386.351, 224.481 387.207, 223.294 387.843 C 221.451 388.829, 221.041 388.705, 220.500 386.999 C 219.678 384.410, 218.485 384.469, 216.577 387.194 M 282.639 388.687 C 282.203 390.990, 280.730 394.078, 279.367 395.549 C 276.455 398.691, 276.643 399.362, 279.971 397.700 C 282.575 396.400, 284.334 391.515, 283.773 387.144 C 283.492 384.959, 283.295 385.227, 282.639 388.687 M 311.333 393.574 C 311.008 394.422, 310.108 394.872, 309.333 394.574 C 307.631 393.921, 306.338 396.738, 307.710 398.110 C 308.343 398.743, 309.133 398.544, 309.965 397.542 C 310.669 396.694, 312.090 396, 313.122 396 C 315.378 396, 315.634 393.457, 313.462 392.624 C 312.573 392.283, 311.675 392.684, 311.333 393.574 M 220.057 394.431 C 218.525 396.278, 219.594 398.195, 221.935 397.798 C 222.902 397.634, 224.377 398.068, 225.214 398.762 C 226.450 399.788, 226.963 399.750, 227.953 398.556 C 229.469 396.730, 228.334 394.658, 226.254 395.456 C 225.405 395.782, 223.940 395.351, 222.999 394.499 C 221.489 393.133, 221.141 393.125, 220.057 394.431 M 235.224 403.176 C 233.713 404.687, 235.533 407.117, 237.586 406.329 C 238.378 406.025, 239.635 406.282, 240.380 406.900 C 241.402 407.748, 242.034 407.664, 242.953 406.556 C 244.543 404.641, 243.339 402.758, 241 403.500 C 239.993 403.820, 238.879 403.613, 238.525 403.041 C 237.686 401.683, 236.676 401.724, 235.224 403.176 M 255.468 404.866 C 253.857 406.476, 255.330 407.875, 258.350 407.604 C 262.201 407.258, 264.261 406.232, 263.518 405.030 C 262.988 404.171, 256.298 404.035, 255.468 404.866" stroke="none" fill="#f9f9fa" fill-rule="evenodd"/></svg>