<?xml version="1.0" encoding="UTF-8"?>
<!DOCTYPE svg PUBLIC "-//W3C//DTD SVG 1.1//EN" "http://www.w3.org/Graphics/SVG/1.1/DTD/svg11.dtd">
<svg xmlns="http://www.w3.org/2000/svg" version="1.1" width="500px" height="500px" style="shape-rendering:geometricPrecision; text-rendering:geometricPrecision; image-rendering:optimizeQuality; fill-rule:evenodd; clip-rule:evenodd" xmlns:xlink="http://www.w3.org/1999/xlink">
<g><path style="opacity:0.083" fill="#030303" d="M 230.5,47.5 C 317.908,43.2774 384.074,78.2774 429,152.5C 458.298,210.823 461.298,270.49 438,331.5C 404.647,404.155 348.147,445.322 268.5,455C 181.078,459.714 114.912,424.88 70,350.5C 42.6107,297.126 37.944,241.793 56,184.5C 82.2471,114.252 131.747,70.0853 204.5,52C 213.269,50.2516 221.935,48.7516 230.5,47.5 Z"/></g>
<g><path style="opacity:1" fill="#fcfcfd" d="M 229.5,49.5 C 306.449,45.0675 367.949,73.4008 414,134.5C 453.189,194.536 460.189,258.203 435,325.5C 402.479,397.371 346.979,438.538 268.5,449C 182.943,453.313 118.109,419.146 74,346.5C 45.4453,291.138 41.7787,234.138 63,175.5C 87.5133,117.32 129.68,78.1531 189.5,58C 202.764,54.1843 216.097,51.351 229.5,49.5 Z"/></g>
<g><path style="opacity:1" fill="#2a186e" d="M 248.5,90.5 C 250.722,90.178 252.556,90.8446 254,92.5C 256.069,98.2057 258.235,103.872 260.5,109.5C 258.124,110.817 256.457,110.15 255.5,107.5C 252.232,106.513 248.898,106.18 245.5,106.5C 245.499,110.252 243.833,111.252 240.5,109.5C 243.455,103.26 246.122,96.9271 248.5,90.5 Z"/></g>
<g><path style="opacity:1" fill="#eeecf3" d="M 249.5,96.5 C 251.513,97.4752 252.846,99.1419 253.5,101.5C 251.579,102.641 249.579,102.808 247.5,102C 248.861,100.416 249.528,98.5824 249.5,96.5 Z"/></g>
<g><path style="opacity:1" fill="#27146c" d="M 202.5,97.5 C 209.772,99.0402 211.105,102.707 206.5,108.5C 209.553,110.022 212.22,112.022 214.5,114.5C 212.926,115.631 211.259,115.798 209.5,115C 206.772,112.135 203.438,110.635 199.5,110.5C 199.462,113.181 200.129,115.681 201.5,118C 200.902,119.301 199.902,120.135 198.5,120.5C 196.169,114.51 193.836,108.51 191.5,102.5C 194.921,100.251 198.587,98.5839 202.5,97.5 Z"/></g>
<g><path style="opacity:1" fill="#26136c" d="M 299.5,98.5 C 301.017,98.5106 302.184,99.1772 303,100.5C 303.978,105.223 305.144,109.89 306.5,114.5C 308.026,111.256 309.36,107.923 310.5,104.5C 311.689,103.571 313.022,103.238 314.5,103.5C 312.632,109.576 310.466,115.576 308,121.5C 306.667,122.833 305.333,122.833 304,121.5C 303.063,116.763 301.896,112.096 300.5,107.5C 298.667,111.167 296.833,114.833 295,118.5C 294.075,117.953 293.242,117.287 292.5,116.5C 294.841,110.471 297.175,104.471 299.5,98.5 Z"/></g>
<g><path style="opacity:1" fill="#e4e1ed" d="M 199.5,101.5 C 201.199,101.34 202.866,101.506 204.5,102C 205.833,103.333 205.833,104.667 204.5,106C 202.541,106.931 200.541,107.764 198.5,108.5C 197.232,106.696 196.565,104.696 196.5,102.5C 197.791,102.737 198.791,102.404 199.5,101.5 Z"/></g>
<g><path style="opacity:1" fill="#25136b" d="M 235.5,91.5 C 236.978,91.238 238.311,91.5713 239.5,92.5C 238,95.5 236.5,98.5 235,101.5C 234.259,104.562 234.425,107.562 235.5,110.5C 234.311,111.429 232.978,111.762 231.5,111.5C 231.322,108.784 230.822,106.117 230,103.5C 227.354,100.02 224.521,96.6865 221.5,93.5C 223.074,92.3691 224.741,92.2025 226.5,93C 227.977,95.4449 229.81,97.6116 232,99.5C 233.456,96.9244 234.623,94.2577 235.5,91.5 Z"/></g>
<g><path style="opacity:1" fill="#29166e" d="M 213.5,94.5 C 214.833,94.5 216.167,94.5 217.5,94.5C 218.595,100.046 219.928,105.546 221.5,111C 221.576,113.756 220.243,114.923 217.5,114.5C 216.483,107.767 215.15,101.101 213.5,94.5 Z"/></g>
<g><path style="opacity:1" fill="#2a176e" d="M 177.5,107.5 C 183.749,111.737 189.749,116.403 195.5,121.5C 192.549,124.195 189.882,123.862 187.5,120.5C 185.5,121.5 183.5,122.5 181.5,123.5C 180.253,125.006 180.253,126.506 181.5,128C 180.421,128.956 179.255,129.789 178,130.5C 176.586,125.122 175.753,119.622 175.5,114C 175.658,111.551 176.325,109.384 177.5,107.5 Z"/></g>
<g><path style="opacity:1" fill="#2b186f" d="M 276.5,92.5 C 277.5,92.5 278.5,92.5 279.5,92.5C 278.997,96.8498 278.33,101.183 277.5,105.5C 277.55,110.378 279.883,111.712 284.5,109.5C 285.919,104.914 286.919,100.247 287.5,95.5C 288.833,95.5 290.167,95.5 291.5,95.5C 291.067,100.973 289.9,106.306 288,111.5C 283.404,115.432 278.737,115.432 274,111.5C 273.125,110.127 272.625,108.627 272.5,107C 273.763,102.112 275.096,97.2791 276.5,92.5 Z"/></g>
<g><path style="opacity:1" fill="#25126b" d="M 320.5,107.5 C 322.703,108.052 323.536,109.385 323,111.5C 320.299,116.041 317.799,120.708 315.5,125.5C 313.796,126.823 312.463,126.49 311.5,124.5C 314.767,118.965 317.767,113.298 320.5,107.5 Z"/></g>
<g><path style="opacity:1" fill="#e3e0ec" d="M 179.5,113.5 C 181.441,114.436 183.108,115.77 184.5,117.5C 183.564,118.974 182.23,119.974 180.5,120.5C 179.526,118.257 179.192,115.924 179.5,113.5 Z"/></g>
<g><path style="opacity:1" fill="#29166d" d="M 327.5,111.5 C 329.311,111.572 330.644,112.405 331.5,114C 330.161,118.362 328.828,122.695 327.5,127C 328.908,127.315 330.241,126.982 331.5,126C 333.647,123.763 335.98,121.763 338.5,120C 340.403,119.226 342.07,119.56 343.5,121C 337.934,125.569 332.101,129.736 326,133.5C 324.566,133.07 323.399,132.236 322.5,131C 324.241,124.536 325.908,118.036 327.5,111.5 Z"/></g>
<g><path style="opacity:1" fill="#28156d" d="M 162.5,116.5 C 163.586,116.62 164.253,117.287 164.5,118.5C 163.379,121.196 163.379,123.863 164.5,126.5C 168.672,127.779 172.672,129.445 176.5,131.5C 175.167,132.5 173.833,133.5 172.5,134.5C 169.36,132.594 166.027,131.26 162.5,130.5C 161.875,133.97 162.875,136.804 165.5,139C 164.646,140.022 163.646,140.855 162.5,141.5C 158.147,136.473 154.147,131.14 150.5,125.5C 151.328,124.585 152.328,123.919 153.5,123.5C 155.156,125.46 156.823,127.46 158.5,129.5C 159.34,124.924 160.673,120.591 162.5,116.5 Z"/></g>
<g><path style="opacity:1" fill="#27156d" d="M 138.5,135.5 C 145.63,137.767 152.63,140.433 159.5,143.5C 157.84,147.079 155.673,147.412 153,144.5C 151.333,146.167 149.667,147.833 148,149.5C 149.26,152.633 148.593,155.3 146,157.5C 143.06,151.954 140.394,146.287 138,140.5C 137.36,138.735 137.527,137.068 138.5,135.5 Z"/></g>
<g><path style="opacity:1" fill="#27156c" d="M 347.5,124.5 C 351.625,127.453 355.625,130.619 359.5,134C 358.407,135.365 357.074,135.699 355.5,135C 353.241,133.285 351.074,131.452 349,129.5C 347.978,130.354 347.145,131.354 346.5,132.5C 348.5,135.167 350.833,137.5 353.5,139.5C 353.167,140.5 352.5,141.167 351.5,141.5C 348.736,140.239 346.403,138.405 344.5,136C 343.668,135.312 343.002,135.479 342.5,136.5C 341.167,137.62 340.667,138.953 341,140.5C 343.205,143.04 345.705,145.207 348.5,147C 347.667,147.833 346.833,148.667 346,149.5C 342.019,146.353 338.186,143.02 334.5,139.5C 339.077,134.655 343.411,129.655 347.5,124.5 Z"/></g>
<g><path style="opacity:1" fill="#eeedf4" d="M 142.5,140.5 C 145.402,140.823 147.235,142.156 148,144.5C 147.311,145.357 146.478,146.023 145.5,146.5C 143.585,144.929 142.585,142.929 142.5,140.5 Z"/></g>
<g><path style="opacity:1" fill="#27156c" d="M 363.5,139.5 C 366.41,141.239 368.91,143.572 371,146.5C 373.714,153.949 371.214,156.949 363.5,155.5C 362.711,158.905 361.711,162.239 360.5,165.5C 359.5,164.167 358.5,162.833 357.5,161.5C 358.921,157.972 359.588,154.306 359.5,150.5C 356.619,151.274 353.952,152.607 351.5,154.5C 350.354,153.855 349.354,153.022 348.5,152C 353.571,147.815 358.571,143.648 363.5,139.5 Z"/></g>
<g><path style="opacity:1" fill="#f0eff5" d="M 363.5,144.5 C 365.624,145.031 367.124,146.365 368,148.5C 368.49,149.793 368.657,151.127 368.5,152.5C 365.215,152.731 362.715,151.397 361,148.5C 361.193,146.918 362.026,145.584 363.5,144.5 Z"/></g>
<g><path style="opacity:1" fill="#24136a" d="M 128.5,147.5 C 130.017,147.511 131.184,148.177 132,149.5C 132.656,154.813 134.156,159.813 136.5,164.5C 138.506,161.995 140.672,159.662 143,157.5C 144.059,157.63 144.892,158.13 145.5,159C 142.299,163.197 138.799,167.03 135,170.5C 134.228,170.355 133.561,170.022 133,169.5C 131.561,164.134 130.061,158.801 128.5,153.5C 126.493,155.008 124.826,156.842 123.5,159C 122.552,159.483 121.552,159.649 120.5,159.5C 122.147,154.887 124.814,150.887 128.5,147.5 Z"/></g>
<g><path style="opacity:1" fill="#28166e" d="M 249.5,139.5 C 253.345,145.217 254.845,151.551 254,158.5C 251.093,160.808 250.759,163.475 253,166.5C 259.548,172.524 266.715,177.691 274.5,182C 262.474,178.797 250.141,177.797 237.5,179C 233.715,179.373 230.215,180.539 227,182.5C 226.312,181.668 226.479,181.002 227.5,180.5C 235.315,176.852 242.149,171.852 248,165.5C 248.667,163.833 248.667,162.167 248,160.5C 246.128,158.562 245.295,156.229 245.5,153.5C 246.828,148.84 248.162,144.173 249.5,139.5 Z"/></g>
<g><path style="opacity:1" fill="#2a186e" d="M 374.5,159.5 C 380.377,159.035 384.044,161.701 385.5,167.5C 384.829,172.614 383.162,173.28 380.5,169.5C 381.996,165.487 380.662,163.154 376.5,162.5C 376.538,165.951 377.205,169.284 378.5,172.5C 378.124,176.21 376.124,178.21 372.5,178.5C 367.209,177.876 364.209,174.876 363.5,169.5C 363.745,167.337 364.745,165.67 366.5,164.5C 368.791,165.896 369.125,167.729 367.5,170C 368.152,174.192 370.319,175.359 374,173.5C 373.543,170.753 373.043,167.92 372.5,165C 372.395,162.822 373.061,160.988 374.5,159.5 Z"/></g>
<g><path style="opacity:1" fill="#2e1b71" d="M 110.5,172.5 C 117.271,174.72 123.604,177.72 129.5,181.5C 129.038,183.291 127.871,184.291 126,184.5C 121.808,185.003 117.641,185.669 113.5,186.5C 117.318,188.242 120.984,190.242 124.5,192.5C 124.113,193.72 123.28,194.387 122,194.5C 116.191,192.009 110.358,189.676 104.5,187.5C 104.297,185.61 104.963,184.11 106.5,183C 111.167,182.333 115.833,181.667 120.5,181C 117.198,179.349 113.864,177.682 110.5,176C 109.829,175.014 109.829,173.847 110.5,172.5 Z"/></g>
<g><path style="opacity:1" fill="#200e69" d="M 388.5,175.5 C 390.912,175.694 391.912,177.027 391.5,179.5C 385.386,181.473 379.552,184.139 374,187.5C 372.422,186.289 372.255,184.955 373.5,183.5C 378.72,181.059 383.72,178.392 388.5,175.5 Z"/></g>
<g><path style="opacity:1" fill="#28166e" d="M 237.5,188.5 C 244.175,188.334 250.842,188.5 257.5,189C 257.957,189.414 258.291,189.914 258.5,190.5C 256.731,192.557 254.731,194.39 252.5,196C 244.317,196.355 236.317,197.689 228.5,200C 224.531,203.47 225.198,206.137 230.5,208C 235.087,210.918 239.92,212.084 245,211.5C 245.222,206.053 247.722,202.053 252.5,199.5C 253.086,199.709 253.586,200.043 254,200.5C 254.667,203.5 254.667,206.5 254,209.5C 249.748,214.623 244.414,217.956 238,219.5C 234.123,218.146 230.29,216.646 226.5,215C 223.5,214.333 220.5,214.333 217.5,215C 216.446,216.388 216.28,217.888 217,219.5C 223.549,221.865 224.049,225.032 218.5,229C 210.749,229.434 203.082,230.1 195.5,231C 193.984,229.103 193.317,226.936 193.5,224.5C 199.521,225.035 205.187,223.868 210.5,221C 212.345,217.145 215.012,213.978 218.5,211.5C 219.252,203.059 222.918,196.226 229.5,191C 232.251,190.057 234.917,189.224 237.5,188.5 Z"/></g>
<g><path style="opacity:1" fill="#26146c" d="M 392.5,182.5 C 395.478,186.548 397.811,191.048 399.5,196C 399.387,197.28 398.72,198.113 397.5,198.5C 396.05,197.15 395.383,195.484 395.5,193.5C 390.203,194.654 385.037,196.321 380,198.5C 378.72,198.387 377.887,197.72 377.5,196.5C 381.711,193.564 386.377,191.397 391.5,190C 391.73,187.502 392.063,185.002 392.5,182.5 Z"/></g>
<g><path style="opacity:1" fill="#27156e" d="M 226.5,323.5 C 208.007,324.497 189.341,324.83 170.5,324.5C 149.085,309.178 137.085,288.345 134.5,262C 136.336,243.157 144.67,227.824 159.5,216C 176.337,203.578 194.67,193.745 214.5,186.5C 215.696,186.846 215.696,187.346 214.5,188C 177.658,210.554 167.158,242.054 183,282.5C 192.851,301.187 207.351,314.854 226.5,323.5 Z"/></g>
<g><path style="opacity:1" fill="#26146c" d="M 261.5,191.5 C 262.496,191.414 263.329,191.748 264,192.5C 264.792,194.587 265.959,196.421 267.5,198C 265.323,199.515 263.156,201.015 261,202.5C 259.012,201.181 257.845,199.347 257.5,197C 258.55,194.971 259.884,193.137 261.5,191.5 Z"/></g>
<g><path style="opacity:1" fill="#27156e" d="M 329.5,324.5 C 310.326,324.83 291.326,324.497 272.5,323.5C 301.671,311.481 318.837,289.814 324,258.5C 325.937,227.37 313.437,204.037 286.5,188.5C 285.479,187.998 285.312,187.332 286,186.5C 305.588,193.875 323.755,203.708 340.5,216C 371.039,244.096 373.539,274.596 348,307.5C 342.895,314.444 336.728,320.11 329.5,324.5 Z"/></g>
<g><path style="opacity:1" fill="#2a176f" d="M 101.5,192.5 C 108.466,194.044 115.133,196.377 121.5,199.5C 121.081,200.672 120.415,201.672 119.5,202.5C 114.204,200.568 108.871,198.735 103.5,197C 101.893,195.951 101.227,194.451 101.5,192.5 Z"/></g>
<g><path style="opacity:1" fill="#27156d" d="M 211.5,201.5 C 217.523,201.943 219.023,204.943 216,210.5C 211.397,215.922 205.564,218.422 198.5,218C 197.549,217.282 197.383,216.449 198,215.5C 199.353,214.315 200.52,212.981 201.5,211.5C 203.5,210.833 205.5,210.167 207.5,209.5C 208.424,206.591 209.757,203.924 211.5,201.5 Z"/></g>
<g><path style="opacity:1" fill="#28166d" d="M 235.5,200.5 C 238.898,200.18 242.232,200.513 245.5,201.5C 244.636,203.197 243.303,204.363 241.5,205C 238.854,205.497 236.187,205.664 233.5,205.5C 233.392,203.486 234.058,201.82 235.5,200.5 Z"/></g>
<g><path style="opacity:1" fill="#29166e" d="M 303.5,221.5 C 294.494,221.334 285.494,221.5 276.5,222C 275.584,222.278 274.918,222.778 274.5,223.5C 264.276,226.306 253.942,228.639 243.5,230.5C 235.206,230.353 228.539,227.02 223.5,220.5C 223.833,220.167 224.167,219.833 224.5,219.5C 228.294,222.543 232.628,224.21 237.5,224.5C 246.746,223.04 255.746,220.706 264.5,217.5C 260.808,216.748 257.142,215.914 253.5,215C 258.333,207.5 264.5,201.333 272,196.5C 272.946,198.788 274.113,200.955 275.5,203C 277.443,202.695 279.443,202.695 281.5,203C 282.337,204.011 282.67,205.178 282.5,206.5C 285.285,206.067 287.619,204.734 289.5,202.5C 291.283,203.348 291.783,204.681 291,206.5C 286.018,212.56 280.518,213.06 274.5,208C 270.833,207.333 267.167,207.333 263.5,208C 268.887,210.461 274.554,212.127 280.5,213C 286.833,213.333 293.167,213.667 299.5,214C 302.024,215.883 303.358,218.383 303.5,221.5 Z"/></g>
<g><path style="opacity:1" fill="#29166e" d="M 100.5,203.5 C 115.142,201.794 120.142,207.794 115.5,221.5C 108.833,220.867 102.333,219.533 96,217.5C 95.6827,212.257 97.1827,207.59 100.5,203.5 Z"/></g>
<g><path style="opacity:1" fill="#f2f1f6" d="M 102.5,207.5 C 105.941,207.301 109.274,207.801 112.5,209C 113.444,211.719 113.777,214.552 113.5,217.5C 109.204,216.57 104.87,215.737 100.5,215C 99.057,211.939 99.7236,209.439 102.5,207.5 Z"/></g>
<g><path style="opacity:1" fill="#2b186f" d="M 400.5,201.5 C 401.391,202.261 402.058,203.261 402.5,204.5C 400.5,207.167 398.167,209.5 395.5,211.5C 397.925,213.145 400.592,214.311 403.5,215C 405.014,216.439 405.347,217.939 404.5,219.5C 397.736,216.005 390.736,214.671 383.5,215.5C 382.41,214.391 382.41,213.391 383.5,212.5C 390.979,211.697 396.646,208.03 400.5,201.5 Z"/></g>
<g><path style="opacity:1" fill="#a79fc4" d="M 303.5,221.5 C 295.167,222.167 286.833,222.833 278.5,223.5C 277.391,223.557 276.391,223.89 275.5,224.5C 275.5,223.833 275.167,223.5 274.5,223.5C 274.918,222.778 275.584,222.278 276.5,222C 285.494,221.5 294.494,221.334 303.5,221.5 Z"/></g>
<g><path style="opacity:1" fill="#1c0c65" d="M 278.5,223.5 C 281.578,224.664 281.912,226.164 279.5,228C 277.094,228.779 275.427,227.946 274.5,225.5C 274.624,224.893 274.957,224.56 275.5,224.5C 276.391,223.89 277.391,223.557 278.5,223.5 Z"/></g>
<g><path style="opacity:1" fill="#2a186f" d="M 295.5,224.5 C 297.467,232.097 298.134,240.097 297.5,248.5C 298.552,248.649 299.552,248.483 300.5,248C 301.155,246.513 302.155,245.347 303.5,244.5C 310.002,245.487 312.836,249.153 312,255.5C 311.097,256.701 309.931,257.535 308.5,258C 302.916,258.806 297.416,258.639 292,257.5C 291.138,255.913 290.471,254.246 290,252.5C 289.333,245.167 289.333,237.833 290,230.5C 292.04,228.63 293.873,226.63 295.5,224.5 Z"/></g>
<g><path style="opacity:1" fill="#25136b" d="M 304.5,225.5 C 309.388,229.186 310.554,233.853 308,239.5C 304.839,235.21 303.672,230.543 304.5,225.5 Z"/></g>
<g><path style="opacity:1" fill="#2a186e" d="M 231.5,235.5 C 227.775,234.443 224.108,234.443 220.5,235.5C 219.522,235.189 218.855,234.522 218.5,233.5C 220.256,229.35 222.756,228.684 226,231.5C 229.202,229.758 231.702,230.425 233.5,233.5C 233.145,234.522 232.478,235.189 231.5,235.5 Z"/></g>
<g><path style="opacity:1" fill="#2e1c71" d="M 268.5,257.5 C 267.833,257.5 267.167,257.5 266.5,257.5C 266.334,249.826 266.5,242.159 267,234.5C 268.684,232.649 270.517,230.982 272.5,229.5C 273.664,236.476 273.831,243.476 273,250.5C 271.988,253.202 270.488,255.535 268.5,257.5 Z"/></g>
<g><path style="opacity:1" fill="#2a186f" d="M 220.5,237.5 C 227.354,237.824 234.021,237.491 240.5,236.5C 244.834,232.605 249.001,232.939 253,237.5C 253.571,241.615 251.737,244.115 247.5,245C 233.167,245.667 218.833,245.667 204.5,245C 202.259,243.261 200.592,241.094 199.5,238.5C 206.468,237.503 213.468,237.17 220.5,237.5 Z"/></g>
<g><path style="opacity:1" fill="#c7c2d9" d="M 231.5,235.5 C 234.287,236.477 237.287,236.81 240.5,236.5C 234.021,237.491 227.354,237.824 220.5,237.5C 220.5,236.833 220.5,236.167 220.5,235.5C 224.108,234.443 227.775,234.443 231.5,235.5 Z"/></g>
<g><path style="opacity:1" fill="#a29ac0" d="M 386.5,236.5 C 391.179,236.334 395.845,236.501 400.5,237C 399.756,238.039 398.756,238.539 397.5,238.5C 393.833,237.833 390.167,237.167 386.5,236.5 Z"/></g>
<g><path style="opacity:1" fill="#2b186f" d="M 193.5,233.5 C 194.376,233.369 195.043,233.702 195.5,234.5C 194.696,242.785 194.196,251.118 194,259.5C 192.985,262.21 191.485,264.543 189.5,266.5C 188.004,257.869 187.17,249.202 187,240.5C 189.372,238.297 191.539,235.963 193.5,233.5 Z"/></g>
<g><path style="opacity:1" fill="#2c1970" d="M 98.5,224.5 C 112.092,223.433 116.759,229.433 112.5,242.5C 105.892,241.538 99.2257,241.205 92.5,241.5C 92.3436,237.418 92.8436,233.418 94,229.5C 95.1932,227.503 96.6932,225.836 98.5,224.5 Z"/></g>
<g><path style="opacity:1" fill="#f4f3f7" d="M 99.5,228.5 C 103.459,228.071 106.959,229.071 110,231.5C 110.495,233.473 110.662,235.473 110.5,237.5C 105.833,237.5 101.167,237.5 96.5,237.5C 95.9238,233.888 96.9238,230.888 99.5,228.5 Z"/></g>
<g><path style="opacity:1" fill="#29166e" d="M 387.5,249.5 C 392.214,249.827 396.88,249.493 401.5,248.5C 401.043,247.702 400.376,247.369 399.5,247.5C 395.124,247.091 390.79,246.425 386.5,245.5C 386.286,243.856 386.62,242.356 387.5,241C 390.768,239.85 394.101,239.016 397.5,238.5C 398.756,238.539 399.756,238.039 400.5,237C 395.845,236.501 391.179,236.334 386.5,236.5C 386.5,235.5 386.5,234.5 386.5,233.5C 393.5,233.5 400.5,233.5 407.5,233.5C 407.739,235.467 407.406,237.301 406.5,239C 390.696,241.785 390.696,244.119 406.5,246C 407.423,248.041 407.756,250.208 407.5,252.5C 400.5,252.5 393.5,252.5 386.5,252.5C 386.263,251.209 386.596,250.209 387.5,249.5 Z"/></g>
<g><path style="opacity:1" fill="#28166e" d="M 243.5,256.5 C 241.453,256.489 239.453,256.156 237.5,255.5C 235.682,256.636 233.682,257.303 231.5,257.5C 229.124,256.774 227.124,255.441 225.5,253.5C 223.717,254.348 223.217,255.681 224,257.5C 226.445,258.977 228.612,260.81 230.5,263C 228.833,264.667 227.167,266.333 225.5,268C 223.735,268.64 222.068,268.473 220.5,267.5C 218.074,265.782 215.407,265.282 212.5,266C 210.273,271.061 206.607,274.561 201.5,276.5C 197.469,275.152 194.136,272.819 191.5,269.5C 196.846,269.033 202.012,268.033 207,266.5C 207.617,265.551 207.451,264.718 206.5,264C 204.899,263.727 203.399,263.227 202,262.5C 199.446,245.966 203.279,243.799 213.5,256C 215.167,256.667 216.833,256.667 218.5,256C 221.724,252.273 225.391,249.106 229.5,246.5C 233.294,250.446 237.128,250.446 241,246.5C 244.376,250.301 247.876,250.301 251.5,246.5C 252.833,247.5 254.167,248.5 255.5,249.5C 256.328,244.868 256.828,240.202 257,235.5C 259.046,233.624 260.879,231.624 262.5,229.5C 263.664,235.807 263.831,242.141 263,248.5C 260.408,251.762 257.241,254.262 253.5,256C 250.83,256.543 248.33,256.043 246,254.5C 244.699,254.639 243.866,255.305 243.5,256.5 Z"/></g>
<g><path style="opacity:1" fill="#8f86b4" d="M 399.5,247.5 C 400.376,247.369 401.043,247.702 401.5,248.5C 396.88,249.493 392.214,249.827 387.5,249.5C 391.5,248.833 395.5,248.167 399.5,247.5 Z"/></g>
<g><path style="opacity:1" fill="#efeef4" d="M 243.5,256.5 C 250.982,257.492 258.648,257.825 266.5,257.5C 267.167,257.5 267.833,257.5 268.5,257.5C 271.167,257.5 273.833,257.5 276.5,257.5C 262.661,258.167 248.661,258.833 234.5,259.5C 236.215,261.874 238.215,264.04 240.5,266C 252.213,266.791 263.879,266.624 275.5,265.5C 275.5,266.167 275.5,266.833 275.5,267.5C 270.759,267.161 269.426,269.161 271.5,273.5C 275.844,275.588 277.844,274.255 277.5,269.5C 278.167,269.833 278.833,270.167 279.5,270.5C 278.311,279.204 278.645,287.871 280.5,296.5C 279.833,297.167 279.167,297.833 278.5,298.5C 278.736,295.774 277.903,293.441 276,291.5C 275.667,287.833 275.333,284.167 275,280.5C 271.068,273.546 268.568,274.046 267.5,282C 267.244,285.431 268.577,287.931 271.5,289.5C 272.233,293.174 272.899,296.841 273.5,300.5C 273.291,301.086 272.957,301.586 272.5,302C 270.122,302.511 267.788,303.178 265.5,304C 256.506,304.5 247.506,304.666 238.5,304.5C 238.5,304.167 238.5,303.833 238.5,303.5C 241.649,303.789 244.649,303.289 247.5,302C 250,299.5 252.5,297 255,294.5C 255.832,286.147 255.665,277.813 254.5,269.5C 252.517,270.982 250.684,272.649 249,274.5C 248.831,281.524 248.331,288.524 247.5,295.5C 246.15,296.95 244.484,297.617 242.5,297.5C 242.608,295.217 243.441,293.217 245,291.5C 247.23,283.033 245.063,276.033 238.5,270.5C 236.453,272.55 234.786,274.883 233.5,277.5C 233.167,277.5 232.833,277.5 232.5,277.5C 234.95,266.142 232.45,264.809 225,273.5C 224.243,275.315 223.41,276.981 222.5,278.5C 222.672,277.508 222.338,276.842 221.5,276.5C 224.609,272.502 223.609,270.169 218.5,269.5C 219.167,268.833 219.833,268.167 220.5,267.5C 222.068,268.473 223.735,268.64 225.5,268C 227.167,266.333 228.833,264.667 230.5,263C 228.612,260.81 226.445,258.977 224,257.5C 223.217,255.681 223.717,254.348 225.5,253.5C 227.124,255.441 229.124,256.774 231.5,257.5C 233.682,257.303 235.682,256.636 237.5,255.5C 239.453,256.156 241.453,256.489 243.5,256.5 Z"/></g>
<g><path style="opacity:1" fill="#27156e" d="M 275.5,265.5 C 263.879,266.624 252.213,266.791 240.5,266C 238.215,264.04 236.215,261.874 234.5,259.5C 248.661,258.833 262.661,258.167 276.5,257.5C 279.352,257.648 281.019,256.314 281.5,253.5C 280.833,251.5 280.167,249.5 279.5,247.5C 280.223,245.218 280.557,242.884 280.5,240.5C 279.167,240.5 277.833,240.5 276.5,240.5C 276.335,237.482 276.502,234.482 277,231.5C 279.632,228.808 281.966,229.141 284,232.5C 283.827,238.213 284.994,243.546 287.5,248.5C 285.703,255.773 281.703,261.44 275.5,265.5 Z"/></g>
<g><path style="opacity:1" fill="#2a176f" d="M 96.5,247.5 C 101.628,247.112 106.628,247.612 111.5,249C 112,249.5 112.5,250 113,250.5C 113.667,253.833 113.667,257.167 113,260.5C 111.829,261.893 110.329,262.727 108.5,263C 103.492,263.501 98.4918,264.001 93.5,264.5C 93.5,263.167 93.5,261.833 93.5,260.5C 98.4918,260.001 103.492,259.501 108.5,259C 111.167,256.667 111.167,254.333 108.5,252C 103.446,251.219 98.4456,251.386 93.5,252.5C 92.5713,251.311 92.238,249.978 92.5,248.5C 94.099,248.768 95.4324,248.434 96.5,247.5 Z"/></g>
<g><path style="opacity:1" fill="#29166e" d="M 302.5,259.5 C 306.338,259.007 308.338,260.674 308.5,264.5C 307.902,270.893 306.069,276.893 303,282.5C 302.196,283.804 301.029,284.471 299.5,284.5C 293.513,282.456 290.513,278.456 290.5,272.5C 294.572,275.718 298.905,276.218 303.5,274C 300.239,273.574 298.572,271.741 298.5,268.5C 299.03,265.11 300.363,262.11 302.5,259.5 Z"/></g>
<g><path style="opacity:1" fill="#312073" d="M 290.5,260.5 C 291.748,261.334 292.415,262.667 292.5,264.5C 292.779,267.006 291.946,269.006 290,270.5C 287.947,267.045 288.113,263.712 290.5,260.5 Z"/></g>
<g><path style="opacity:1" fill="#2c1a70" d="M 280.5,296.5 C 278.645,287.871 278.311,279.204 279.5,270.5C 281.023,267.636 283.357,265.969 286.5,265.5C 286.169,272.863 286.503,280.197 287.5,287.5C 288.833,286.5 290.167,285.5 291.5,284.5C 292.086,284.709 292.586,285.043 293,285.5C 295.378,296.965 291.211,300.631 280.5,296.5 Z"/></g>
<g><path style="opacity:1" fill="#28166e" d="M 232.5,277.5 C 229.917,285.258 224.583,288.758 216.5,288C 215.534,286.322 214.201,285.655 212.5,286C 211.478,288.545 210.312,291.045 209,293.5C 208.439,294.022 207.772,294.355 207,294.5C 203.845,291.564 200.678,288.564 197.5,285.5C 196.319,283.802 196.319,282.135 197.5,280.5C 199.968,281.803 202.301,283.303 204.5,285C 205.833,285.667 207.167,285.667 208.5,285C 209.698,280.639 211.364,276.472 213.5,272.5C 215.288,274.791 217.288,276.957 219.5,279C 220.749,279.74 221.749,279.573 222.5,278.5C 223.41,276.981 224.243,275.315 225,273.5C 232.45,264.809 234.95,266.142 232.5,277.5 Z"/></g>
<g><path style="opacity:1" fill="#2e1b70" d="M 275.5,267.5 C 276.5,267.833 277.167,268.5 277.5,269.5C 277.844,274.255 275.844,275.588 271.5,273.5C 269.426,269.161 270.759,267.161 275.5,267.5 Z"/></g>
<g><path style="opacity:1" fill="#2a176f" d="M 112.5,265.5 C 114.121,265.787 115.121,266.787 115.5,268.5C 113.619,269.762 112.286,271.429 111.5,273.5C 112,275.5 112.5,277.5 113,279.5C 114.399,280.227 115.899,280.727 117.5,281C 118.337,282.011 118.67,283.178 118.5,284.5C 111.183,283.354 103.85,282.354 96.5,281.5C 96.3398,279.801 96.5065,278.134 97,276.5C 102.497,273.18 107.664,269.513 112.5,265.5 Z"/></g>
<g><path style="opacity:1" fill="#2f1c71" d="M 388.5,258.5 C 394.529,258.425 400.529,258.759 406.5,259.5C 406.5,260.833 406.5,262.167 406.5,263.5C 400.862,262.541 395.195,262.374 389.5,263C 388.018,265.592 388.352,267.925 390.5,270C 395.481,270.748 400.481,271.248 405.5,271.5C 405.845,274.488 404.512,275.821 401.5,275.5C 396.764,274.992 392.097,274.159 387.5,273C 383.378,267.888 383.711,263.055 388.5,258.5 Z"/></g>
<g><path style="opacity:1" fill="#1d0c66" d="M 218.5,269.5 C 223.609,270.169 224.609,272.502 221.5,276.5C 216.873,275.307 215.873,272.974 218.5,269.5 Z"/></g>
<g><path style="opacity:1" fill="#2f1c71" d="M 264.5,268.5 C 266.983,278.111 266.816,287.778 264,297.5C 263.059,299.061 261.892,300.395 260.5,301.5C 259.914,301.291 259.414,300.957 259,300.5C 258.333,291.833 258.333,283.167 259,274.5C 261.04,272.63 262.873,270.63 264.5,268.5 Z"/></g>
<g><path style="opacity:1" fill="#e0ddea" d="M 106.5,274.5 C 108.185,275.184 109.185,276.517 109.5,278.5C 106.861,279.356 104.194,279.19 101.5,278C 103.233,276.811 104.9,275.644 106.5,274.5 Z"/></g>
<g><path style="opacity:1" fill="#29166e" d="M 382.5,277.5 C 388.482,278.995 394.482,280.495 400.5,282C 403.064,283.481 403.064,284.981 400.5,286.5C 395.403,284.226 390.069,282.892 384.5,282.5C 384.067,285.166 383.567,287.832 383,290.5C 381.989,291.337 380.822,291.67 379.5,291.5C 380.185,286.761 381.185,282.095 382.5,277.5 Z"/></g>
<g><path style="opacity:1" fill="#2d1a70" d="M 231.5,285.5 C 238.425,284.572 240.259,287.239 237,293.5C 234.595,294.274 232.095,294.774 229.5,295C 226.797,298.038 223.797,300.705 220.5,303C 219.101,303.595 217.768,303.428 216.5,302.5C 210.276,295.536 211.609,292.703 220.5,294C 224.235,291.147 227.902,288.313 231.5,285.5 Z"/></g>
<g><path style="opacity:1" fill="#29166e" d="M 116.5,287.5 C 119.5,287.167 120.833,288.5 120.5,291.5C 117.525,291.713 114.858,292.713 112.5,294.5C 113.577,296.912 114.744,299.246 116,301.5C 118.152,300.115 120.485,299.115 123,298.5C 124.301,299.098 125.135,300.098 125.5,301.5C 119.662,304.224 113.662,306.558 107.5,308.5C 106.09,308.132 105.09,307.299 104.5,306C 106.569,304.477 108.903,303.643 111.5,303.5C 112.116,295.764 109.116,293.764 102.5,297.5C 100.889,296.68 100.222,295.346 100.5,293.5C 106.129,292.071 111.463,290.071 116.5,287.5 Z"/></g>
<g><path style="opacity:1" fill="#2a186f" d="M 238.5,303.5 C 234.864,303.181 231.531,302.015 228.5,300C 230.623,298.806 232.957,298.14 235.5,298C 237.729,295.281 239.729,292.447 241.5,289.5C 239.209,285.217 236.543,281.217 233.5,277.5C 234.786,274.883 236.453,272.55 238.5,270.5C 245.063,276.033 247.23,283.033 245,291.5C 243.441,293.217 242.608,295.217 242.5,297.5C 244.484,297.617 246.15,296.95 247.5,295.5C 248.331,288.524 248.831,281.524 249,274.5C 250.684,272.649 252.517,270.982 254.5,269.5C 255.665,277.813 255.832,286.147 255,294.5C 252.5,297 250,299.5 247.5,302C 244.649,303.289 241.649,303.789 238.5,303.5 Z"/></g>
<g><path style="opacity:1" fill="#2a176f" d="M 278.5,298.5 C 276.314,306.766 270.981,311.6 262.5,313C 250.808,314.457 239.474,313.123 228.5,309C 226.445,308.313 224.779,307.146 223.5,305.5C 228.456,304.506 233.456,304.173 238.5,304.5C 247.506,304.666 256.506,304.5 265.5,304C 267.788,303.178 270.122,302.511 272.5,302C 272.957,301.586 273.291,301.086 273.5,300.5C 272.899,296.841 272.233,293.174 271.5,289.5C 268.577,287.931 267.244,285.431 267.5,282C 268.568,274.046 271.068,273.546 275,280.5C 275.333,284.167 275.667,287.833 276,291.5C 277.903,293.441 278.736,295.774 278.5,298.5 Z"/></g>
<g><path style="opacity:1" fill="#27146c" d="M 376.5,296.5 C 381.556,297.963 386.556,299.63 391.5,301.5C 393.449,300.293 394.949,298.627 396,296.5C 396.75,297.126 397.584,297.626 398.5,298C 396.63,303.14 394.297,307.973 391.5,312.5C 390.5,312.167 389.833,311.5 389.5,310.5C 390.89,308.831 391.223,307.164 390.5,305.5C 385.722,303.944 381.055,302.11 376.5,300C 375.829,299.014 375.829,297.847 376.5,296.5 Z"/></g>
<g><path style="opacity:1" fill="#2b196f" d="M 373.5,304.5 C 378.134,309.305 382.634,314.305 387,319.5C 387.711,321.367 387.211,322.867 385.5,324C 381.238,323.795 376.904,323.462 372.5,323C 362.452,321.848 362.119,320.015 371.5,317.5C 373.207,315.358 374.041,313.025 374,310.5C 370.898,308.663 370.731,306.663 373.5,304.5 Z"/></g>
<g><path style="opacity:1" fill="#ebe9f2" d="M 376.5,314.5 C 378.25,315.742 379.917,317.242 381.5,319C 379.098,319.814 376.765,319.647 374.5,318.5C 375.63,317.378 376.297,316.044 376.5,314.5 Z"/></g>
<g><path style="opacity:1" fill="#27146c" d="M 125.5,304.5 C 127.121,304.787 128.121,305.787 128.5,307.5C 127.5,308.833 126.5,310.167 125.5,311.5C 126.5,313.5 127.5,315.5 128.5,317.5C 131.556,317.938 134.223,319.105 136.5,321C 129.244,322.658 121.91,323.658 114.5,324C 113.833,323 113.167,322 112.5,321C 117.203,315.742 121.537,310.242 125.5,304.5 Z"/></g>
<g><path style="opacity:1" fill="#e8e5ef" d="M 122.5,314.5 C 123.965,315.406 124.965,316.739 125.5,318.5C 117.752,321.759 116.752,320.426 122.5,314.5 Z"/></g>
<g><path style="opacity:1" fill="#6d619d" d="M 226.5,323.5 C 227.756,323.461 228.756,323.961 229.5,325C 209.662,325.829 189.996,325.662 170.5,324.5C 189.341,324.83 208.007,324.497 226.5,323.5 Z"/></g>
<g><path style="opacity:1" fill="#6e629e" d="M 272.5,323.5 C 291.326,324.497 310.326,324.83 329.5,324.5C 310.329,325.828 290.996,325.828 271.5,324.5C 271.624,323.893 271.957,323.56 272.5,323.5 Z"/></g>
<g><path style="opacity:1" fill="#7a6ea5" d="M 131.5,328.5 C 131.5,329.833 131.5,331.167 131.5,332.5C 129.833,332.5 128.167,332.5 126.5,332.5C 127.568,331.566 128.901,331.232 130.5,331.5C 130.263,330.209 130.596,329.209 131.5,328.5 Z"/></g>
<g><path style="opacity:1" fill="#25136b" d="M 126.5,332.5 C 128.167,332.5 129.833,332.5 131.5,332.5C 131.5,331.167 131.5,329.833 131.5,328.5C 133.407,325.668 136.073,324.834 139.5,326C 142.731,328.727 145.397,331.894 147.5,335.5C 142.987,340.34 137.82,344.34 132,347.5C 126.946,344.06 124.613,339.393 125,333.5C 125.383,332.944 125.883,332.611 126.5,332.5 Z"/></g>
<g><path style="opacity:1" fill="#f1f0f6" d="M 134.5,329.5 C 139.302,328.854 141.802,330.854 142,335.5C 138.841,338.341 136.508,337.674 135,333.5C 134.51,332.207 134.343,330.873 134.5,329.5 Z"/></g>
<g><path style="opacity:1" fill="#29176e" d="M 248.5,331.5 C 252.5,331.5 256.5,331.5 260.5,331.5C 258.714,335.071 256.881,338.738 255,342.5C 254.505,344.473 254.338,346.473 254.5,348.5C 253.5,348.5 252.5,348.5 251.5,348.5C 251.373,343.745 252.706,339.412 255.5,335.5C 253.257,334.526 250.924,334.192 248.5,334.5C 248.5,333.5 248.5,332.5 248.5,331.5 Z"/></g>
<g><path style="opacity:1" fill="#2e1c72" d="M 227.5,348.5 C 227.824,344.445 227.491,340.445 226.5,336.5C 225.893,336.624 225.56,336.957 225.5,337.5C 223.014,338.777 222.347,338.111 223.5,335.5C 225.381,333.266 227.715,331.933 230.5,331.5C 230.5,337.167 230.5,342.833 230.5,348.5C 229.5,348.5 228.5,348.5 227.5,348.5 Z"/></g>
<g><path style="opacity:1" fill="#28166e" d="M 361.5,323.5 C 367.289,327.449 372.956,331.616 378.5,336C 377.006,337.946 375.006,338.779 372.5,338.5C 368.844,337.714 365.177,337.547 361.5,338C 364.5,340.5 367.5,343 370.5,345.5C 370.113,346.72 369.28,347.387 368,347.5C 362.405,344.282 357.238,340.448 352.5,336C 352.957,335.586 353.291,335.086 353.5,334.5C 355.5,334.167 357.5,333.833 359.5,333.5C 362.928,334.071 366.262,334.071 369.5,333.5C 366.528,331.694 363.695,329.694 361,327.5C 360.421,326.072 360.588,324.738 361.5,323.5 Z"/></g>
<g><path style="opacity:1" fill="#f0eef5" d="M 129.5,334.5 C 132.069,335.396 134.069,337.062 135.5,339.5C 133.447,343.412 131.28,343.412 129,339.5C 128.36,337.735 128.527,336.068 129.5,334.5 Z"/></g>
<g><path style="opacity:1" fill="#2b186e" d="M 237.5,331.5 C 241.49,330.616 244.323,331.949 246,335.5C 247.193,340.152 246.36,344.319 243.5,348C 240.107,349.168 237.441,348.334 235.5,345.5C 237.365,344.334 239.032,344.667 240.5,346.5C 241.845,345.653 242.845,344.487 243.5,343C 235.341,342.483 233.341,338.649 237.5,331.5 Z"/></g>
<g><path style="opacity:1" fill="#f5f4f8" d="M 238.5,334.5 C 239.833,334.5 241.167,334.5 242.5,334.5C 242.949,336.977 242.283,338.977 240.5,340.5C 238.717,338.977 238.051,336.977 238.5,334.5 Z"/></g>
<g><path style="opacity:1" fill="#9188b5" d="M 225.5,337.5 C 225.56,336.957 225.893,336.624 226.5,336.5C 227.491,340.445 227.824,344.445 227.5,348.5C 226.833,344.833 226.167,341.167 225.5,337.5 Z"/></g>
<g><path style="opacity:1" fill="#24126a" d="M 264.5,331.5 C 267.5,331.5 270.5,331.5 273.5,331.5C 273.5,332.5 273.5,333.5 273.5,334.5C 271.167,334.5 268.833,334.5 266.5,334.5C 266.5,335.5 266.5,336.5 266.5,337.5C 272.997,337.18 275.164,340.18 273,346.5C 270.503,348.478 267.669,348.978 264.5,348C 262.441,346.815 262.274,345.648 264,344.5C 269.681,347.822 271.514,346.322 269.5,340C 267.512,339.82 265.512,339.986 263.5,340.5C 263.264,337.391 263.597,334.391 264.5,331.5 Z"/></g>
<g><path style="opacity:1" fill="#453781" d="M 143.5,351.5 C 144.254,349.554 145.588,348.721 147.5,349C 146.529,350.481 145.196,351.315 143.5,351.5 Z"/></g>
<g><path style="opacity:1" fill="#3a2677" d="M 149.5,352.5 C 152.95,351.756 154.616,353.09 154.5,356.5C 151.05,357.244 149.384,355.91 149.5,352.5 Z"/></g>
<g><path style="opacity:1" fill="#322273" d="M 165.5,356.5 C 165.685,354.804 166.519,353.471 168,352.5C 168.279,354.412 167.446,355.746 165.5,356.5 Z"/></g>
<g><path style="opacity:1" fill="#29166d" d="M 173.5,356.5 C 170.629,357.986 169.295,356.986 169.5,353.5C 170.833,353.5 172.167,353.5 173.5,353.5C 173.5,354.5 173.5,355.5 173.5,356.5 Z"/></g>
<g><path style="opacity:1" fill="#23116a" d="M 173.5,356.5 C 174.833,356.5 176.167,356.5 177.5,356.5C 177.5,357.5 177.5,358.5 177.5,359.5C 176.167,359.5 174.833,359.5 173.5,359.5C 173.5,358.5 173.5,357.5 173.5,356.5 Z"/></g>
<g><path style="opacity:1" fill="#2a196d" d="M 355.5,358.5 C 356.5,358.5 357.5,358.5 358.5,358.5C 358.5,359.833 358.5,361.167 358.5,362.5C 357.5,362.5 356.5,362.5 355.5,362.5C 355.5,361.167 355.5,359.833 355.5,358.5 Z"/></g>
<g><path style="opacity:1" fill="#2c1b6e" d="M 143.5,351.5 C 140.215,356.191 141.215,359.691 146.5,362C 149.167,362.667 151.833,362.667 154.5,362C 157.335,358.869 160.502,356.036 164,353.5C 159.906,362.629 152.739,366.129 142.5,364C 137.732,360.874 137.232,357.041 141,352.5C 141.671,351.748 142.504,351.414 143.5,351.5 Z"/></g>
<g><path style="opacity:1" fill="#33246e" d="M 176.5,363.5 C 177.373,361.114 178.873,359.114 181,357.5C 180.573,360.121 179.073,362.121 176.5,363.5 Z"/></g>
<g><path style="opacity:1" fill="#281a66" d="M 321.5,360.5 C 325.114,364.882 328.114,369.716 330.5,375C 329.668,375.688 329.002,375.521 328.5,374.5C 325.218,370.243 322.885,365.577 321.5,360.5 Z"/></g>
<g><path style="opacity:1" fill="#2e1d6e" d="M 346.5,346.5 C 348.207,349.799 349.54,353.466 350.5,357.5C 349.675,358.386 348.675,358.719 347.5,358.5C 347.665,361.518 347.498,364.518 347,367.5C 345.612,368.554 344.112,368.72 342.5,368C 338.263,363.52 334.263,358.853 330.5,354C 334.307,356.788 337.973,360.122 341.5,364C 342.5,364.667 343.5,364.667 344.5,364C 345.088,360.36 346.088,356.86 347.5,353.5C 346.777,351.218 346.443,348.884 346.5,346.5 Z"/></g>
<g><path style="opacity:1" fill="#281b67" d="M 275.5,373.5 C 275.414,372.504 275.748,371.671 276.5,371C 279.418,369.291 282.252,367.458 285,365.5C 285.617,366.449 285.451,367.282 284.5,368C 281.472,369.844 278.472,371.678 275.5,373.5 Z"/></g>
<g><path style="opacity:1" fill="#342273" d="M 350.5,362.5 C 351.163,364.042 351.83,365.709 352.5,367.5C 353.895,366.185 354.895,366.519 355.5,368.5C 354.112,371.079 352.612,371.079 351,368.5C 350.505,366.527 350.338,364.527 350.5,362.5 Z"/></g>
<g><path style="opacity:1" fill="#645494" d="M 208.5,363.5 C 209.653,364.313 209.653,365.313 208.5,366.5C 211.063,369.026 210.397,370.693 206.5,371.5C 205.328,371.081 204.328,370.415 203.5,369.5C 205.914,368.089 207.581,366.089 208.5,363.5 Z"/></g>
<g><path style="opacity:1" fill="#402d7b" d="M 333.5,364.5 C 334.239,364.369 334.906,364.536 335.5,365C 333.74,365.965 333.406,367.132 334.5,368.5C 335.591,366.985 336.924,366.152 338.5,366C 337.089,368.996 336.089,372.163 335.5,375.5C 332.635,372.162 331.969,368.496 333.5,364.5 Z"/></g>
<g><path style="opacity:1" fill="#26156a" d="M 165.5,356.5 C 164.25,358.932 162.75,361.266 161,363.5C 160.28,365.112 160.446,366.612 161.5,368C 164.866,367.67 168.199,368.003 171.5,369C 172.833,366.809 174.5,364.976 176.5,363.5C 175.391,365.554 174.391,367.721 173.5,370C 174.137,371.713 175.137,371.879 176.5,370.5C 176.983,372.917 175.817,374.584 173,375.5C 170.843,374.615 170.01,372.948 170.5,370.5C 165.898,369.768 161.398,369.768 157,370.5C 157.895,364.748 160.728,360.081 165.5,356.5 Z"/></g>
<g><path style="opacity:1" fill="#372574" d="M 200.5,377.5 C 201.406,376.035 202.739,375.035 204.5,374.5C 208.779,375.274 213.113,375.774 217.5,376C 211.917,377.268 206.251,377.768 200.5,377.5 Z"/></g>
<g><path style="opacity:1" fill="#2e1d6e" d="M 228.5,376.5 C 233.016,377.625 233.35,379.292 229.5,381.5C 227.296,380.218 226.962,378.551 228.5,376.5 Z"/></g>
<g><path style="opacity:1" fill="#372574" d="M 182.5,374.5 C 183.873,374.343 185.207,374.51 186.5,375C 183.45,375.497 182.45,376.997 183.5,379.5C 182.311,380.429 180.978,380.762 179.5,380.5C 179.615,378.053 180.615,376.053 182.5,374.5 Z"/></g>
<g><path style="opacity:1" fill="#3c2977" d="M 278.5,377.5 C 282.991,378.13 283.491,379.796 280,382.5C 277.527,381.26 277.027,379.593 278.5,377.5 Z"/></g>
<g><path style="opacity:1" fill="#2a196b" d="M 316.5,359.5 C 320.462,364.43 323.129,370.097 324.5,376.5C 323.846,381.561 321.513,382.895 317.5,380.5C 316.702,382.078 316.202,383.744 316,385.5C 314.488,386.257 313.154,387.257 312,388.5C 314.397,384.307 315.731,379.641 316,374.5C 318.67,379.908 320.836,379.741 322.5,374C 320.092,369.349 318.092,364.515 316.5,359.5 Z"/></g>
<g><path style="opacity:1" fill="#27156b" d="M 200.5,377.5 C 203.185,381.722 202.518,385.555 198.5,389C 194.068,392.689 189.401,393.189 184.5,390.5C 183.448,384.576 185.282,379.576 190,375.5C 188.372,378.126 187.205,381.126 186.5,384.5C 187.825,389.078 190.825,390.578 195.5,389C 199.893,387.401 200.56,384.901 197.5,381.5C 197.754,379.583 198.754,378.249 200.5,377.5 Z"/></g>
<g><path style="opacity:1" fill="#322473" d="M 210.5,386.5 C 210.461,385.244 210.961,384.244 212,383.5C 212.585,384.998 212.085,385.998 210.5,386.5 Z"/></g>
<g><path style="opacity:1" fill="#28156b" d="M 294.5,382.5 C 295.833,382.5 297.167,382.5 298.5,382.5C 298.5,383.833 298.5,385.167 298.5,386.5C 295.5,386.833 294.167,385.5 294.5,382.5 Z"/></g>
<g><path style="opacity:1" fill="#311f72" d="M 217.5,384.5 C 219.377,384.9 220.877,385.9 222,387.5C 225.064,385.943 228.231,385.11 231.5,385C 227.447,386.76 223.447,388.76 219.5,391C 217.437,395.218 214.104,396.552 209.5,395C 212.525,394.867 215.192,393.867 217.5,392C 214.121,389.748 214.121,387.248 217.5,384.5 Z"/></g>
<g><path style="opacity:1" fill="#332073" d="M 245.5,381.5 C 246.043,381.56 246.376,381.893 246.5,382.5C 245.033,388.81 242.033,394.31 237.5,399C 229.756,399.672 229.756,398.838 237.5,396.5C 237.833,396 238.167,395.5 238.5,395C 235.538,391.339 236.204,388.839 240.5,387.5C 240.354,389.942 241.187,390.609 243,389.5C 243.097,386.518 243.93,383.851 245.5,381.5 Z"/></g>
<g><path style="opacity:1" fill="#170861" d="M 210.5,386.5 C 208.953,391.542 205.62,393.375 200.5,392C 204.311,390.93 207.644,389.097 210.5,386.5 Z"/></g>
<g><path style="opacity:1" fill="#2a1a6c" d="M 282.5,384.5 C 283.652,388.054 283.485,391.72 282,395.5C 280.333,396.5 278.667,397.5 277,398.5C 278.128,396.641 279.461,394.641 281,392.5C 282.079,389.937 282.579,387.271 282.5,384.5 Z"/></g>
<g><path style="opacity:1" fill="#2f1d71" d="M 306.5,369.5 C 307.097,369.735 307.43,370.235 307.5,371C 306.618,373.262 305.618,375.429 304.5,377.5C 306.826,384.859 305.493,391.359 300.5,397C 294.453,398.954 290.953,396.787 290,390.5C 289.333,388.5 289.333,386.5 290,384.5C 291.241,394.345 295.574,396.012 303,389.5C 304.932,384.304 304.432,379.304 301.5,374.5C 304.205,373.796 305.871,372.129 306.5,369.5 Z"/></g>
<g><path style="opacity:1" fill="#27156c" d="M 219.5,393.5 C 221.484,393.383 223.15,394.05 224.5,395.5C 226.263,394.046 227.597,394.38 228.5,396.5C 226.764,399.105 224.931,399.105 223,396.5C 219.403,398.066 218.237,397.066 219.5,393.5 Z"/></g>
<g><path style="opacity:1" fill="#221068" d="M 310.5,392.5 C 311.833,392.5 313.167,392.5 314.5,392.5C 314.5,393.5 314.5,394.5 314.5,395.5C 311.67,395.694 309.004,396.361 306.5,397.5C 306.117,394.538 307.117,393.538 309.5,394.5C 310.298,394.043 310.631,393.376 310.5,392.5 Z"/></g>
<g><path style="opacity:1" fill="#2a186e" d="M 252.5,380.5 C 253.486,384.997 254.32,389.664 255,394.5C 256.667,397.167 258.333,397.167 260,394.5C 260.597,397.307 259.597,399.307 257,400.5C 255.347,400.18 254.347,399.18 254,397.5C 252.783,391.899 252.283,386.232 252.5,380.5 Z"/></g>
<g><path style="opacity:1" fill="#2a196c" d="M 275.5,373.5 C 275.666,378.511 275.499,383.511 275,388.5C 271.793,390.705 269.793,393.705 269,397.5C 267.059,399.542 264.892,400.208 262.5,399.5C 264.422,398.289 266.255,396.956 268,395.5C 269.256,391.984 271.256,388.984 274,386.5C 274.175,381.981 274.675,377.647 275.5,373.5 Z"/></g>
<g><path style="opacity:1" fill="#26146a" d="M 235.5,401.5 C 237.044,401.703 238.378,402.37 239.5,403.5C 241.263,402.046 242.597,402.38 243.5,404.5C 243.113,405.72 242.28,406.387 241,406.5C 239.27,405.351 237.604,405.351 236,406.5C 235.167,405.667 234.333,404.833 233.5,404C 234.381,403.292 235.047,402.458 235.5,401.5 Z"/></g>
<g><path style="opacity:1" fill="#231269" d="M 255.5,403.5 C 257.341,404.673 259.174,404.673 261,403.5C 264.082,404.509 264.082,405.842 261,407.5C 258.919,406.667 256.752,406.667 254.5,407.5C 254.433,406.041 254.766,404.708 255.5,403.5 Z"/></g>
</svg>
