<svg version="1.1" id="Layer_1" xmlns="http://www.w3.org/2000/svg" xmlns:xlink="http://www.w3.org/1999/xlink" x="0px" y="0px"
	 width="100%" viewBox="0 0 496 496" enable-background="new 0 0 496 496" xml:space="preserve">
<path fill="#000000" opacity="1.000000" stroke="none" 
	d="
M109.000107,48.607086 
	C168.483627,48.612934 227.467133,48.623363 286.450653,48.624336 
	C339.928711,48.625217 393.406738,48.601658 446.884796,48.624149 
	C456.319916,48.628117 455.335693,48.069862 455.341644,56.877502 
	C455.382812,117.862968 455.423279,178.848465 455.421082,239.833939 
	C455.418579,309.972778 455.373932,380.111633 455.341095,450.250458 
	C455.337769,457.361115 455.317139,457.374908 448.270599,457.375031 
	C316.967896,457.377380 185.665192,457.377258 54.362484,457.373230 
	C46.660480,457.372986 46.652695,457.355774 46.652588,449.881744 
	C46.650688,318.745728 46.650452,187.609711 46.651478,56.473698 
	C46.651539,48.665623 46.657848,48.640079 54.513630,48.630383 
	C72.509102,48.608177 90.504608,48.613438 109.000107,48.607086 
M66.381630,174.834503 
	C59.769989,191.107620 55.228664,207.888794 53.080303,225.373734 
	C49.066284,258.042755 52.436260,289.798981 63.975262,320.651031 
	C96.590881,407.855896 184.672623,460.905273 276.893677,448.779602 
	C321.372101,442.931427 359.854034,424.255737 391.342773,392.446350 
	C434.926392,348.418976 454.516052,295.154663 449.754395,233.167923 
	C448.039642,210.845612 442.787140,189.281372 433.149231,169.201324 
	C402.146790,104.609703 351.649780,65.207924 280.395630,53.822754 
	C241.180420,47.556858 203.280533,52.841930 167.329681,69.709549 
	C120.577942,91.644775 87.035782,126.604401 66.381630,174.834503 
M51.527794,205.912781 
	C73.085907,122.848793 126.878952,72.641785 209.544174,51.527325 
	C205.192123,49.419209 201.192947,51.030350 197.275665,51.017822 
	C159.126236,50.895847 120.976349,50.932533 82.826683,50.870590 
	C73.670181,50.855724 64.508949,50.782730 55.360073,50.453510 
	C51.568871,50.317089 50.331474,51.827381 50.334480,55.391651 
	C50.377563,106.500565 50.363918,157.609528 50.363918,209.240845 
	C50.843010,207.992630 51.124836,207.258362 51.527794,205.912781 
M343.500000,50.960693 
	C326.698669,50.960693 309.897339,50.960693 293.096008,50.960693 
	C375.879608,72.330925 428.706573,123.889565 451.509216,206.338455 
	C450.691437,202.622421 451.658691,199.014786 451.655518,195.372833 
	C451.615967,150.063034 451.642883,104.753181 451.651428,59.443340 
	C451.653046,50.829540 451.650635,50.892620 442.949005,50.903797 
	C410.132690,50.945953 377.316345,50.943432 343.500000,50.960693 
M50.362194,364.499908 
	C50.359436,391.812714 50.413261,419.125763 50.288383,446.438019 
	C50.271122,450.212982 51.190113,451.740326 55.305363,451.727875 
	C99.271988,451.594574 143.239136,451.639526 187.206146,451.617126 
	C189.098679,451.616150 191.125595,451.908875 192.961990,450.096344 
	C119.658577,426.064911 72.634048,377.156525 51.808899,303.055389 
	C51.326653,303.162750 50.844410,303.270111 50.362167,303.377441 
	C50.362167,323.418274 50.362167,343.459076 50.362194,364.499908 
M430.494293,352.916992 
	C403.039215,401.377289 362.437317,433.524597 308.819916,449.897064 
	C311.517395,452.085846 313.926239,451.597961 316.191895,451.599884 
	C359.329346,451.636383 402.467133,451.565491 445.603882,451.746857 
	C450.520477,451.767517 451.757355,450.148590 451.741211,445.444061 
	C451.586823,400.474976 451.644104,355.505127 451.640686,310.535522 
	C451.640411,306.831482 451.640686,303.127411 451.640686,299.423370 
	C446.469849,317.937347 439.842377,335.558746 430.494293,352.916992 
z"/>
<path fill="#000000" opacity="1.000000" stroke="none" 
	d="
M239.770523,286.480316 
	C238.014328,284.739380 236.258118,282.998474 234.173096,280.931610 
	C231.679825,283.940796 229.582977,287.302856 226.202835,289.500916 
	C222.323090,292.023895 218.972260,290.823120 215.769867,288.453125 
	C213.326523,289.836578 212.955048,292.372925 211.531021,294.130676 
	C209.718918,296.367462 207.901779,296.903107 205.736160,294.654114 
	C203.433075,292.262390 201.012634,289.976013 198.821609,287.486786 
	C197.412415,285.885773 197.194687,283.936584 198.314240,281.936188 
	C201.159317,281.184174 202.417038,283.728668 204.348770,284.760132 
	C206.937302,286.142273 209.943344,286.401825 210.325256,283.205536 
	C211.116394,276.584686 215.561462,273.277313 220.427048,270.039459 
	C215.983780,266.242004 214.954849,266.460419 211.594040,271.986176 
	C209.411713,275.574280 206.622177,278.823334 202.163406,278.044434 
	C197.568314,277.241699 193.333252,275.074463 191.977798,269.419189 
	C192.009781,269.000580 192.154297,268.887817 192.505676,268.835815 
	C197.507690,267.951813 202.582764,270.488342 207.273239,267.229828 
	C200.532501,263.333069 200.026321,258.608551 204.753296,247.001770 
	C203.316696,244.547684 200.140762,242.985519 200.805099,239.165863 
	C205.274765,237.448395 209.972092,238.349396 214.545364,238.022324 
	C216.160583,237.906799 218.711868,238.505692 219.073624,236.849518 
	C220.357727,230.970795 223.594498,230.638138 228.883545,231.410126 
	C234.193115,232.185120 235.186020,232.230820 234.942307,237.678802 
	C238.094284,237.951569 241.166718,238.358475 243.834869,235.858902 
	C245.611084,234.194946 247.752472,234.210876 249.866882,235.335739 
	C252.047409,236.495758 254.209763,237.689896 256.428894,238.895630 
	C258.889404,236.142670 260.255859,232.299789 264.375610,230.860046 
	C266.803528,235.647079 265.788239,240.521317 266.066315,245.235260 
	C266.392548,250.764771 262.228546,253.174454 258.835693,256.386871 
	C254.790527,260.216888 249.863129,255.960098 245.817963,258.279541 
	C251.594040,259.716980 257.362885,258.601440 263.100464,258.891174 
	C266.473145,259.061493 267.901489,257.463593 267.697113,254.034210 
	C267.420502,249.392960 266.813629,244.771896 267.240662,240.081055 
	C267.670898,235.354614 270.239990,232.635513 275.406281,230.519226 
	C276.380157,240.394836 276.463989,249.491547 272.134918,258.484680 
	C274.511383,258.896179 276.668793,259.046478 278.748322,258.415039 
	C280.514557,257.878754 283.145569,256.317261 282.121185,254.880264 
	C279.083130,250.618546 284.106415,243.899170 277.503632,240.911163 
	C276.384430,240.404663 276.432404,238.310425 276.864807,237.168259 
	C278.472839,232.920456 277.310760,229.352524 274.520599,225.755020 
	C257.935730,230.070557 240.952881,239.275925 224.988266,223.978882 
	C225.002823,224.000137 225.032028,224.042572 224.964417,223.740021 
	C224.151306,220.143448 225.735855,219.684418 228.056808,221.207794 
	C239.347610,228.618668 249.748260,222.974319 261.275482,219.595428 
	C253.894180,216.662506 253.699341,215.567245 258.435883,210.152740 
	C259.918060,208.458405 262.010773,207.221298 262.743256,204.929047 
	C259.039246,202.426788 256.598938,199.592361 259.199371,194.869766 
	C259.506866,194.607025 259.670410,194.446304 259.824524,194.275986 
	C264.122070,192.276093 264.122070,192.276093 269.757202,199.042389 
	C271.304382,199.510071 272.342346,197.402344 274.371307,198.417831 
	C275.243591,201.882339 277.006409,204.666245 281.737030,203.687134 
	C283.508850,203.320389 284.188049,205.754654 285.786133,206.407898 
	C288.097870,205.989929 289.532043,202.652618 292.436096,204.241531 
	C293.578949,204.866806 294.144623,206.105850 293.526428,207.225388 
	C291.754303,210.434586 289.819641,213.585175 285.515411,214.408478 
	C289.477661,214.408478 293.447052,214.550369 297.399323,214.351822 
	C299.547546,214.243866 301.459503,214.429596 302.778503,216.193253 
	C304.137970,218.011047 306.473969,219.771194 305.697815,222.214310 
	C304.784607,225.088730 301.794373,224.144684 299.601685,224.191895 
	C293.965729,224.313232 288.325409,224.232437 282.274109,224.232437 
	C284.168274,232.051773 287.485535,238.946350 288.493652,246.741409 
	C290.175995,238.542587 288.025513,229.052185 299.261444,225.164810 
	C300.306244,233.021957 298.129059,240.775635 299.959290,248.399429 
	C306.348938,245.381714 310.806641,246.112747 313.277863,250.279617 
	C315.545410,254.103058 314.445679,257.586884 309.792999,261.200806 
	C311.711029,268.700714 309.872803,275.680481 306.276276,282.229462 
	C303.489410,287.304108 299.526703,287.665161 295.310608,283.635742 
	C292.417633,280.870850 290.957977,277.779114 290.834076,273.867004 
	C294.835968,273.348694 297.913391,277.643738 302.647400,276.052795 
	C296.197144,271.584808 299.911285,266.802673 302.589539,261.245422 
	C295.455719,261.846771 290.870544,259.458252 289.981720,250.771225 
	C286.299255,258.313995 283.208954,264.165344 277.276581,267.796478 
	C278.187714,269.165680 279.210144,270.117981 280.790802,270.795746 
	C283.736053,266.324799 289.818115,265.907257 292.480499,260.956085 
	C295.979431,266.083160 295.212128,270.050110 290.490234,272.073822 
	C289.059845,272.686890 289.009308,273.700104 288.817566,274.795532 
	C288.128326,278.733276 287.930176,282.676361 288.790222,287.162201 
	C292.616608,284.969818 295.192780,285.183441 295.959808,290.101898 
	C296.748474,295.159119 294.446869,299.311096 289.697571,300.394836 
	C286.954315,301.020813 284.469543,299.987762 281.916595,299.251190 
	C281.645020,299.555542 281.329956,299.760986 281.228973,300.043091 
	C277.215698,311.256744 268.871246,316.185608 257.372620,316.031738 
	C247.340073,315.897491 237.486389,314.438141 228.182892,310.359802 
	C226.525085,309.633057 224.711716,309.064728 224.274582,306.555817 
	C227.857285,303.392670 232.063828,305.740112 236.916656,305.411682 
	C233.894806,304.151367 230.924484,304.085602 229.998398,301.072052 
	C231.822815,298.178711 236.787018,301.096130 238.015106,296.282806 
	C242.120636,293.148743 240.661972,289.771973 239.770523,286.480316 
M267.276581,296.400604 
	C266.230530,298.288574 265.384064,300.328400 264.090912,302.028412 
	C262.228912,304.476288 259.881836,303.462677 259.959076,301.077484 
	C260.294037,290.730957 255.620468,279.547089 264.491760,270.450226 
	C264.626038,270.312531 264.424133,269.847046 264.314453,269.085175 
	C258.732147,269.085175 253.082932,268.897919 247.453186,269.148407 
	C243.434433,269.327209 240.055420,268.332306 237.993835,264.872925 
	C235.382523,260.491058 230.560623,259.633850 226.297913,257.087158 
	C228.183273,261.178833 237.026428,263.871307 228.184906,270.066010 
	C234.049759,266.317291 235.163620,270.101013 235.976303,273.816284 
	C237.998001,273.402313 238.518372,271.010986 240.562790,271.487549 
	C248.034653,278.753540 251.029877,286.988220 245.448257,297.111053 
	C248.329590,296.952637 249.198685,296.029236 249.052292,293.598541 
	C248.792358,289.282928 248.860840,284.941711 248.931702,280.613525 
	C249.012009,275.707825 251.936218,272.900635 256.321838,270.785034 
	C258.676147,275.539215 256.632904,280.384857 257.617096,284.692596 
	C259.733734,293.956848 255.198441,299.484039 248.471497,304.296906 
	C248.142761,304.532104 247.932419,304.932800 247.328369,305.669250 
	C256.557281,305.367157 265.249481,304.940979 274.575867,302.624908 
	C271.263184,298.123993 276.430420,291.175720 268.696350,289.106750 
	C268.328430,291.165894 267.927094,293.412079 267.276581,296.400604 
M211.237534,252.327286 
	C216.494888,258.772308 217.219513,258.821808 223.208313,253.331131 
	C224.884171,251.794647 226.643829,250.349594 228.957199,248.351013 
	C222.869247,247.018387 217.805984,247.296677 212.767731,247.556702 
	C209.765320,247.711670 208.973740,249.206161 211.237534,252.327286 
M254.788559,248.173218 
	C257.623230,247.612930 257.948151,246.022644 255.861481,242.129272 
	C254.358459,243.740875 252.970230,245.367065 251.110550,246.529373 
	C249.243347,247.696365 246.725662,246.575790 244.937531,248.553696 
	C246.193634,251.147232 247.759933,250.734756 249.622879,249.276901 
	C250.971649,248.221436 252.104477,246.255219 254.788559,248.173218 
M268.727966,281.726562 
	C268.859619,279.859863 269.287262,278.181396 270.842468,276.871613 
	C273.114288,274.958313 271.465485,272.551331 271.249146,270.440796 
	C271.114380,269.126129 269.654572,269.012634 268.305054,269.834259 
	C268.305054,274.376953 268.305054,278.996887 268.305054,284.719849 
	C268.558167,283.196747 268.631287,282.756714 268.727966,281.726562 
M279.677338,287.567352 
	C279.438538,284.779449 279.227081,281.988892 278.953094,279.204437 
	C278.691803,276.548676 277.456757,276.917053 275.310974,278.355377 
	C279.621338,282.654449 277.165070,288.424530 279.716034,293.141937 
	C279.716034,291.558380 279.716034,289.974792 279.677338,287.567352 
M235.970505,250.526596 
	C238.170639,250.729050 239.399597,249.416382 240.937820,247.665314 
	C238.150833,247.290543 235.937988,247.002274 233.839432,248.049149 
	C233.625137,249.424896 234.603912,249.818222 235.970505,250.526596 
M273.999969,211.811508 
	C274.890350,211.773041 275.761139,212.903137 276.892700,211.646866 
	C274.440735,209.272842 271.604980,209.580612 268.649933,210.380295 
	C270.219086,210.814621 271.788269,211.248947 273.999969,211.811508 
z"/>
<path fill="#000000" opacity="1.000000" stroke="none" 
	d="
M152.194275,225.211365 
	C167.192169,209.848236 201.943756,189.740280 216.246765,188.166580 
	C216.246155,190.529770 214.224670,190.976547 212.861206,191.868698 
	C196.362167,202.664169 184.110916,216.854248 179.677185,236.382996 
	C174.844757,257.667755 179.605362,277.312744 192.132156,295.108795 
	C201.065872,307.800354 212.640060,317.295929 226.794266,323.657379 
	C227.852356,324.132904 228.889404,324.663269 229.897110,325.236877 
	C230.127808,325.368134 230.196350,325.784271 230.366058,326.122162 
	C229.526550,327.947235 227.816147,327.335175 226.466141,327.337769 
	C209.477448,327.370697 192.488647,327.329651 175.499863,327.329834 
	C173.469315,327.329834 171.517685,327.226685 169.845383,325.848389 
	C153.626770,312.481293 141.199020,296.536957 136.777008,275.517792 
	C132.709885,256.185516 139.264984,239.840622 152.194275,225.211365 
z"/>
<path fill="#000000" opacity="1.000000" stroke="none" 
	d="
M331.713104,209.218811 
	C345.657349,218.576080 357.309082,229.484650 363.524261,245.187103 
	C371.891785,266.327393 366.431427,285.300446 354.362518,303.193695 
	C349.021301,311.112488 342.404419,317.912628 335.327271,324.282776 
	C333.432587,325.988190 331.439392,327.335846 328.709930,327.331726 
	C310.889038,327.304840 293.068054,327.335663 275.247131,327.317078 
	C274.458252,327.316254 273.669739,327.018677 272.829224,326.848877 
	C272.793701,324.015106 275.213898,324.209412 276.635284,323.531860 
	C300.016968,312.386353 316.220703,295.006439 322.734833,269.603485 
	C330.787354,238.201111 319.042053,213.932968 295.775909,195.682831 
	C292.828857,193.371140 289.149506,191.999603 287.032959,188.424622 
	C302.840698,193.108536 317.685822,199.833435 331.713104,209.218811 
z"/>
<path fill="#000000" opacity="1.000000" stroke="none" 
	d="
M259.912292,193.844818 
	C259.670410,194.446304 259.506866,194.607025 258.858978,194.978943 
	C254.507950,199.215515 249.445786,199.658539 244.297302,199.970795 
	C241.169540,200.160492 238.026047,200.415665 234.945282,200.957764 
	C232.244156,201.433044 229.433197,202.024261 227.602005,205.183426 
	C231.968536,208.765045 236.733765,211.193695 242.027008,212.580658 
	C244.050232,213.110825 245.607529,212.475372 245.956390,210.066483 
	C246.192978,208.432907 246.577271,206.820740 247.075089,204.982254 
	C247.518524,204.499313 247.782394,204.233109 248.359055,203.805969 
	C250.922272,202.714645 252.757507,199.143250 255.580902,201.766159 
	C258.051910,204.061737 257.518524,207.237823 256.300446,210.171219 
	C256.046234,210.783401 255.776627,211.400436 255.425186,211.959290 
	C250.504349,219.784332 241.707550,222.676910 232.980438,219.445312 
	C230.490433,218.523300 227.932571,217.760818 225.364868,217.079544 
	C223.186737,216.501617 221.072174,216.570984 219.515549,218.742050 
	C220.091934,221.841827 222.942169,222.555252 225.032028,224.042572 
	C225.032028,224.042572 225.002823,224.000137 224.986740,224.342010 
	C222.650772,229.247208 220.373947,233.087906 213.770370,231.674515 
	C208.944458,230.641602 204.093872,233.317474 199.238724,234.256927 
	C198.153549,234.466904 197.550812,235.319412 197.455704,236.385666 
	C197.118546,240.165100 196.109955,244.065903 196.689590,247.708450 
	C197.929504,255.500351 196.607147,262.455994 192.154297,268.887817 
	C192.154297,268.887817 192.009781,269.000580 191.936691,269.058167 
	C191.711472,269.047974 191.494705,269.023315 191.416489,268.906158 
	C187.914337,263.660400 189.276367,257.415771 187.974289,251.701187 
	C186.625595,245.782120 187.272751,240.097427 192.975510,236.166153 
	C195.218369,234.620010 196.154755,232.592819 194.753006,229.724365 
	C193.339523,226.831940 194.582397,225.863937 197.795334,225.401566 
	C203.881470,224.525726 210.529770,224.263626 214.605453,217.226868 
	C210.730255,218.433975 207.548096,219.523834 204.307312,220.395721 
	C202.520493,220.876434 200.494064,221.039459 199.322937,219.203415 
	C198.066360,217.233459 199.514969,215.786209 200.752289,214.396194 
	C202.282013,212.677689 203.502625,210.647217 206.283569,210.605972 
	C208.785568,210.568909 209.201691,208.207901 210.186584,206.541473 
	C213.592972,200.778000 215.838745,200.515106 220.536743,205.623154 
	C221.554062,203.663620 222.485474,201.786011 223.490768,199.948853 
	C226.455734,194.530548 230.714005,190.806808 237.060410,190.111435 
	C243.336014,189.423798 249.605286,188.329178 255.957077,189.197342 
	C258.389069,189.529739 260.778229,189.971619 259.912292,193.844818 
z"/>
<path fill="#000000" opacity="1.000000" stroke="none" 
	d="
M256.388123,158.891510 
	C253.021835,165.040710 253.336426,166.863434 258.565430,171.369949 
	C262.628448,174.871643 267.447449,177.240097 271.922852,180.124756 
	C273.242004,180.974991 275.138031,181.287277 275.655273,184.529037 
	C259.506012,179.038208 243.616150,179.190887 226.935410,184.580338 
	C228.815048,180.462173 231.778137,179.799835 234.091461,178.444565 
	C238.856400,175.653030 243.509903,172.757584 247.158661,168.531281 
	C249.129410,166.248596 250.279114,164.060150 247.829132,161.079544 
	C245.603531,158.371948 245.334473,154.992950 246.729645,151.626450 
	C248.230743,148.004272 249.702499,144.369934 251.777618,139.297287 
	C253.386688,146.740326 258.697906,151.581223 256.388123,158.891510 
z"/>
<path fill="#000000" opacity="1.000000" stroke="none" 
	d="
M188.212616,114.749619 
	C191.354507,117.464569 194.225952,119.946579 197.218109,122.532936 
	C195.679810,124.896027 194.146362,125.568443 191.654648,124.517555 
	C186.833862,122.484367 184.144531,124.013977 183.133774,129.051819 
	C182.423813,132.590347 175.085663,136.642365 171.702637,135.302826 
	C169.569534,134.458206 167.493271,133.470016 165.434006,132.564896 
	C163.394135,134.851761 164.643967,136.528900 165.716095,138.178741 
	C166.651581,139.618301 167.742157,140.960861 165.665329,142.386841 
	C163.494736,143.877213 162.331009,142.533707 161.192871,140.945557 
	C158.674210,137.431030 156.088791,133.962311 153.652008,130.392044 
	C152.625961,128.888718 150.426117,127.267883 152.875687,125.320053 
	C155.191956,123.478249 156.440430,125.477257 157.685120,127.055542 
	C158.095673,127.576149 158.460373,128.132904 159.153702,129.104050 
	C162.017593,124.992065 159.115372,117.920258 166.308823,117.112236 
	C168.033951,120.525024 163.992157,124.618317 166.813858,127.056648 
	C169.413406,129.303009 173.222397,130.352478 177.615143,131.074570 
	C177.178116,125.195030 176.893616,119.655930 176.290543,114.151726 
	C176.069611,112.135246 176.035049,110.616806 178.024734,109.509987 
	C179.970642,108.427544 181.524017,109.010399 183.025024,110.287247 
	C184.671738,111.688057 186.303741,113.106125 188.212616,114.749619 
z"/>
<path fill="#000000" opacity="1.000000" stroke="none" 
	d="
M144.753998,154.836578 
	C142.645401,150.308716 140.509537,146.163284 138.734619,141.868683 
	C137.499023,138.879028 139.633133,135.996216 142.546280,136.937408 
	C149.085129,139.050003 155.436066,141.744232 162.111954,144.296661 
	C160.718185,147.360703 159.388519,148.387421 156.711502,147.959351 
	C151.987793,147.204041 149.619095,149.859390 150.318573,154.715805 
	C150.365723,155.043350 150.524338,155.362839 150.528076,155.687256 
	C150.543671,157.047729 138.606750,172.607285 137.251572,172.752243 
	C134.436401,173.053406 133.563309,170.868500 132.968704,168.791748 
	C131.880875,164.992340 131.024124,161.126755 130.025818,157.106796 
	C127.417030,157.463943 126.745865,159.640762 125.300102,160.810486 
	C124.265297,161.647705 123.276985,161.962631 122.214249,160.953094 
	C121.233421,160.021362 121.028419,158.900177 121.882751,157.836182 
	C124.275162,154.856644 126.375458,151.492813 129.271881,149.107315 
	C132.556915,146.401764 133.553391,149.919037 134.149872,152.151459 
	C135.249252,156.266083 135.945023,160.487274 137.977554,165.467743 
	C139.949219,161.105057 144.685120,159.865814 144.753998,154.836578 
z"/>
<path fill="#000000" opacity="1.000000" stroke="none" 
	d="
M177.100342,370.396057 
	C179.797943,371.983673 180.286697,373.751068 178.063171,375.705353 
	C176.007263,377.512390 173.591827,378.472076 171.659836,375.668427 
	C169.808990,372.982483 167.614517,371.999146 164.468903,372.865997 
	C162.384811,373.440338 160.105209,374.068237 158.502441,371.964966 
	C156.897339,369.858643 158.172897,367.879639 159.188904,365.950317 
	C159.474518,365.407959 159.622681,364.793213 159.901855,364.024506 
	C148.520981,368.235504 140.833115,367.172943 139.207031,361.311066 
	C137.991501,356.929199 144.048935,350.238525 150.606964,348.885620 
	C150.940582,350.847961 149.245682,351.304932 148.210587,352.100647 
	C145.468307,354.208649 142.615891,356.290955 145.153473,360.247284 
	C147.306595,363.604187 152.945343,364.603027 156.291916,362.288605 
	C157.504456,361.450012 158.532990,360.319580 159.557068,359.238556 
	C165.098022,353.389618 170.837296,352.709961 177.485214,356.859131 
	C179.154953,357.901245 180.173904,360.811981 183.933594,357.762268 
	C181.941422,363.451447 177.542526,365.744781 177.100342,370.396057 
M167.128479,359.752869 
	C165.897903,361.517456 164.530731,363.205017 163.478882,365.070374 
	C162.597534,366.633362 162.368164,368.145752 164.806259,368.877838 
	C172.115463,371.072601 173.337280,370.549683 176.879883,363.184113 
	C175.478333,359.934448 171.957962,359.219513 169.631271,356.813446 
	C168.823044,357.738983 168.176315,358.479584 167.128479,359.752869 
z"/>
<path fill="#000000" opacity="1.000000" stroke="none" 
	d="
M403.830750,233.747559 
	C406.666565,233.755493 409.044037,233.489548 409.296417,237.005997 
	C409.505829,239.923325 408.163757,241.236374 405.589050,241.973679 
	C403.578094,242.549500 401.401123,242.787781 399.245422,244.507050 
	C401.818146,245.234497 403.965942,246.016022 406.182526,246.424927 
	C409.024719,246.949219 409.352722,248.771500 409.322296,251.170914 
	C409.286255,254.016495 407.524933,254.271622 405.344360,254.365997 
	C401.195679,254.545502 397.054901,254.916992 392.905762,255.072067 
	C390.841644,255.149231 387.994232,255.744034 387.956757,252.543549 
	C387.919983,249.401413 390.835602,250.025360 392.864807,249.748444 
	C393.516235,249.659546 394.179535,249.657898 395.290375,249.587708 
	C392.775726,247.241638 386.991241,249.399780 387.682343,244.194794 
	C388.271881,239.754761 393.169678,241.585022 396.672333,239.316513 
	C394.338806,239.316513 392.846252,239.304367 391.353973,239.319550 
	C389.434906,239.339081 387.397583,239.269089 387.373901,236.726807 
	C387.349365,234.096100 389.629974,234.200012 391.386353,234.106995 
	C395.370483,233.896011 399.363739,233.857300 403.830750,233.747559 
z"/>
<path fill="#000000" opacity="1.000000" stroke="none" 
	d="
M136.524078,326.170715 
	C140.985199,326.301300 148.681030,332.781342 149.586288,336.599731 
	C149.930191,338.050262 149.103683,338.803741 148.211975,339.528687 
	C146.792374,340.682800 145.311050,341.764008 143.823227,342.830566 
	C140.454651,345.245392 137.066177,347.632416 133.589890,350.098785 
	C129.939972,347.341156 127.779541,343.803345 125.672012,340.256226 
	C124.517975,338.313934 124.734703,335.528076 126.383728,334.805603 
	C130.641724,332.940002 132.411270,328.538788 136.524078,326.170715 
M141.712311,333.779724 
	C140.576492,332.653595 139.649948,330.846039 137.631973,331.988770 
	C136.319031,332.732239 136.602280,333.996490 137.352020,335.007294 
	C138.284271,336.264069 138.839050,338.398804 140.919891,337.838989 
	C142.586670,337.390503 143.173019,335.969940 141.712311,333.779724 
M132.511368,342.434601 
	C133.940735,343.349609 135.528015,343.153595 135.408554,341.426270 
	C135.240250,338.992340 133.721817,337.297302 130.920639,337.719452 
	C130.002731,339.750458 131.258194,340.799286 132.511368,342.434601 
z"/>
<path fill="#000000" opacity="1.000000" stroke="none" 
	d="
M356.345703,340.802917 
	C354.750427,339.405945 352.792969,338.453979 354.003723,336.166687 
	C354.963318,334.353729 356.702637,333.717194 358.636108,333.855255 
	C361.765533,334.078766 364.883881,334.456848 369.157227,334.884827 
	C366.313904,332.697754 364.303894,331.191864 362.341156,329.626709 
	C361.185333,328.704956 360.594757,327.577881 361.702606,326.217133 
	C362.644714,325.060028 363.826660,324.512756 365.173584,325.473480 
	C369.766541,328.749420 374.338318,332.055847 378.877899,335.405243 
	C379.884064,336.147644 380.365173,337.196869 379.609467,338.453430 
	C378.689911,339.982513 377.438660,340.978180 375.557373,340.815094 
	C372.136658,340.518555 368.719666,340.179413 364.187500,339.753357 
	C366.691406,341.671173 368.356628,342.928223 370.001129,344.211884 
	C371.369354,345.279938 373.555206,346.044434 371.896210,348.429169 
	C370.388000,350.597198 368.836731,349.563507 367.242554,348.426910 
	C363.728668,345.921387 360.171051,343.477173 356.345703,340.802917 
z"/>
<path fill="#000000" opacity="1.000000" stroke="none" 
	d="
M358.886749,163.616028 
	C358.424652,159.764221 362.095978,156.552795 359.678589,152.918457 
	C357.302765,152.827667 356.361633,154.668350 354.960510,155.711212 
	C353.557800,156.755234 352.321075,157.015656 351.037506,155.612762 
	C349.721619,154.174591 350.105194,152.967911 351.461304,151.811905 
	C355.499481,148.369583 359.509705,144.894424 363.553680,141.458969 
	C364.318848,140.808929 365.195251,140.347000 366.288055,140.663300 
	C368.333252,141.255310 375.238251,150.222519 375.043304,152.341034 
	C374.776825,155.237030 373.171631,157.943481 370.349579,157.986542 
	C365.976501,158.053299 364.788422,160.497757 363.934479,163.919083 
	C363.672455,164.968857 363.446014,166.237442 362.075562,166.743622 
	C360.339203,166.687271 359.667786,165.329910 358.886749,163.616028 
M368.918304,150.299698 
	C368.519897,149.784042 368.141235,149.251572 367.719269,148.755966 
	C366.586029,147.424942 365.060486,146.850067 364.100464,148.530518 
	C362.847198,150.724243 365.118439,151.752991 366.425476,152.664307 
	C368.287537,153.962631 369.546295,153.405014 368.918304,150.299698 
z"/>
<path fill="#000000" opacity="1.000000" stroke="none" 
	d="
M108.721359,190.243698 
	C107.028587,189.396393 105.522324,188.764725 105.964394,186.827042 
	C106.381599,184.998322 107.691284,184.034332 109.490814,183.781616 
	C112.764420,183.321884 116.046394,182.921722 120.627945,182.327774 
	C117.470383,180.798889 115.336555,179.789047 113.224854,178.734894 
	C111.857071,178.052094 110.379272,177.356384 111.438049,175.385651 
	C112.326233,173.732422 113.699211,173.619400 115.262650,174.319275 
	C119.811798,176.355637 124.356735,178.401398 128.905869,180.437775 
	C130.120773,180.981613 131.566055,181.412781 131.383438,183.114120 
	C131.161331,185.183731 129.759949,186.454498 127.826912,186.774109 
	C124.399071,187.340851 120.928299,187.648010 116.457375,188.186386 
	C119.334091,189.528671 121.444588,190.524414 123.564796,191.499023 
	C125.078651,192.194946 126.919144,192.702728 125.910736,195.015060 
	C124.854912,197.436111 123.121109,196.748123 121.342766,195.932083 
	C117.265831,194.061310 113.168724,192.234528 108.721359,190.243698 
z"/>
<path fill="#000000" opacity="1.000000" stroke="none" 
	d="
M205.326340,113.751297 
	C201.872040,112.592781 201.526688,113.967064 202.396667,116.569489 
	C203.038544,118.489616 204.712570,120.899620 201.439362,121.899284 
	C198.240311,122.876297 198.204163,119.860016 197.491547,118.020432 
	C196.056396,114.315598 194.890701,110.504570 193.403854,106.822144 
	C192.181854,103.795670 193.053345,102.094551 196.130341,101.274101 
	C197.406143,100.933907 198.629105,100.397423 199.879929,99.961212 
	C203.226379,98.794151 206.597336,97.624290 209.592422,100.709152 
	C212.434906,103.636818 211.260544,106.777168 209.750244,109.733238 
	C211.918060,112.262100 215.538605,112.824387 216.850433,116.257355 
	C211.974686,120.431984 209.150406,115.439362 205.326340,113.751297 
M198.903793,106.415604 
	C199.916428,109.997131 202.096741,108.150108 203.908203,107.401459 
	C204.961044,106.966324 206.153107,106.043243 205.374496,104.765968 
	C203.953888,102.435524 202.219711,104.347290 200.653625,104.783272 
	C200.065384,104.947037 199.579391,105.478111 198.903793,106.415604 
z"/>
<path fill="#000000" opacity="1.000000" stroke="none" 
	d="
M381.338867,173.401260 
	C379.846680,177.889969 377.647766,181.210052 372.497314,180.613251 
	C368.808136,180.185776 364.871033,175.304626 364.795135,171.255768 
	C364.746704,168.674088 365.345612,165.616196 368.345001,165.664368 
	C371.158020,165.709564 370.846893,168.317978 370.298096,170.666718 
	C369.743652,173.039581 370.766846,174.831696 373.482697,175.262451 
	C375.844788,173.249878 374.160858,171.223755 373.488312,169.378815 
	C372.155792,165.723404 372.971100,162.746765 376.163025,160.713608 
	C379.522369,158.573792 382.248688,160.482040 384.471008,162.887711 
	C386.968567,165.591370 388.299957,168.677643 386.265991,172.377594 
	C385.008301,174.665344 383.317963,173.831085 381.338867,173.401260 
z"/>
<path fill="#000000" opacity="1.000000" stroke="none" 
	d="
M300.518890,113.225952 
	C299.726379,115.022308 299.026062,116.530426 298.399445,118.068565 
	C297.752014,119.657822 296.786377,120.688942 294.984070,119.859489 
	C293.211853,119.043877 293.368958,117.593773 293.981598,116.048569 
	C295.695831,111.724953 297.348938,107.376869 299.092224,103.065147 
	C299.702271,101.556313 300.231110,99.668694 302.413055,99.989296 
	C304.445526,100.287926 305.572968,101.832344 305.962097,103.732262 
	C306.622742,106.957932 307.102203,110.220703 307.903473,114.903664 
	C309.195984,111.647118 309.920746,109.568298 310.841034,107.580002 
	C311.619415,105.898293 311.966980,103.227180 314.857971,104.510971 
	C317.255280,105.575523 316.240173,107.489456 315.549622,109.208694 
	C313.939850,113.216606 312.374786,117.242760 310.730408,121.236328 
	C310.128174,122.698906 309.894501,124.747734 307.583923,124.418327 
	C305.536865,124.126480 304.434937,122.586632 303.970093,120.722588 
	C303.327637,118.146515 302.970459,115.499344 302.329529,112.922821 
	C301.865875,111.058884 301.193054,111.871422 300.518890,113.225952 
z"/>
<path fill="#000000" opacity="1.000000" stroke="none" 
	d="
M97.747269,211.960602 
	C98.974586,207.116364 101.483276,204.119629 106.399162,203.956894 
	C111.104820,203.801117 115.509666,204.867142 118.135742,209.102295 
	C120.915115,213.584702 118.688309,218.126373 117.381104,222.531708 
	C116.914185,224.105209 115.470955,224.153854 114.054085,223.815735 
	C109.047546,222.620941 103.972893,221.655457 99.049713,220.182907 
	C93.836441,218.623611 97.764740,215.039642 97.747269,211.960602 
M102.404366,212.831024 
	C103.437622,216.158325 111.509140,219.093063 113.648506,216.822723 
	C115.044510,215.341248 115.140717,213.468353 113.805832,211.822067 
	C111.145218,208.540771 105.612679,208.721664 102.404366,212.831024 
z"/>
<path fill="#000000" opacity="1.000000" stroke="none" 
	d="
M239.438873,286.524536 
	C240.661972,289.771973 242.120636,293.148743 238.073364,295.964417 
	C232.559174,295.763733 229.009476,298.548340 225.764084,302.166351 
	C223.922592,304.219299 221.863388,307.079102 218.657104,305.085724 
	C215.064667,302.852295 212.669144,299.580109 213.347229,293.835541 
	C220.437134,296.930023 224.769287,292.802032 229.144501,288.867767 
	C232.065140,286.241455 235.648376,286.731171 239.438873,286.524536 
z"/>
<path fill="#000000" opacity="1.000000" stroke="none" 
	d="
M380.842651,311.132690 
	C383.339935,314.058777 385.586182,316.726898 387.877502,319.355743 
	C389.157898,320.824738 389.977631,322.268738 388.894958,324.279846 
	C387.839417,326.240509 386.264130,326.517761 384.282166,326.290344 
	C379.013184,325.685852 373.733582,325.174164 368.459320,324.615112 
	C366.987946,324.459137 365.102844,324.518890 365.139557,322.485260 
	C365.170471,320.772888 366.327301,319.494049 368.105286,318.894318 
	C374.537201,316.724854 374.556671,316.700592 373.043243,309.871887 
	C372.706238,308.351318 373.248535,307.250000 374.344696,306.385895 
	C375.556305,305.430786 376.560883,306.218109 377.372101,307.077026 
	C378.510223,308.282074 379.536377,309.592804 380.842651,311.132690 
z"/>
<path fill="#000000" opacity="1.000000" stroke="none" 
	d="
M111.801826,244.253632 
	C106.714676,243.914368 102.086105,243.520432 97.451172,243.226929 
	C94.779823,243.057770 93.773758,241.769089 93.683975,239.086075 
	C93.371605,229.751633 97.180313,225.372162 105.580009,225.718658 
	C114.601845,226.090851 119.567001,235.381104 114.865883,243.107254 
	C114.275589,244.077393 113.260597,244.168930 111.801826,244.253632 
M108.052078,238.682953 
	C110.842674,238.709564 111.421906,236.845154 111.166222,234.669922 
	C110.884262,232.271118 108.961075,231.427948 106.857529,231.302094 
	C104.133087,231.139084 101.041275,230.200378 99.293701,233.414917 
	C98.052528,235.697968 98.105667,237.642303 101.322800,238.054062 
	C103.293861,238.306335 105.274254,238.485703 108.052078,238.682953 
z"/>
<path fill="#000000" opacity="1.000000" stroke="none" 
	d="
M107.045578,306.094910 
	C108.834862,304.875946 111.090179,305.059479 111.987404,303.245972 
	C112.632896,301.941284 111.739456,300.659576 111.042618,299.553741 
	C109.862938,297.681763 108.231285,298.328583 106.621452,298.909576 
	C104.676903,299.611328 102.630165,300.325287 101.743774,297.513794 
	C100.897804,294.830475 103.203804,294.546204 104.797218,293.917938 
	C108.965416,292.274567 113.184982,290.761932 117.372566,289.166931 
	C119.106812,288.506409 120.941391,287.528015 122.041084,289.943451 
	C123.270142,292.642975 121.147308,293.386566 119.290237,294.213776 
	C118.087570,294.749512 116.892212,295.301636 115.751587,295.820007 
	C116.352867,301.580170 116.742851,301.875824 122.042175,300.269867 
	C123.864159,299.717682 125.562012,298.970612 126.594315,301.442902 
	C127.687988,304.062164 125.754509,304.619659 124.046005,305.269623 
	C119.546913,306.981262 115.075966,308.792664 110.495049,310.254944 
	C107.011520,311.366913 105.235695,310.252136 107.045578,306.094910 
z"/>
<path fill="#000000" opacity="1.000000" stroke="none" 
	d="
M360.196777,137.263016 
	C356.514038,138.963776 355.459442,135.560562 353.358429,134.292450 
	C352.160553,133.569458 350.965271,131.636734 349.554230,133.120895 
	C347.731049,135.038620 350.164185,135.876389 351.188507,136.978226 
	C351.524048,137.339188 352.036530,137.539795 352.357025,137.909897 
	C353.536987,139.272385 356.382935,140.181870 354.371765,142.619751 
	C352.356750,145.062302 350.856537,142.636475 349.416077,141.510895 
	C345.339935,138.325729 345.367493,138.290482 342.793793,140.801239 
	C343.893646,143.130737 346.271118,144.253784 347.932495,146.054352 
	C349.020416,147.233414 350.823914,148.322235 349.049957,150.163971 
	C347.379089,151.898682 346.049591,150.398834 344.748291,149.408157 
	C334.783875,141.822220 334.782501,141.817963 342.871338,132.241470 
	C350.746368,122.918037 349.197815,125.087944 356.838013,131.403198 
	C358.492004,132.770355 361.835175,133.495880 360.196777,137.263016 
z"/>
<path fill="#000000" opacity="1.000000" stroke="none" 
	d="
M116.977997,268.596802 
	C117.458862,270.688751 116.320267,271.578400 115.231102,272.694244 
	C112.746010,275.240082 113.496078,279.060791 116.648560,280.849030 
	C119.774269,282.622101 119.774284,282.622070 119.795219,286.362274 
	C112.802338,286.366180 105.985313,285.003937 99.333359,283.263702 
	C96.669212,282.566742 95.641609,279.413788 98.359207,277.387360 
	C103.281990,273.716553 108.561562,270.522278 113.714912,267.163910 
	C115.160118,266.222137 116.219887,266.737000 116.977997,268.596802 
z"/>
<path fill="#000000" opacity="1.000000" stroke="none" 
	d="
M129.766144,325.045074 
	C125.700226,325.549011 122.077812,326.146088 118.432930,326.359772 
	C114.688339,326.579315 112.601891,323.470123 114.741791,320.627167 
	C118.694778,315.375458 123.090187,310.456757 127.295433,305.406342 
	C130.059158,307.102692 130.637070,308.669586 129.523834,311.172028 
	C127.679039,315.318939 129.129303,317.940002 133.780823,318.901031 
	C136.242920,319.409729 137.699371,320.413513 137.775696,323.235260 
	C135.536758,325.062683 132.583115,323.909790 129.766144,325.045074 
z"/>
<path fill="#000000" opacity="1.000000" stroke="none" 
	d="
M394.856995,276.377258 
	C387.677094,275.359802 385.057037,272.458221 385.808350,266.785858 
	C386.631805,260.569000 390.267883,258.223022 397.279999,259.274414 
	C400.231567,259.716949 403.218170,259.924133 406.171906,260.354584 
	C407.768555,260.587280 409.101440,261.353180 408.805969,263.289490 
	C408.524933,265.131409 407.231964,265.658691 405.506775,265.457336 
	C402.210938,265.072662 398.915314,264.681854 395.613556,264.354248 
	C393.232880,264.118042 391.079102,264.704559 390.723114,267.394562 
	C390.365295,270.098236 392.589447,270.578979 394.626678,270.870544 
	C397.746307,271.317047 400.889648,271.603241 404.002869,272.086670 
	C405.673523,272.346069 407.417725,272.811707 407.064606,275.143616 
	C406.772095,277.075439 405.264679,277.404541 403.695770,277.287354 
	C400.887268,277.077606 398.089783,276.720215 394.856995,276.377258 
z"/>
<path fill="#000000" opacity="1.000000" stroke="none" 
	d="
M246.422546,111.929611 
	C244.681351,113.010155 243.352325,112.536179 241.427887,111.627060 
	C244.015961,105.505356 246.351547,99.498459 249.100555,93.687119 
	C250.425568,90.886047 254.128998,90.795807 255.445953,93.597488 
	C258.241821,99.545372 260.517029,105.738007 262.955353,111.707062 
	C260.227417,113.595016 258.689880,113.029800 257.172272,111.194931 
	C253.534561,106.796806 249.810165,107.020599 246.422546,111.929611 
z"/>
<path fill="#000000" opacity="1.000000" stroke="none" 
	d="
M110.434052,258.844330 
	C112.314919,253.945511 109.236137,253.498215 105.997169,253.545166 
	C103.023239,253.588272 100.057938,254.058990 97.082344,254.224976 
	C95.523773,254.311935 94.045860,254.043701 93.860847,251.989944 
	C93.683731,250.023926 94.861664,249.328049 96.518837,249.125168 
	C101.150360,248.558243 105.836128,248.308640 110.435432,248.931854 
	C114.943275,249.542664 115.968689,253.258606 116.134407,257.111023 
	C116.301041,260.984985 114.752312,264.152161 110.749290,265.013611 
	C106.549461,265.917358 102.243904,266.484833 97.897713,266.288544 
	C96.363831,266.219238 94.791718,266.233978 94.594398,264.149414 
	C94.388611,261.975281 95.752052,261.293060 97.583893,260.967133 
	C101.766914,260.222870 106.300812,261.848877 110.434052,258.844330 
z"/>
<path fill="#000000" opacity="1.000000" stroke="none" 
	d="
M189.059021,377.911865 
	C191.230865,375.885315 191.230865,375.885315 194.206314,375.110504 
	C193.649048,378.037659 191.156158,379.530823 190.045334,381.804443 
	C188.987823,383.968903 187.094437,386.361023 189.784836,388.507294 
	C192.221817,390.451447 195.069595,390.186340 197.789642,388.851654 
	C199.442520,388.040649 199.404724,386.834991 199.027664,385.111450 
	C198.073380,380.749725 201.221863,376.205414 205.598923,375.872711 
	C210.138260,375.527710 214.729645,375.722961 219.376602,377.113373 
	C217.783646,381.069244 214.555649,379.721252 212.022797,379.825439 
	C209.285507,379.937988 206.527435,379.544769 203.689865,379.366608 
	C204.760727,387.184479 201.618988,391.929077 194.333206,394.298187 
	C191.300278,395.284424 188.404968,395.492737 186.053131,392.885254 
	C183.749298,390.330994 183.977097,387.377228 185.186661,384.467529 
	C185.881699,382.795563 186.914108,381.263824 188.088593,379.160187 
	C188.608032,378.404877 188.833527,378.158356 189.059021,377.911865 
z"/>
<path fill="#000000" opacity="1.000000" stroke="none" 
	d="
M281.052155,116.342041 
	C274.508087,114.192772 273.037292,111.714622 274.409058,105.525833 
	C275.092163,102.444000 275.881744,99.385864 276.611176,96.314163 
	C277.010529,94.632431 277.891754,93.567909 279.772125,94.019882 
	C281.698059,94.482780 281.865417,95.920731 281.487335,97.540825 
	C280.845123,100.292587 280.072083,103.017944 279.540344,105.790123 
	C279.093964,108.117485 278.733398,110.688835 281.847351,111.513199 
	C285.041779,112.358879 285.842712,109.924507 286.476807,107.601555 
	C287.263977,104.717743 287.971527,101.810089 288.628021,98.893501 
	C289.037628,97.073792 290.076813,96.368019 291.868134,96.720192 
	C293.825836,97.105095 294.110016,98.329018 293.640869,100.071342 
	C292.820038,103.120064 292.205566,106.226730 291.320129,109.255180 
	C289.422760,115.744881 288.264954,116.526253 281.052155,116.342041 
z"/>
<path fill="#000000" opacity="1.000000" stroke="none" 
	d="
M340.204132,361.859924 
	C341.717987,363.403625 342.861633,365.180359 345.005981,364.462738 
	C347.061310,363.774872 346.135040,361.612671 346.742920,360.226868 
	C348.473114,356.282837 347.428558,352.002014 348.130493,346.586731 
	C352.559875,351.570282 350.171021,357.470673 353.832947,360.679016 
	C352.704987,362.769043 351.338531,360.957916 350.403381,361.751526 
	C349.746460,371.392822 348.632446,372.225769 340.962158,368.775879 
	C339.209351,369.626556 339.286285,371.489288 338.695068,372.977539 
	C338.118347,374.429230 338.756439,376.330811 336.822632,377.786285 
	C334.451782,374.697876 331.586700,372.090210 333.453949,367.765472 
	C334.390686,365.595825 335.894775,364.743256 338.492889,367.312805 
	C337.932434,361.517517 332.003876,359.812592 332.072601,354.369415 
	C336.055450,355.690857 337.207184,359.570801 340.204132,361.859924 
z"/>
<path fill="#000000" opacity="1.000000" stroke="none" 
	d="
M248.975693,336.976440 
	C248.344803,339.742218 249.376297,342.587433 248.442291,345.374939 
	C247.479248,348.249023 245.995560,350.483856 242.839035,351.072174 
	C240.485687,351.510803 237.050156,349.973389 237.419769,348.828857 
	C238.934677,344.138000 234.346390,340.211060 236.375687,335.742615 
	C238.329147,331.441040 245.483948,329.942322 248.788681,336.746582 
	C248.998215,336.998627 248.975693,336.976440 248.975693,336.976440 
z"/>
<path fill="#000000" opacity="1.000000" stroke="none" 
	d="
M344.070801,124.398148 
	C339.676788,127.661476 335.563110,130.743744 331.417633,133.782654 
	C329.676086,135.059311 327.998169,136.454422 325.645294,134.675949 
	C323.587555,133.120560 324.055725,131.357437 324.580292,129.347275 
	C325.708893,125.022171 326.639313,120.645386 327.766144,116.319786 
	C328.192657,114.682587 328.242920,112.192444 330.958038,112.969460 
	C333.363922,113.657990 333.497223,115.637054 332.866302,117.834290 
	C331.964722,120.974220 331.224457,124.160484 330.113373,128.508392 
	C333.987457,125.542351 336.941559,123.256165 339.924377,121.008080 
	C341.264130,119.998329 342.661560,119.956932 344.056488,120.966576 
	C345.407227,121.944260 345.687531,122.995995 344.070801,124.398148 
z"/>
<path fill="#000000" opacity="1.000000" stroke="none" 
	d="
M405.932312,220.887085 
	C399.509430,219.744873 393.927521,215.699066 387.273376,218.203186 
	C385.945831,218.702759 384.632416,217.918182 384.086487,216.483902 
	C383.626556,215.275497 383.823608,213.807159 385.152954,213.613831 
	C392.357758,212.565979 396.896149,207.364731 401.648163,202.616013 
	C404.763245,206.390732 404.763245,206.390732 399.044189,212.900589 
	C401.185150,215.760941 408.812500,213.790909 405.932312,220.887085 
z"/>
<path fill="#000000" opacity="1.000000" stroke="none" 
	d="
M381.452759,195.218628 
	C385.454254,193.529617 389.389526,192.609802 392.595947,190.375015 
	C393.354828,189.009445 392.592651,187.983597 392.237549,186.914444 
	C391.764008,185.488556 392.499207,184.683731 393.670898,184.164642 
	C395.033508,183.560989 395.985687,184.275803 396.495575,185.426468 
	C398.179047,189.225143 399.795563,193.054504 401.369965,196.899872 
	C401.865936,198.111252 401.583527,199.222183 400.287231,199.826187 
	C399.262299,200.303757 398.166565,200.169312 397.675964,199.160934 
	C395.763214,195.229172 392.958252,196.546463 390.104095,197.693909 
	C387.789185,198.624588 385.438782,199.466476 383.112732,200.370010 
	C381.489899,201.000397 379.852875,201.606766 378.875641,199.469833 
	C377.824219,197.170639 379.163879,196.083008 381.452759,195.218628 
z"/>
<path fill="#000000" opacity="1.000000" stroke="none" 
	d="
M233.445038,113.657372 
	C231.737671,106.284264 227.709946,100.532318 222.708878,95.274948 
	C226.564758,93.393463 226.564758,93.393463 233.177750,99.066689 
	C236.260391,97.309196 235.274506,90.082779 241.644180,92.424088 
	C241.894821,95.081779 240.280624,96.940102 239.270721,98.972198 
	C237.558350,102.417747 235.755234,105.675255 237.080978,109.848145 
	C237.821472,112.178963 237.013931,114.249710 233.445038,113.657372 
z"/>
<path fill="#000000" opacity="1.000000" stroke="none" 
	d="
M264.044861,348.125488 
	C263.316437,343.068604 265.862030,344.883942 267.920105,345.964050 
	C269.083099,346.574463 270.137573,346.845551 270.974304,345.671417 
	C271.309235,345.201447 271.489075,344.362366 271.311005,343.836334 
	C270.869629,342.532349 269.718872,342.169617 268.482117,342.525360 
	C266.453979,343.108795 263.834106,343.681488 264.064819,340.773102 
	C264.298798,337.822815 263.462311,333.835297 267.623383,332.350708 
	C268.229797,332.134338 268.942413,332.062469 269.584808,332.128540 
	C271.604950,332.336334 274.479340,331.450714 275.010986,334.255981 
	C275.719910,337.996918 271.981232,336.408844 269.881866,337.527832 
	C273.873444,338.523529 276.151642,340.743225 276.051086,344.552094 
	C275.982483,347.152313 274.722107,349.334259 272.184845,350.466278 
	C269.021027,351.877777 266.388947,351.063293 264.044861,348.125488 
z"/>
<path fill="#000000" opacity="1.000000" stroke="none" 
	d="
M390.378204,307.377228 
	C386.530548,305.805634 382.978333,304.438873 379.439514,303.038239 
	C377.592896,302.307373 376.110718,301.306152 377.184662,298.963135 
	C378.135620,296.888489 379.735229,297.294067 381.387756,297.926300 
	C384.016632,298.932098 386.675079,299.864075 389.280762,300.926056 
	C391.849274,301.972870 394.293610,303.113251 395.725159,299.341278 
	C396.288757,297.856232 397.596344,297.535706 399.001831,298.350647 
	C400.257599,299.078735 400.195953,300.212982 399.737549,301.385590 
	C398.471649,304.623627 397.234222,307.873901 395.897247,311.082520 
	C395.279510,312.565002 394.759735,314.536133 392.536377,313.944641 
	C390.308441,313.351929 390.722656,311.525421 391.149292,309.859985 
	C391.366913,309.010376 391.335693,308.229675 390.378204,307.377228 
z"/>
<path fill="#000000" opacity="1.000000" stroke="none" 
	d="
M274.538635,387.573608 
	C275.478882,386.249207 275.479187,385.076874 275.230957,383.926453 
	C273.421844,375.541870 275.421967,371.672028 287.264771,366.637756 
	C287.532013,373.341187 276.616058,372.092377 278.103760,379.491486 
	C279.974243,379.865326 281.820129,377.900726 283.292755,379.975983 
	C283.966217,380.925079 283.953156,381.738647 283.453186,382.728210 
	C282.253418,385.102875 280.233459,383.307739 278.401001,383.686676 
	C279.182251,391.102692 272.242920,394.609741 269.811005,400.513794 
	C269.083923,402.279022 266.006195,402.716217 262.141479,401.334015 
	C268.940735,398.353912 270.564545,392.285400 274.538635,387.573608 
z"/>
<path fill="#000000" opacity="1.000000" stroke="none" 
	d="
M304.722290,396.633179 
	C302.013885,399.485138 299.257538,401.208221 295.641418,399.369385 
	C292.157715,397.597809 290.230652,391.936096 290.860046,385.404907 
	C293.158569,386.530548 292.463562,388.890717 293.169891,390.489410 
	C295.101685,394.861511 298.106201,395.687317 301.725311,392.581177 
	C304.698090,390.029755 305.878479,386.478088 304.654877,383.120239 
	C302.739838,377.864777 303.343292,373.808441 308.359589,370.506683 
	C309.868073,371.627716 309.760010,373.620789 308.769531,374.976868 
	C306.531250,378.041351 306.997131,381.179443 307.644043,384.467987 
	C308.497772,388.807709 307.119568,392.663147 304.722290,396.633179 
z"/>
<path fill="#000000" opacity="1.000000" stroke="none" 
	d="
M386.107544,288.230957 
	C385.674316,289.689484 385.414551,290.829651 384.967194,291.890717 
	C384.389465,293.261017 383.396301,294.008026 381.817657,293.389648 
	C380.521576,292.881897 380.046753,291.837708 380.381012,290.598022 
	C381.284058,287.249115 382.239990,283.910736 383.308655,280.611511 
	C383.967285,278.578094 385.758179,278.493347 387.424744,278.904053 
	C392.400940,280.130402 397.345367,281.486420 402.296661,282.812622 
	C403.973328,283.261719 404.905579,284.243225 404.328247,286.091919 
	C403.796387,287.794983 402.633881,288.463745 400.890778,288.010620 
	C397.532867,287.137817 394.169952,286.281799 390.827759,285.351807 
	C388.416229,284.680786 386.514282,284.783691 386.107544,288.230957 
z"/>
<path fill="#000000" opacity="1.000000" stroke="none" 
	d="
M325.076141,370.172394 
	C325.320862,372.975372 326.702332,375.597321 326.281952,378.519562 
	C325.847473,381.540100 325.011322,384.268280 321.308502,384.164368 
	C318.998322,384.099548 318.950439,386.200470 317.738861,387.148315 
	C316.244354,388.317505 315.136414,390.139496 311.563538,390.367706 
	C314.989349,385.388275 316.657471,380.629333 316.191040,375.702515 
	C317.724670,375.225006 318.044586,375.820465 318.415222,376.367615 
	C319.391785,377.809052 320.476990,379.295349 322.398041,377.841156 
	C324.140594,376.522064 323.314423,374.869537 322.559418,373.344757 
	C321.157349,370.513062 319.701965,367.707153 318.340393,364.856323 
	C317.848206,363.825745 317.451324,362.694031 318.404816,361.560913 
	C321.098297,362.010956 321.059418,364.730591 322.805481,366.779266 
	C323.836853,368.252838 324.456512,369.212616 325.076141,370.172394 
z"/>
<path fill="#000000" opacity="1.000000" stroke="none" 
	d="
M249.009155,337.009827 
	C249.055618,334.998077 248.941940,332.728424 251.621155,332.373749 
	C254.889969,331.941010 258.318573,331.361816 261.351013,333.113800 
	C262.747406,333.920563 262.147278,335.542480 261.337555,336.662079 
	C258.855652,340.093750 257.403839,343.952759 256.492737,348.032623 
	C256.125244,349.678253 255.580231,351.002838 253.575684,350.433990 
	C251.537918,349.855743 251.876831,348.188568 252.273514,346.748291 
	C253.097092,343.758057 254.068405,340.808472 254.949493,337.938232 
	C253.101562,336.722504 251.373657,337.235870 249.368668,336.986084 
	C248.975693,336.976440 248.998215,336.998627 249.009155,337.009827 
z"/>
<path fill="#000000" opacity="1.000000" stroke="none" 
	d="
M391.531250,181.799774 
	C386.927124,184.106995 382.635101,186.252350 378.318512,188.347015 
	C376.632172,189.165329 374.867035,189.931702 373.634186,187.638184 
	C372.305389,185.166199 374.249542,184.442398 375.866669,183.615463 
	C380.137817,181.431351 384.418243,179.264771 388.716919,177.135468 
	C390.091583,176.454544 391.544678,175.957870 392.726318,177.520096 
	C394.008087,179.214798 393.614838,180.574966 391.531250,181.799774 
z"/>
<path fill="#000000" opacity="1.000000" stroke="none" 
	d="
M219.580902,396.346405 
	C216.925629,398.655975 214.032547,398.820068 210.532959,397.377777 
	C211.842194,394.608582 214.772949,395.473663 216.769119,393.902039 
	C216.560257,392.009613 215.126343,389.680450 217.190826,387.780304 
	C217.908081,387.120117 219.255295,385.902100 219.358002,385.995178 
	C223.822479,390.039215 228.264008,384.519409 232.901688,385.932037 
	C232.694824,388.737152 230.902817,389.668335 228.638794,389.929047 
	C225.095032,390.337158 222.526840,392.224518 220.184845,395.454407 
	C219.809250,396.081787 219.695084,396.214111 219.580902,396.346405 
z"/>
<path fill="#000000" opacity="1.000000" stroke="none" 
	d="
M320.181793,111.152267 
	C321.339355,109.244621 322.535706,108.200996 324.424988,109.425308 
	C326.382111,110.693573 325.530884,112.318970 324.762024,113.794861 
	C322.541229,118.057884 320.246613,122.282402 317.989227,126.526428 
	C317.103485,128.191727 315.953674,129.214111 314.017029,128.072662 
	C312.020966,126.896210 312.668427,125.366821 313.502716,123.797714 
	C315.681610,119.699692 317.830017,115.585442 320.181793,111.152267 
z"/>
<path fill="#000000" opacity="1.000000" stroke="none" 
	d="
M113.322647,201.832581 
	C110.122269,200.746048 107.273575,199.848282 104.468628,198.830032 
	C102.874336,198.251266 102.023903,197.127960 102.682281,195.330002 
	C103.356781,193.488022 104.791977,193.357239 106.348114,193.874405 
	C111.383316,195.547806 116.402107,197.271301 121.414772,199.011383 
	C122.802574,199.493134 123.741478,200.393494 123.270233,202.019806 
	C122.774643,203.730179 121.591278,204.467834 119.849281,203.958511 
	C117.780243,203.353561 115.743431,202.638336 113.322647,201.832581 
z"/>
<path fill="#000000" opacity="1.000000" stroke="none" 
	d="
M217.364120,109.450317 
	C216.457336,105.846252 215.604187,102.651779 214.907562,99.423523 
	C214.539780,97.719185 214.602661,96.033234 216.887802,95.623161 
	C219.194916,95.209152 219.720078,96.922127 220.127487,98.528908 
	C221.263977,103.010963 222.301453,107.518333 223.354858,112.021133 
	C223.731903,113.632751 224.337738,115.399406 221.997559,116.070404 
	C219.530991,116.777641 218.801529,115.123596 218.321243,113.211220 
	C218.039658,112.089966 217.762115,110.967682 217.364120,109.450317 
z"/>
<path fill="#000000" opacity="1.000000" stroke="none" 
	d="
M245.175232,393.024963 
	C243.737183,395.102234 242.475403,396.852509 241.301651,398.659912 
	C239.259995,401.803802 236.566299,402.180939 233.220810,400.981995 
	C234.057846,398.383575 236.762207,398.829041 238.193527,396.916779 
	C236.900192,394.326691 236.614838,391.532471 238.990646,389.025024 
	C240.882767,387.028046 242.226120,389.621063 244.046021,389.590149 
	C245.419540,387.339600 243.848267,383.298279 248.238312,382.419495 
	C248.947861,386.480988 247.279602,389.630554 245.175232,393.024963 
z"/>
<path fill="#000000" opacity="1.000000" stroke="none" 
	d="
M228.078796,349.352783 
	C227.790863,346.306946 227.665192,343.650269 227.533310,340.861908 
	C226.664490,339.475800 222.535538,341.067322 223.949493,337.794434 
	C225.109116,335.110199 227.504211,332.953918 230.618362,332.455841 
	C232.071838,332.223389 232.321518,333.798553 232.325485,334.992035 
	C232.339905,339.324158 232.416428,343.661316 232.237457,347.986938 
	C232.116714,350.905151 230.525742,351.319519 228.078796,349.352783 
z"/>
<path fill="#000000" opacity="1.000000" stroke="none" 
	d="
M252.740189,385.599731 
	C252.916229,383.948761 252.651718,382.471771 254.960022,381.844238 
	C255.431152,385.051422 256.019623,388.169525 256.316589,391.315125 
	C256.649445,394.841003 257.455811,397.561646 261.965698,395.909332 
	C262.628174,399.401886 261.843842,402.365356 258.572662,402.794678 
	C255.167252,403.241638 254.651398,399.835327 254.205170,397.284302 
	C253.552368,393.552307 253.212631,389.765503 252.740189,385.599731 
z"/>
<path fill="#000000" opacity="1.000000" stroke="none" 
	d="
M304.775757,231.808258 
	C304.658356,229.549057 304.597778,227.704727 306.363739,226.467804 
	C311.468353,229.572220 313.177429,237.229752 309.529602,241.623337 
	C306.334747,239.271530 305.973541,235.532684 304.775757,231.808258 
z"/>
<path fill="#000000" opacity="1.000000" stroke="none" 
	d="
M325.296265,370.398224 
	C324.456512,369.212616 323.836853,368.252838 322.969177,367.047485 
	C322.590546,365.207581 322.459900,363.613251 322.319153,361.895874 
	C326.803375,363.627899 331.924622,372.513794 331.141815,377.723206 
	C329.074677,375.114532 327.295532,372.869293 325.296265,370.398224 
z"/>
<path fill="#000000" opacity="1.000000" stroke="none" 
	d="
M205.945404,395.188232 
	C204.113022,395.024597 202.556305,395.127228 201.313736,393.035919 
	C206.076111,391.340179 210.491135,389.098206 213.762314,384.972717 
	C212.766556,389.610352 211.035446,393.490967 205.945404,395.188232 
z"/>
<path fill="#000000" opacity="1.000000" stroke="none" 
	d="
M220.090973,395.747925 
	C223.723953,392.755219 226.805908,395.370514 229.460846,396.804932 
	C231.644302,397.984589 229.853180,400.937622 228.315475,400.582367 
	C225.365189,399.900787 221.220245,401.262512 219.632019,396.678925 
	C219.695084,396.214111 219.809250,396.081787 220.090973,395.747925 
z"/>
<path fill="#000000" opacity="1.000000" stroke="none" 
	d="
M243.641266,408.557190 
	C241.530167,408.918549 240.014542,407.606171 238.057419,408.002533 
	C236.228088,408.372955 234.861374,407.123627 235.175568,405.064117 
	C235.354218,403.893127 236.854446,402.522095 237.535599,403.067230 
	C239.907913,404.965790 243.235489,401.994415 245.192963,404.821045 
	C246.374542,406.527222 245.276199,407.534363 243.641266,408.557190 
z"/>
<path fill="#000000" opacity="1.000000" stroke="none" 
	d="
M283.169495,387.502258 
	C283.756348,386.976105 284.517426,386.583740 284.569061,386.661652 
	C287.879120,391.655121 284.201630,399.093140 277.168274,399.821716 
	C279.732300,395.749146 283.330627,392.604797 283.169495,387.502258 
z"/>
<path fill="#000000" opacity="1.000000" stroke="none" 
	d="
M315.813049,397.019531 
	C313.970062,398.063049 312.367584,398.840515 310.755310,399.597076 
	C309.341034,400.260742 308.160034,399.889709 307.398132,398.580505 
	C306.703064,397.386169 307.221252,396.142944 308.197357,395.552399 
	C309.850342,394.552399 311.654175,393.494049 313.509094,393.211304 
	C315.969513,392.836182 317.321106,394.039612 315.813049,397.019531 
z"/>
<path fill="#000000" opacity="1.000000" stroke="none" 
	d="
M211.401520,367.995361 
	C212.388763,370.183075 211.700333,371.497803 210.045929,372.413788 
	C207.832748,373.639160 206.079163,372.798737 204.156601,371.048523 
	C206.514297,368.419220 208.687897,365.995209 210.872314,363.559113 
	C212.659302,365.223572 211.194382,366.441467 211.401520,367.995361 
z"/>
<path fill="#000000" opacity="1.000000" stroke="none" 
	d="
M256.451782,409.359802 
	C254.654495,407.164185 255.287354,405.285461 257.446808,405.088135 
	C259.842224,404.869171 262.874603,403.199951 264.752655,405.925537 
	C265.760956,407.388916 264.153778,409.364685 262.877380,409.097412 
	C260.651184,408.631195 258.814240,410.512787 256.451782,409.359802 
z"/>
<path fill="#000000" opacity="1.000000" stroke="none" 
	d="
M188.968903,377.537781 
	C188.833527,378.158356 188.608032,378.404877 188.198807,378.820557 
	C186.096222,378.504242 185.455856,379.343750 185.193314,381.217773 
	C184.980392,382.737518 183.674866,383.395935 182.166931,382.734467 
	C180.529434,382.016113 180.114624,380.680969 180.802917,379.040802 
	C182.006699,376.172150 185.773865,375.303772 188.968903,377.537781 
z"/>
<path fill="#000000" opacity="1.000000" stroke="none" 
	d="
M351.101166,367.699951 
	C350.831421,366.091125 350.513031,364.783356 351.855072,363.940613 
	C354.026978,364.488708 352.849731,367.518250 355.231323,367.838287 
	C356.714355,368.037537 357.315765,369.343353 357.016357,370.844910 
	C356.841339,371.722504 356.192352,372.255402 355.308319,372.370789 
	C353.951752,372.547760 353.187927,371.662659 352.575867,370.650970 
	C352.068848,369.812958 351.656769,368.917572 351.101166,367.699951 
z"/>
<path fill="#000000" opacity="1.000000" stroke="none" 
	d="
M228.413513,380.908081 
	C228.966782,378.062561 230.328812,376.731140 232.875351,378.380066 
	C233.963318,379.084595 234.917236,380.376984 233.709381,381.698334 
	C231.889984,383.688721 230.054382,383.670013 228.413513,380.908081 
z"/>
<path fill="#000000" opacity="1.000000" stroke="none" 
	d="
M300.219543,383.812286 
	C301.329498,386.439941 300.540863,387.969666 297.983307,388.135284 
	C296.451935,388.234467 295.398682,387.206512 295.649323,385.630066 
	C296.054626,383.080414 297.559448,382.319489 300.219543,383.812286 
z"/>
<path fill="#000000" opacity="1.000000" stroke="none" 
	d="
M360.782928,362.816345 
	C358.837585,364.782471 357.272461,364.601044 356.309845,362.384277 
	C355.791870,361.191498 356.331604,359.974518 357.668884,359.625275 
	C360.001373,359.016113 361.165619,360.003571 360.782928,362.816345 
z"/>
<path fill="#000000" opacity="1.000000" stroke="none" 
	d="
M153.084198,353.610352 
	C155.753860,354.014771 156.618149,355.419983 155.388824,357.393768 
	C154.631866,358.609131 152.883911,358.643311 151.881485,357.688904 
	C150.271103,356.155579 150.168533,354.534332 153.084198,353.610352 
z"/>
<path fill="#000000" opacity="1.000000" stroke="none" 
	d="
M247.075073,204.982254 
	C243.845123,207.592255 240.426163,208.239868 236.679016,207.373749 
	C233.729584,206.691986 233.721512,205.182663 235.537918,203.229004 
	C238.324478,200.231857 244.668991,200.261856 247.927429,203.609619 
	C247.782394,204.233109 247.518524,204.499313 247.075073,204.982254 
z"/>
</svg>